%TF.GenerationSoftware,KiCad,Pcbnew,9.0.3*%
%TF.CreationDate,2025-07-26T10:45:52-05:00*%
%TF.ProjectId,1026 RPi Power Hat,31303236-2052-4506-9920-506f77657220,1.0.0*%
%TF.SameCoordinates,PX5f5e100PY8f0d180*%
%TF.FileFunction,Legend,Bot*%
%TF.FilePolarity,Positive*%
%FSLAX46Y46*%
G04 Gerber Fmt 4.6, Leading zero omitted, Abs format (unit mm)*
G04 Created by KiCad (PCBNEW 9.0.3) date 2025-07-26 10:45:52*
%MOMM*%
%LPD*%
G01*
G04 APERTURE LIST*
%ADD10C,0.177800*%
%ADD11C,0.150000*%
%ADD12C,0.000000*%
%ADD13C,0.200000*%
G04 APERTURE END LIST*
D10*
X46810455Y8544832D02*
X46375027Y8544832D01*
X46592741Y7782832D02*
X46592741Y8544832D01*
X46121027Y7782832D02*
X46121027Y8544832D01*
X45794456Y7782832D02*
X45794456Y8181975D01*
X45794456Y8181975D02*
X45830741Y8254546D01*
X45830741Y8254546D02*
X45903313Y8290832D01*
X45903313Y8290832D02*
X46012170Y8290832D01*
X46012170Y8290832D02*
X46084741Y8254546D01*
X46084741Y8254546D02*
X46121027Y8218260D01*
X45431598Y7782832D02*
X45431598Y8290832D01*
X45431598Y8544832D02*
X45467884Y8508546D01*
X45467884Y8508546D02*
X45431598Y8472260D01*
X45431598Y8472260D02*
X45395312Y8508546D01*
X45395312Y8508546D02*
X45431598Y8544832D01*
X45431598Y8544832D02*
X45431598Y8472260D01*
X45105027Y7819117D02*
X45032455Y7782832D01*
X45032455Y7782832D02*
X44887312Y7782832D01*
X44887312Y7782832D02*
X44814741Y7819117D01*
X44814741Y7819117D02*
X44778455Y7891689D01*
X44778455Y7891689D02*
X44778455Y7927975D01*
X44778455Y7927975D02*
X44814741Y8000546D01*
X44814741Y8000546D02*
X44887312Y8036832D01*
X44887312Y8036832D02*
X44996170Y8036832D01*
X44996170Y8036832D02*
X45068741Y8073117D01*
X45068741Y8073117D02*
X45105027Y8145689D01*
X45105027Y8145689D02*
X45105027Y8181975D01*
X45105027Y8181975D02*
X45068741Y8254546D01*
X45068741Y8254546D02*
X44996170Y8290832D01*
X44996170Y8290832D02*
X44887312Y8290832D01*
X44887312Y8290832D02*
X44814741Y8254546D01*
X43544742Y7782832D02*
X43544742Y8544832D01*
X43544742Y7819117D02*
X43617313Y7782832D01*
X43617313Y7782832D02*
X43762456Y7782832D01*
X43762456Y7782832D02*
X43835027Y7819117D01*
X43835027Y7819117D02*
X43871313Y7855403D01*
X43871313Y7855403D02*
X43907599Y7927975D01*
X43907599Y7927975D02*
X43907599Y8145689D01*
X43907599Y8145689D02*
X43871313Y8218260D01*
X43871313Y8218260D02*
X43835027Y8254546D01*
X43835027Y8254546D02*
X43762456Y8290832D01*
X43762456Y8290832D02*
X43617313Y8290832D01*
X43617313Y8290832D02*
X43544742Y8254546D01*
X42891598Y7819117D02*
X42964170Y7782832D01*
X42964170Y7782832D02*
X43109313Y7782832D01*
X43109313Y7782832D02*
X43181884Y7819117D01*
X43181884Y7819117D02*
X43218170Y7891689D01*
X43218170Y7891689D02*
X43218170Y8181975D01*
X43218170Y8181975D02*
X43181884Y8254546D01*
X43181884Y8254546D02*
X43109313Y8290832D01*
X43109313Y8290832D02*
X42964170Y8290832D01*
X42964170Y8290832D02*
X42891598Y8254546D01*
X42891598Y8254546D02*
X42855313Y8181975D01*
X42855313Y8181975D02*
X42855313Y8109403D01*
X42855313Y8109403D02*
X43218170Y8036832D01*
X42601312Y8290832D02*
X42419884Y7782832D01*
X42419884Y7782832D02*
X42238455Y8290832D01*
X41948170Y7782832D02*
X41948170Y8290832D01*
X41948170Y8544832D02*
X41984456Y8508546D01*
X41984456Y8508546D02*
X41948170Y8472260D01*
X41948170Y8472260D02*
X41911884Y8508546D01*
X41911884Y8508546D02*
X41948170Y8544832D01*
X41948170Y8544832D02*
X41948170Y8472260D01*
X41258742Y7819117D02*
X41331313Y7782832D01*
X41331313Y7782832D02*
X41476456Y7782832D01*
X41476456Y7782832D02*
X41549027Y7819117D01*
X41549027Y7819117D02*
X41585313Y7855403D01*
X41585313Y7855403D02*
X41621599Y7927975D01*
X41621599Y7927975D02*
X41621599Y8145689D01*
X41621599Y8145689D02*
X41585313Y8218260D01*
X41585313Y8218260D02*
X41549027Y8254546D01*
X41549027Y8254546D02*
X41476456Y8290832D01*
X41476456Y8290832D02*
X41331313Y8290832D01*
X41331313Y8290832D02*
X41258742Y8254546D01*
X40641884Y7819117D02*
X40714456Y7782832D01*
X40714456Y7782832D02*
X40859599Y7782832D01*
X40859599Y7782832D02*
X40932170Y7819117D01*
X40932170Y7819117D02*
X40968456Y7891689D01*
X40968456Y7891689D02*
X40968456Y8181975D01*
X40968456Y8181975D02*
X40932170Y8254546D01*
X40932170Y8254546D02*
X40859599Y8290832D01*
X40859599Y8290832D02*
X40714456Y8290832D01*
X40714456Y8290832D02*
X40641884Y8254546D01*
X40641884Y8254546D02*
X40605599Y8181975D01*
X40605599Y8181975D02*
X40605599Y8109403D01*
X40605599Y8109403D02*
X40968456Y8036832D01*
X40242741Y8544832D02*
X40315313Y8399689D01*
X39952456Y7819117D02*
X39879884Y7782832D01*
X39879884Y7782832D02*
X39734741Y7782832D01*
X39734741Y7782832D02*
X39662170Y7819117D01*
X39662170Y7819117D02*
X39625884Y7891689D01*
X39625884Y7891689D02*
X39625884Y7927975D01*
X39625884Y7927975D02*
X39662170Y8000546D01*
X39662170Y8000546D02*
X39734741Y8036832D01*
X39734741Y8036832D02*
X39843599Y8036832D01*
X39843599Y8036832D02*
X39916170Y8073117D01*
X39916170Y8073117D02*
X39952456Y8145689D01*
X39952456Y8145689D02*
X39952456Y8181975D01*
X39952456Y8181975D02*
X39916170Y8254546D01*
X39916170Y8254546D02*
X39843599Y8290832D01*
X39843599Y8290832D02*
X39734741Y8290832D01*
X39734741Y8290832D02*
X39662170Y8254546D01*
X38392171Y7782832D02*
X38392171Y8544832D01*
X38392171Y7819117D02*
X38464742Y7782832D01*
X38464742Y7782832D02*
X38609885Y7782832D01*
X38609885Y7782832D02*
X38682456Y7819117D01*
X38682456Y7819117D02*
X38718742Y7855403D01*
X38718742Y7855403D02*
X38755028Y7927975D01*
X38755028Y7927975D02*
X38755028Y8145689D01*
X38755028Y8145689D02*
X38718742Y8218260D01*
X38718742Y8218260D02*
X38682456Y8254546D01*
X38682456Y8254546D02*
X38609885Y8290832D01*
X38609885Y8290832D02*
X38464742Y8290832D01*
X38464742Y8290832D02*
X38392171Y8254546D01*
X37739027Y7819117D02*
X37811599Y7782832D01*
X37811599Y7782832D02*
X37956742Y7782832D01*
X37956742Y7782832D02*
X38029313Y7819117D01*
X38029313Y7819117D02*
X38065599Y7891689D01*
X38065599Y7891689D02*
X38065599Y8181975D01*
X38065599Y8181975D02*
X38029313Y8254546D01*
X38029313Y8254546D02*
X37956742Y8290832D01*
X37956742Y8290832D02*
X37811599Y8290832D01*
X37811599Y8290832D02*
X37739027Y8254546D01*
X37739027Y8254546D02*
X37702742Y8181975D01*
X37702742Y8181975D02*
X37702742Y8109403D01*
X37702742Y8109403D02*
X38065599Y8036832D01*
X37412456Y7819117D02*
X37339884Y7782832D01*
X37339884Y7782832D02*
X37194741Y7782832D01*
X37194741Y7782832D02*
X37122170Y7819117D01*
X37122170Y7819117D02*
X37085884Y7891689D01*
X37085884Y7891689D02*
X37085884Y7927975D01*
X37085884Y7927975D02*
X37122170Y8000546D01*
X37122170Y8000546D02*
X37194741Y8036832D01*
X37194741Y8036832D02*
X37303599Y8036832D01*
X37303599Y8036832D02*
X37376170Y8073117D01*
X37376170Y8073117D02*
X37412456Y8145689D01*
X37412456Y8145689D02*
X37412456Y8181975D01*
X37412456Y8181975D02*
X37376170Y8254546D01*
X37376170Y8254546D02*
X37303599Y8290832D01*
X37303599Y8290832D02*
X37194741Y8290832D01*
X37194741Y8290832D02*
X37122170Y8254546D01*
X36759313Y7782832D02*
X36759313Y8290832D01*
X36759313Y8544832D02*
X36795599Y8508546D01*
X36795599Y8508546D02*
X36759313Y8472260D01*
X36759313Y8472260D02*
X36723027Y8508546D01*
X36723027Y8508546D02*
X36759313Y8544832D01*
X36759313Y8544832D02*
X36759313Y8472260D01*
X36069885Y8290832D02*
X36069885Y7673975D01*
X36069885Y7673975D02*
X36106170Y7601403D01*
X36106170Y7601403D02*
X36142456Y7565117D01*
X36142456Y7565117D02*
X36215027Y7528832D01*
X36215027Y7528832D02*
X36323885Y7528832D01*
X36323885Y7528832D02*
X36396456Y7565117D01*
X36069885Y7819117D02*
X36142456Y7782832D01*
X36142456Y7782832D02*
X36287599Y7782832D01*
X36287599Y7782832D02*
X36360170Y7819117D01*
X36360170Y7819117D02*
X36396456Y7855403D01*
X36396456Y7855403D02*
X36432742Y7927975D01*
X36432742Y7927975D02*
X36432742Y8145689D01*
X36432742Y8145689D02*
X36396456Y8218260D01*
X36396456Y8218260D02*
X36360170Y8254546D01*
X36360170Y8254546D02*
X36287599Y8290832D01*
X36287599Y8290832D02*
X36142456Y8290832D01*
X36142456Y8290832D02*
X36069885Y8254546D01*
X35707027Y8290832D02*
X35707027Y7782832D01*
X35707027Y8218260D02*
X35670741Y8254546D01*
X35670741Y8254546D02*
X35598170Y8290832D01*
X35598170Y8290832D02*
X35489313Y8290832D01*
X35489313Y8290832D02*
X35416741Y8254546D01*
X35416741Y8254546D02*
X35380456Y8181975D01*
X35380456Y8181975D02*
X35380456Y7782832D01*
X34437027Y7782832D02*
X34437027Y8290832D01*
X34437027Y8544832D02*
X34473313Y8508546D01*
X34473313Y8508546D02*
X34437027Y8472260D01*
X34437027Y8472260D02*
X34400741Y8508546D01*
X34400741Y8508546D02*
X34437027Y8544832D01*
X34437027Y8544832D02*
X34437027Y8472260D01*
X34110456Y7819117D02*
X34037884Y7782832D01*
X34037884Y7782832D02*
X33892741Y7782832D01*
X33892741Y7782832D02*
X33820170Y7819117D01*
X33820170Y7819117D02*
X33783884Y7891689D01*
X33783884Y7891689D02*
X33783884Y7927975D01*
X33783884Y7927975D02*
X33820170Y8000546D01*
X33820170Y8000546D02*
X33892741Y8036832D01*
X33892741Y8036832D02*
X34001599Y8036832D01*
X34001599Y8036832D02*
X34074170Y8073117D01*
X34074170Y8073117D02*
X34110456Y8145689D01*
X34110456Y8145689D02*
X34110456Y8181975D01*
X34110456Y8181975D02*
X34074170Y8254546D01*
X34074170Y8254546D02*
X34001599Y8290832D01*
X34001599Y8290832D02*
X33892741Y8290832D01*
X33892741Y8290832D02*
X33820170Y8254546D01*
X32767885Y7782832D02*
X32840456Y7819117D01*
X32840456Y7819117D02*
X32876742Y7891689D01*
X32876742Y7891689D02*
X32876742Y8544832D01*
X32477599Y7782832D02*
X32477599Y8290832D01*
X32477599Y8544832D02*
X32513885Y8508546D01*
X32513885Y8508546D02*
X32477599Y8472260D01*
X32477599Y8472260D02*
X32441313Y8508546D01*
X32441313Y8508546D02*
X32477599Y8544832D01*
X32477599Y8544832D02*
X32477599Y8472260D01*
X31788171Y7819117D02*
X31860742Y7782832D01*
X31860742Y7782832D02*
X32005885Y7782832D01*
X32005885Y7782832D02*
X32078456Y7819117D01*
X32078456Y7819117D02*
X32114742Y7855403D01*
X32114742Y7855403D02*
X32151028Y7927975D01*
X32151028Y7927975D02*
X32151028Y8145689D01*
X32151028Y8145689D02*
X32114742Y8218260D01*
X32114742Y8218260D02*
X32078456Y8254546D01*
X32078456Y8254546D02*
X32005885Y8290832D01*
X32005885Y8290832D02*
X31860742Y8290832D01*
X31860742Y8290832D02*
X31788171Y8254546D01*
X31171313Y7819117D02*
X31243885Y7782832D01*
X31243885Y7782832D02*
X31389028Y7782832D01*
X31389028Y7782832D02*
X31461599Y7819117D01*
X31461599Y7819117D02*
X31497885Y7891689D01*
X31497885Y7891689D02*
X31497885Y8181975D01*
X31497885Y8181975D02*
X31461599Y8254546D01*
X31461599Y8254546D02*
X31389028Y8290832D01*
X31389028Y8290832D02*
X31243885Y8290832D01*
X31243885Y8290832D02*
X31171313Y8254546D01*
X31171313Y8254546D02*
X31135028Y8181975D01*
X31135028Y8181975D02*
X31135028Y8109403D01*
X31135028Y8109403D02*
X31497885Y8036832D01*
X30808456Y8290832D02*
X30808456Y7782832D01*
X30808456Y8218260D02*
X30772170Y8254546D01*
X30772170Y8254546D02*
X30699599Y8290832D01*
X30699599Y8290832D02*
X30590742Y8290832D01*
X30590742Y8290832D02*
X30518170Y8254546D01*
X30518170Y8254546D02*
X30481885Y8181975D01*
X30481885Y8181975D02*
X30481885Y7782832D01*
X30155313Y7819117D02*
X30082741Y7782832D01*
X30082741Y7782832D02*
X29937598Y7782832D01*
X29937598Y7782832D02*
X29865027Y7819117D01*
X29865027Y7819117D02*
X29828741Y7891689D01*
X29828741Y7891689D02*
X29828741Y7927975D01*
X29828741Y7927975D02*
X29865027Y8000546D01*
X29865027Y8000546D02*
X29937598Y8036832D01*
X29937598Y8036832D02*
X30046456Y8036832D01*
X30046456Y8036832D02*
X30119027Y8073117D01*
X30119027Y8073117D02*
X30155313Y8145689D01*
X30155313Y8145689D02*
X30155313Y8181975D01*
X30155313Y8181975D02*
X30119027Y8254546D01*
X30119027Y8254546D02*
X30046456Y8290832D01*
X30046456Y8290832D02*
X29937598Y8290832D01*
X29937598Y8290832D02*
X29865027Y8254546D01*
X29211884Y7819117D02*
X29284456Y7782832D01*
X29284456Y7782832D02*
X29429599Y7782832D01*
X29429599Y7782832D02*
X29502170Y7819117D01*
X29502170Y7819117D02*
X29538456Y7891689D01*
X29538456Y7891689D02*
X29538456Y8181975D01*
X29538456Y8181975D02*
X29502170Y8254546D01*
X29502170Y8254546D02*
X29429599Y8290832D01*
X29429599Y8290832D02*
X29284456Y8290832D01*
X29284456Y8290832D02*
X29211884Y8254546D01*
X29211884Y8254546D02*
X29175599Y8181975D01*
X29175599Y8181975D02*
X29175599Y8109403D01*
X29175599Y8109403D02*
X29538456Y8036832D01*
X28522456Y7782832D02*
X28522456Y8544832D01*
X28522456Y7819117D02*
X28595027Y7782832D01*
X28595027Y7782832D02*
X28740170Y7782832D01*
X28740170Y7782832D02*
X28812741Y7819117D01*
X28812741Y7819117D02*
X28849027Y7855403D01*
X28849027Y7855403D02*
X28885313Y7927975D01*
X28885313Y7927975D02*
X28885313Y8145689D01*
X28885313Y8145689D02*
X28849027Y8218260D01*
X28849027Y8218260D02*
X28812741Y8254546D01*
X28812741Y8254546D02*
X28740170Y8290832D01*
X28740170Y8290832D02*
X28595027Y8290832D01*
X28595027Y8290832D02*
X28522456Y8254546D01*
X27252456Y8290832D02*
X27252456Y7782832D01*
X27579027Y8290832D02*
X27579027Y7891689D01*
X27579027Y7891689D02*
X27542741Y7819117D01*
X27542741Y7819117D02*
X27470170Y7782832D01*
X27470170Y7782832D02*
X27361313Y7782832D01*
X27361313Y7782832D02*
X27288741Y7819117D01*
X27288741Y7819117D02*
X27252456Y7855403D01*
X26889598Y8290832D02*
X26889598Y7782832D01*
X26889598Y8218260D02*
X26853312Y8254546D01*
X26853312Y8254546D02*
X26780741Y8290832D01*
X26780741Y8290832D02*
X26671884Y8290832D01*
X26671884Y8290832D02*
X26599312Y8254546D01*
X26599312Y8254546D02*
X26563027Y8181975D01*
X26563027Y8181975D02*
X26563027Y7782832D01*
X25873598Y7782832D02*
X25873598Y8544832D01*
X25873598Y7819117D02*
X25946169Y7782832D01*
X25946169Y7782832D02*
X26091312Y7782832D01*
X26091312Y7782832D02*
X26163883Y7819117D01*
X26163883Y7819117D02*
X26200169Y7855403D01*
X26200169Y7855403D02*
X26236455Y7927975D01*
X26236455Y7927975D02*
X26236455Y8145689D01*
X26236455Y8145689D02*
X26200169Y8218260D01*
X26200169Y8218260D02*
X26163883Y8254546D01*
X26163883Y8254546D02*
X26091312Y8290832D01*
X26091312Y8290832D02*
X25946169Y8290832D01*
X25946169Y8290832D02*
X25873598Y8254546D01*
X25220454Y7819117D02*
X25293026Y7782832D01*
X25293026Y7782832D02*
X25438169Y7782832D01*
X25438169Y7782832D02*
X25510740Y7819117D01*
X25510740Y7819117D02*
X25547026Y7891689D01*
X25547026Y7891689D02*
X25547026Y8181975D01*
X25547026Y8181975D02*
X25510740Y8254546D01*
X25510740Y8254546D02*
X25438169Y8290832D01*
X25438169Y8290832D02*
X25293026Y8290832D01*
X25293026Y8290832D02*
X25220454Y8254546D01*
X25220454Y8254546D02*
X25184169Y8181975D01*
X25184169Y8181975D02*
X25184169Y8109403D01*
X25184169Y8109403D02*
X25547026Y8036832D01*
X24857597Y7782832D02*
X24857597Y8290832D01*
X24857597Y8145689D02*
X24821311Y8218260D01*
X24821311Y8218260D02*
X24785026Y8254546D01*
X24785026Y8254546D02*
X24712454Y8290832D01*
X24712454Y8290832D02*
X24639883Y8290832D01*
X23914169Y8290832D02*
X23623883Y8290832D01*
X23805312Y8544832D02*
X23805312Y7891689D01*
X23805312Y7891689D02*
X23769026Y7819117D01*
X23769026Y7819117D02*
X23696455Y7782832D01*
X23696455Y7782832D02*
X23623883Y7782832D01*
X23369883Y7782832D02*
X23369883Y8544832D01*
X23043312Y7782832D02*
X23043312Y8181975D01*
X23043312Y8181975D02*
X23079597Y8254546D01*
X23079597Y8254546D02*
X23152169Y8290832D01*
X23152169Y8290832D02*
X23261026Y8290832D01*
X23261026Y8290832D02*
X23333597Y8254546D01*
X23333597Y8254546D02*
X23369883Y8218260D01*
X22390168Y7819117D02*
X22462740Y7782832D01*
X22462740Y7782832D02*
X22607883Y7782832D01*
X22607883Y7782832D02*
X22680454Y7819117D01*
X22680454Y7819117D02*
X22716740Y7891689D01*
X22716740Y7891689D02*
X22716740Y8181975D01*
X22716740Y8181975D02*
X22680454Y8254546D01*
X22680454Y8254546D02*
X22607883Y8290832D01*
X22607883Y8290832D02*
X22462740Y8290832D01*
X22462740Y8290832D02*
X22390168Y8254546D01*
X22390168Y8254546D02*
X22353883Y8181975D01*
X22353883Y8181975D02*
X22353883Y8109403D01*
X22353883Y8109403D02*
X22716740Y8036832D01*
X21011311Y7855403D02*
X21047597Y7819117D01*
X21047597Y7819117D02*
X21156454Y7782832D01*
X21156454Y7782832D02*
X21229026Y7782832D01*
X21229026Y7782832D02*
X21337883Y7819117D01*
X21337883Y7819117D02*
X21410454Y7891689D01*
X21410454Y7891689D02*
X21446740Y7964260D01*
X21446740Y7964260D02*
X21483026Y8109403D01*
X21483026Y8109403D02*
X21483026Y8218260D01*
X21483026Y8218260D02*
X21446740Y8363403D01*
X21446740Y8363403D02*
X21410454Y8435975D01*
X21410454Y8435975D02*
X21337883Y8508546D01*
X21337883Y8508546D02*
X21229026Y8544832D01*
X21229026Y8544832D02*
X21156454Y8544832D01*
X21156454Y8544832D02*
X21047597Y8508546D01*
X21047597Y8508546D02*
X21011311Y8472260D01*
X20684740Y8181975D02*
X20430740Y8181975D01*
X20321883Y7782832D02*
X20684740Y7782832D01*
X20684740Y7782832D02*
X20684740Y8544832D01*
X20684740Y8544832D02*
X20321883Y8544832D01*
X19559882Y7782832D02*
X19813882Y8145689D01*
X19995311Y7782832D02*
X19995311Y8544832D01*
X19995311Y8544832D02*
X19705025Y8544832D01*
X19705025Y8544832D02*
X19632454Y8508546D01*
X19632454Y8508546D02*
X19596168Y8472260D01*
X19596168Y8472260D02*
X19559882Y8399689D01*
X19559882Y8399689D02*
X19559882Y8290832D01*
X19559882Y8290832D02*
X19596168Y8218260D01*
X19596168Y8218260D02*
X19632454Y8181975D01*
X19632454Y8181975D02*
X19705025Y8145689D01*
X19705025Y8145689D02*
X19995311Y8145689D01*
X19233311Y7782832D02*
X19233311Y8544832D01*
X19233311Y8544832D02*
X18797882Y7782832D01*
X18797882Y7782832D02*
X18797882Y8544832D01*
X46556455Y7318055D02*
X46411312Y7318055D01*
X46411312Y7318055D02*
X46338741Y7281769D01*
X46338741Y7281769D02*
X46266169Y7209198D01*
X46266169Y7209198D02*
X46229884Y7064055D01*
X46229884Y7064055D02*
X46229884Y6810055D01*
X46229884Y6810055D02*
X46266169Y6664912D01*
X46266169Y6664912D02*
X46338741Y6592340D01*
X46338741Y6592340D02*
X46411312Y6556055D01*
X46411312Y6556055D02*
X46556455Y6556055D01*
X46556455Y6556055D02*
X46629027Y6592340D01*
X46629027Y6592340D02*
X46701598Y6664912D01*
X46701598Y6664912D02*
X46737884Y6810055D01*
X46737884Y6810055D02*
X46737884Y7064055D01*
X46737884Y7064055D02*
X46701598Y7209198D01*
X46701598Y7209198D02*
X46629027Y7281769D01*
X46629027Y7281769D02*
X46556455Y7318055D01*
X45903312Y7064055D02*
X45903312Y6302055D01*
X45903312Y7027769D02*
X45830741Y7064055D01*
X45830741Y7064055D02*
X45685598Y7064055D01*
X45685598Y7064055D02*
X45613026Y7027769D01*
X45613026Y7027769D02*
X45576741Y6991483D01*
X45576741Y6991483D02*
X45540455Y6918912D01*
X45540455Y6918912D02*
X45540455Y6701198D01*
X45540455Y6701198D02*
X45576741Y6628626D01*
X45576741Y6628626D02*
X45613026Y6592340D01*
X45613026Y6592340D02*
X45685598Y6556055D01*
X45685598Y6556055D02*
X45830741Y6556055D01*
X45830741Y6556055D02*
X45903312Y6592340D01*
X44923597Y6592340D02*
X44996169Y6556055D01*
X44996169Y6556055D02*
X45141312Y6556055D01*
X45141312Y6556055D02*
X45213883Y6592340D01*
X45213883Y6592340D02*
X45250169Y6664912D01*
X45250169Y6664912D02*
X45250169Y6955198D01*
X45250169Y6955198D02*
X45213883Y7027769D01*
X45213883Y7027769D02*
X45141312Y7064055D01*
X45141312Y7064055D02*
X44996169Y7064055D01*
X44996169Y7064055D02*
X44923597Y7027769D01*
X44923597Y7027769D02*
X44887312Y6955198D01*
X44887312Y6955198D02*
X44887312Y6882626D01*
X44887312Y6882626D02*
X45250169Y6810055D01*
X44560740Y7064055D02*
X44560740Y6556055D01*
X44560740Y6991483D02*
X44524454Y7027769D01*
X44524454Y7027769D02*
X44451883Y7064055D01*
X44451883Y7064055D02*
X44343026Y7064055D01*
X44343026Y7064055D02*
X44270454Y7027769D01*
X44270454Y7027769D02*
X44234169Y6955198D01*
X44234169Y6955198D02*
X44234169Y6556055D01*
X43290740Y6556055D02*
X43290740Y7318055D01*
X43290740Y6955198D02*
X42855311Y6955198D01*
X42855311Y6556055D02*
X42855311Y7318055D01*
X42165883Y6556055D02*
X42165883Y6955198D01*
X42165883Y6955198D02*
X42202168Y7027769D01*
X42202168Y7027769D02*
X42274740Y7064055D01*
X42274740Y7064055D02*
X42419883Y7064055D01*
X42419883Y7064055D02*
X42492454Y7027769D01*
X42165883Y6592340D02*
X42238454Y6556055D01*
X42238454Y6556055D02*
X42419883Y6556055D01*
X42419883Y6556055D02*
X42492454Y6592340D01*
X42492454Y6592340D02*
X42528740Y6664912D01*
X42528740Y6664912D02*
X42528740Y6737483D01*
X42528740Y6737483D02*
X42492454Y6810055D01*
X42492454Y6810055D02*
X42419883Y6846340D01*
X42419883Y6846340D02*
X42238454Y6846340D01*
X42238454Y6846340D02*
X42165883Y6882626D01*
X41803025Y6556055D02*
X41803025Y7064055D01*
X41803025Y6918912D02*
X41766739Y6991483D01*
X41766739Y6991483D02*
X41730454Y7027769D01*
X41730454Y7027769D02*
X41657882Y7064055D01*
X41657882Y7064055D02*
X41585311Y7064055D01*
X41004740Y6556055D02*
X41004740Y7318055D01*
X41004740Y6592340D02*
X41077311Y6556055D01*
X41077311Y6556055D02*
X41222454Y6556055D01*
X41222454Y6556055D02*
X41295025Y6592340D01*
X41295025Y6592340D02*
X41331311Y6628626D01*
X41331311Y6628626D02*
X41367597Y6701198D01*
X41367597Y6701198D02*
X41367597Y6918912D01*
X41367597Y6918912D02*
X41331311Y6991483D01*
X41331311Y6991483D02*
X41295025Y7027769D01*
X41295025Y7027769D02*
X41222454Y7064055D01*
X41222454Y7064055D02*
X41077311Y7064055D01*
X41077311Y7064055D02*
X41004740Y7027769D01*
X40714453Y7064055D02*
X40569311Y6556055D01*
X40569311Y6556055D02*
X40424168Y6918912D01*
X40424168Y6918912D02*
X40279025Y6556055D01*
X40279025Y6556055D02*
X40133882Y7064055D01*
X39517025Y6556055D02*
X39517025Y6955198D01*
X39517025Y6955198D02*
X39553310Y7027769D01*
X39553310Y7027769D02*
X39625882Y7064055D01*
X39625882Y7064055D02*
X39771025Y7064055D01*
X39771025Y7064055D02*
X39843596Y7027769D01*
X39517025Y6592340D02*
X39589596Y6556055D01*
X39589596Y6556055D02*
X39771025Y6556055D01*
X39771025Y6556055D02*
X39843596Y6592340D01*
X39843596Y6592340D02*
X39879882Y6664912D01*
X39879882Y6664912D02*
X39879882Y6737483D01*
X39879882Y6737483D02*
X39843596Y6810055D01*
X39843596Y6810055D02*
X39771025Y6846340D01*
X39771025Y6846340D02*
X39589596Y6846340D01*
X39589596Y6846340D02*
X39517025Y6882626D01*
X39154167Y6556055D02*
X39154167Y7064055D01*
X39154167Y6918912D02*
X39117881Y6991483D01*
X39117881Y6991483D02*
X39081596Y7027769D01*
X39081596Y7027769D02*
X39009024Y7064055D01*
X39009024Y7064055D02*
X38936453Y7064055D01*
X38392167Y6592340D02*
X38464739Y6556055D01*
X38464739Y6556055D02*
X38609882Y6556055D01*
X38609882Y6556055D02*
X38682453Y6592340D01*
X38682453Y6592340D02*
X38718739Y6664912D01*
X38718739Y6664912D02*
X38718739Y6955198D01*
X38718739Y6955198D02*
X38682453Y7027769D01*
X38682453Y7027769D02*
X38609882Y7064055D01*
X38609882Y7064055D02*
X38464739Y7064055D01*
X38464739Y7064055D02*
X38392167Y7027769D01*
X38392167Y7027769D02*
X38355882Y6955198D01*
X38355882Y6955198D02*
X38355882Y6882626D01*
X38355882Y6882626D02*
X38718739Y6810055D01*
X37085882Y6556055D02*
X37448739Y6556055D01*
X37448739Y6556055D02*
X37448739Y7318055D01*
X36831882Y6556055D02*
X36831882Y7064055D01*
X36831882Y7318055D02*
X36868168Y7281769D01*
X36868168Y7281769D02*
X36831882Y7245483D01*
X36831882Y7245483D02*
X36795596Y7281769D01*
X36795596Y7281769D02*
X36831882Y7318055D01*
X36831882Y7318055D02*
X36831882Y7245483D01*
X36142454Y6592340D02*
X36215025Y6556055D01*
X36215025Y6556055D02*
X36360168Y6556055D01*
X36360168Y6556055D02*
X36432739Y6592340D01*
X36432739Y6592340D02*
X36469025Y6628626D01*
X36469025Y6628626D02*
X36505311Y6701198D01*
X36505311Y6701198D02*
X36505311Y6918912D01*
X36505311Y6918912D02*
X36469025Y6991483D01*
X36469025Y6991483D02*
X36432739Y7027769D01*
X36432739Y7027769D02*
X36360168Y7064055D01*
X36360168Y7064055D02*
X36215025Y7064055D01*
X36215025Y7064055D02*
X36142454Y7027769D01*
X35525596Y6592340D02*
X35598168Y6556055D01*
X35598168Y6556055D02*
X35743311Y6556055D01*
X35743311Y6556055D02*
X35815882Y6592340D01*
X35815882Y6592340D02*
X35852168Y6664912D01*
X35852168Y6664912D02*
X35852168Y6955198D01*
X35852168Y6955198D02*
X35815882Y7027769D01*
X35815882Y7027769D02*
X35743311Y7064055D01*
X35743311Y7064055D02*
X35598168Y7064055D01*
X35598168Y7064055D02*
X35525596Y7027769D01*
X35525596Y7027769D02*
X35489311Y6955198D01*
X35489311Y6955198D02*
X35489311Y6882626D01*
X35489311Y6882626D02*
X35852168Y6810055D01*
X35162739Y7064055D02*
X35162739Y6556055D01*
X35162739Y6991483D02*
X35126453Y7027769D01*
X35126453Y7027769D02*
X35053882Y7064055D01*
X35053882Y7064055D02*
X34945025Y7064055D01*
X34945025Y7064055D02*
X34872453Y7027769D01*
X34872453Y7027769D02*
X34836168Y6955198D01*
X34836168Y6955198D02*
X34836168Y6556055D01*
X34509596Y6592340D02*
X34437024Y6556055D01*
X34437024Y6556055D02*
X34291881Y6556055D01*
X34291881Y6556055D02*
X34219310Y6592340D01*
X34219310Y6592340D02*
X34183024Y6664912D01*
X34183024Y6664912D02*
X34183024Y6701198D01*
X34183024Y6701198D02*
X34219310Y6773769D01*
X34219310Y6773769D02*
X34291881Y6810055D01*
X34291881Y6810055D02*
X34400739Y6810055D01*
X34400739Y6810055D02*
X34473310Y6846340D01*
X34473310Y6846340D02*
X34509596Y6918912D01*
X34509596Y6918912D02*
X34509596Y6955198D01*
X34509596Y6955198D02*
X34473310Y7027769D01*
X34473310Y7027769D02*
X34400739Y7064055D01*
X34400739Y7064055D02*
X34291881Y7064055D01*
X34291881Y7064055D02*
X34219310Y7027769D01*
X33566167Y6592340D02*
X33638739Y6556055D01*
X33638739Y6556055D02*
X33783882Y6556055D01*
X33783882Y6556055D02*
X33856453Y6592340D01*
X33856453Y6592340D02*
X33892739Y6664912D01*
X33892739Y6664912D02*
X33892739Y6955198D01*
X33892739Y6955198D02*
X33856453Y7027769D01*
X33856453Y7027769D02*
X33783882Y7064055D01*
X33783882Y7064055D02*
X33638739Y7064055D01*
X33638739Y7064055D02*
X33566167Y7027769D01*
X33566167Y7027769D02*
X33529882Y6955198D01*
X33529882Y6955198D02*
X33529882Y6882626D01*
X33529882Y6882626D02*
X33892739Y6810055D01*
X32695310Y7064055D02*
X32513882Y6556055D01*
X32513882Y6556055D02*
X32332453Y7064055D01*
X32078454Y7245483D02*
X32042168Y7281769D01*
X32042168Y7281769D02*
X31969597Y7318055D01*
X31969597Y7318055D02*
X31788168Y7318055D01*
X31788168Y7318055D02*
X31715597Y7281769D01*
X31715597Y7281769D02*
X31679311Y7245483D01*
X31679311Y7245483D02*
X31643025Y7172912D01*
X31643025Y7172912D02*
X31643025Y7100340D01*
X31643025Y7100340D02*
X31679311Y6991483D01*
X31679311Y6991483D02*
X32114739Y6556055D01*
X32114739Y6556055D02*
X31643025Y6556055D01*
X31280168Y6592340D02*
X31280168Y6556055D01*
X31280168Y6556055D02*
X31316454Y6483483D01*
X31316454Y6483483D02*
X31352740Y6447198D01*
X30445597Y7318055D02*
X30264169Y6556055D01*
X30264169Y6556055D02*
X30119026Y7100340D01*
X30119026Y7100340D02*
X29973883Y6556055D01*
X29973883Y6556055D02*
X29792455Y7318055D01*
X29211883Y6592340D02*
X29284455Y6556055D01*
X29284455Y6556055D02*
X29429598Y6556055D01*
X29429598Y6556055D02*
X29502169Y6592340D01*
X29502169Y6592340D02*
X29538455Y6664912D01*
X29538455Y6664912D02*
X29538455Y6955198D01*
X29538455Y6955198D02*
X29502169Y7027769D01*
X29502169Y7027769D02*
X29429598Y7064055D01*
X29429598Y7064055D02*
X29284455Y7064055D01*
X29284455Y7064055D02*
X29211883Y7027769D01*
X29211883Y7027769D02*
X29175598Y6955198D01*
X29175598Y6955198D02*
X29175598Y6882626D01*
X29175598Y6882626D02*
X29538455Y6810055D01*
X28522455Y6556055D02*
X28522455Y6955198D01*
X28522455Y6955198D02*
X28558740Y7027769D01*
X28558740Y7027769D02*
X28631312Y7064055D01*
X28631312Y7064055D02*
X28776455Y7064055D01*
X28776455Y7064055D02*
X28849026Y7027769D01*
X28522455Y6592340D02*
X28595026Y6556055D01*
X28595026Y6556055D02*
X28776455Y6556055D01*
X28776455Y6556055D02*
X28849026Y6592340D01*
X28849026Y6592340D02*
X28885312Y6664912D01*
X28885312Y6664912D02*
X28885312Y6737483D01*
X28885312Y6737483D02*
X28849026Y6810055D01*
X28849026Y6810055D02*
X28776455Y6846340D01*
X28776455Y6846340D02*
X28595026Y6846340D01*
X28595026Y6846340D02*
X28522455Y6882626D01*
X28159597Y6556055D02*
X28159597Y7318055D01*
X28087026Y6846340D02*
X27869311Y6556055D01*
X27869311Y7064055D02*
X28159597Y6773769D01*
X27433883Y6556055D02*
X27506454Y6592340D01*
X27506454Y6592340D02*
X27542740Y6664912D01*
X27542740Y6664912D02*
X27542740Y7318055D01*
X27216168Y7064055D02*
X27034740Y6556055D01*
X26853311Y7064055D02*
X27034740Y6556055D01*
X27034740Y6556055D02*
X27107311Y6374626D01*
X27107311Y6374626D02*
X27143597Y6338340D01*
X27143597Y6338340D02*
X27216168Y6302055D01*
X25547026Y6556055D02*
X25801026Y6918912D01*
X25982455Y6556055D02*
X25982455Y7318055D01*
X25982455Y7318055D02*
X25692169Y7318055D01*
X25692169Y7318055D02*
X25619598Y7281769D01*
X25619598Y7281769D02*
X25583312Y7245483D01*
X25583312Y7245483D02*
X25547026Y7172912D01*
X25547026Y7172912D02*
X25547026Y7064055D01*
X25547026Y7064055D02*
X25583312Y6991483D01*
X25583312Y6991483D02*
X25619598Y6955198D01*
X25619598Y6955198D02*
X25692169Y6918912D01*
X25692169Y6918912D02*
X25982455Y6918912D01*
X24930169Y6592340D02*
X25002741Y6556055D01*
X25002741Y6556055D02*
X25147884Y6556055D01*
X25147884Y6556055D02*
X25220455Y6592340D01*
X25220455Y6592340D02*
X25256741Y6664912D01*
X25256741Y6664912D02*
X25256741Y6955198D01*
X25256741Y6955198D02*
X25220455Y7027769D01*
X25220455Y7027769D02*
X25147884Y7064055D01*
X25147884Y7064055D02*
X25002741Y7064055D01*
X25002741Y7064055D02*
X24930169Y7027769D01*
X24930169Y7027769D02*
X24893884Y6955198D01*
X24893884Y6955198D02*
X24893884Y6882626D01*
X24893884Y6882626D02*
X25256741Y6810055D01*
X24240741Y6592340D02*
X24313312Y6556055D01*
X24313312Y6556055D02*
X24458455Y6556055D01*
X24458455Y6556055D02*
X24531026Y6592340D01*
X24531026Y6592340D02*
X24567312Y6628626D01*
X24567312Y6628626D02*
X24603598Y6701198D01*
X24603598Y6701198D02*
X24603598Y6918912D01*
X24603598Y6918912D02*
X24567312Y6991483D01*
X24567312Y6991483D02*
X24531026Y7027769D01*
X24531026Y7027769D02*
X24458455Y7064055D01*
X24458455Y7064055D02*
X24313312Y7064055D01*
X24313312Y7064055D02*
X24240741Y7027769D01*
X23914169Y6556055D02*
X23914169Y7064055D01*
X23914169Y7318055D02*
X23950455Y7281769D01*
X23950455Y7281769D02*
X23914169Y7245483D01*
X23914169Y7245483D02*
X23877883Y7281769D01*
X23877883Y7281769D02*
X23914169Y7318055D01*
X23914169Y7318055D02*
X23914169Y7245483D01*
X23551312Y7064055D02*
X23551312Y6302055D01*
X23551312Y7027769D02*
X23478741Y7064055D01*
X23478741Y7064055D02*
X23333598Y7064055D01*
X23333598Y7064055D02*
X23261026Y7027769D01*
X23261026Y7027769D02*
X23224741Y6991483D01*
X23224741Y6991483D02*
X23188455Y6918912D01*
X23188455Y6918912D02*
X23188455Y6701198D01*
X23188455Y6701198D02*
X23224741Y6628626D01*
X23224741Y6628626D02*
X23261026Y6592340D01*
X23261026Y6592340D02*
X23333598Y6556055D01*
X23333598Y6556055D02*
X23478741Y6556055D01*
X23478741Y6556055D02*
X23551312Y6592340D01*
X22861883Y6556055D02*
X22861883Y7064055D01*
X22861883Y6918912D02*
X22825597Y6991483D01*
X22825597Y6991483D02*
X22789312Y7027769D01*
X22789312Y7027769D02*
X22716740Y7064055D01*
X22716740Y7064055D02*
X22644169Y7064055D01*
X22281312Y6556055D02*
X22353883Y6592340D01*
X22353883Y6592340D02*
X22390169Y6628626D01*
X22390169Y6628626D02*
X22426455Y6701198D01*
X22426455Y6701198D02*
X22426455Y6918912D01*
X22426455Y6918912D02*
X22390169Y6991483D01*
X22390169Y6991483D02*
X22353883Y7027769D01*
X22353883Y7027769D02*
X22281312Y7064055D01*
X22281312Y7064055D02*
X22172455Y7064055D01*
X22172455Y7064055D02*
X22099883Y7027769D01*
X22099883Y7027769D02*
X22063598Y6991483D01*
X22063598Y6991483D02*
X22027312Y6918912D01*
X22027312Y6918912D02*
X22027312Y6701198D01*
X22027312Y6701198D02*
X22063598Y6628626D01*
X22063598Y6628626D02*
X22099883Y6592340D01*
X22099883Y6592340D02*
X22172455Y6556055D01*
X22172455Y6556055D02*
X22281312Y6556055D01*
X21374169Y6592340D02*
X21446740Y6556055D01*
X21446740Y6556055D02*
X21591883Y6556055D01*
X21591883Y6556055D02*
X21664454Y6592340D01*
X21664454Y6592340D02*
X21700740Y6628626D01*
X21700740Y6628626D02*
X21737026Y6701198D01*
X21737026Y6701198D02*
X21737026Y6918912D01*
X21737026Y6918912D02*
X21700740Y6991483D01*
X21700740Y6991483D02*
X21664454Y7027769D01*
X21664454Y7027769D02*
X21591883Y7064055D01*
X21591883Y7064055D02*
X21446740Y7064055D01*
X21446740Y7064055D02*
X21374169Y7027769D01*
X20721026Y6556055D02*
X20721026Y6955198D01*
X20721026Y6955198D02*
X20757311Y7027769D01*
X20757311Y7027769D02*
X20829883Y7064055D01*
X20829883Y7064055D02*
X20975026Y7064055D01*
X20975026Y7064055D02*
X21047597Y7027769D01*
X20721026Y6592340D02*
X20793597Y6556055D01*
X20793597Y6556055D02*
X20975026Y6556055D01*
X20975026Y6556055D02*
X21047597Y6592340D01*
X21047597Y6592340D02*
X21083883Y6664912D01*
X21083883Y6664912D02*
X21083883Y6737483D01*
X21083883Y6737483D02*
X21047597Y6810055D01*
X21047597Y6810055D02*
X20975026Y6846340D01*
X20975026Y6846340D02*
X20793597Y6846340D01*
X20793597Y6846340D02*
X20721026Y6882626D01*
X20249311Y6556055D02*
X20321882Y6592340D01*
X20321882Y6592340D02*
X20358168Y6664912D01*
X20358168Y6664912D02*
X20358168Y7318055D01*
X19959025Y6628626D02*
X19922739Y6592340D01*
X19922739Y6592340D02*
X19959025Y6556055D01*
X19959025Y6556055D02*
X19995311Y6592340D01*
X19995311Y6592340D02*
X19959025Y6628626D01*
X19959025Y6628626D02*
X19959025Y6556055D01*
X19959025Y7027769D02*
X19922739Y6991483D01*
X19922739Y6991483D02*
X19959025Y6955198D01*
X19959025Y6955198D02*
X19995311Y6991483D01*
X19995311Y6991483D02*
X19959025Y7027769D01*
X19959025Y7027769D02*
X19959025Y6955198D01*
X46701598Y4102501D02*
X46701598Y4864501D01*
X46375027Y4102501D02*
X46375027Y4501644D01*
X46375027Y4501644D02*
X46411312Y4574215D01*
X46411312Y4574215D02*
X46483884Y4610501D01*
X46483884Y4610501D02*
X46592741Y4610501D01*
X46592741Y4610501D02*
X46665312Y4574215D01*
X46665312Y4574215D02*
X46701598Y4537929D01*
X46121026Y4610501D02*
X45830740Y4610501D01*
X46012169Y4864501D02*
X46012169Y4211358D01*
X46012169Y4211358D02*
X45975883Y4138786D01*
X45975883Y4138786D02*
X45903312Y4102501D01*
X45903312Y4102501D02*
X45830740Y4102501D01*
X45685597Y4610501D02*
X45395311Y4610501D01*
X45576740Y4864501D02*
X45576740Y4211358D01*
X45576740Y4211358D02*
X45540454Y4138786D01*
X45540454Y4138786D02*
X45467883Y4102501D01*
X45467883Y4102501D02*
X45395311Y4102501D01*
X45141311Y4610501D02*
X45141311Y3848501D01*
X45141311Y4574215D02*
X45068740Y4610501D01*
X45068740Y4610501D02*
X44923597Y4610501D01*
X44923597Y4610501D02*
X44851025Y4574215D01*
X44851025Y4574215D02*
X44814740Y4537929D01*
X44814740Y4537929D02*
X44778454Y4465358D01*
X44778454Y4465358D02*
X44778454Y4247644D01*
X44778454Y4247644D02*
X44814740Y4175072D01*
X44814740Y4175072D02*
X44851025Y4138786D01*
X44851025Y4138786D02*
X44923597Y4102501D01*
X44923597Y4102501D02*
X45068740Y4102501D01*
X45068740Y4102501D02*
X45141311Y4138786D01*
X44488168Y4138786D02*
X44415596Y4102501D01*
X44415596Y4102501D02*
X44270453Y4102501D01*
X44270453Y4102501D02*
X44197882Y4138786D01*
X44197882Y4138786D02*
X44161596Y4211358D01*
X44161596Y4211358D02*
X44161596Y4247644D01*
X44161596Y4247644D02*
X44197882Y4320215D01*
X44197882Y4320215D02*
X44270453Y4356501D01*
X44270453Y4356501D02*
X44379311Y4356501D01*
X44379311Y4356501D02*
X44451882Y4392786D01*
X44451882Y4392786D02*
X44488168Y4465358D01*
X44488168Y4465358D02*
X44488168Y4501644D01*
X44488168Y4501644D02*
X44451882Y4574215D01*
X44451882Y4574215D02*
X44379311Y4610501D01*
X44379311Y4610501D02*
X44270453Y4610501D01*
X44270453Y4610501D02*
X44197882Y4574215D01*
X43835025Y4175072D02*
X43798739Y4138786D01*
X43798739Y4138786D02*
X43835025Y4102501D01*
X43835025Y4102501D02*
X43871311Y4138786D01*
X43871311Y4138786D02*
X43835025Y4175072D01*
X43835025Y4175072D02*
X43835025Y4102501D01*
X43835025Y4574215D02*
X43798739Y4537929D01*
X43798739Y4537929D02*
X43835025Y4501644D01*
X43835025Y4501644D02*
X43871311Y4537929D01*
X43871311Y4537929D02*
X43835025Y4574215D01*
X43835025Y4574215D02*
X43835025Y4501644D01*
X42927882Y4900786D02*
X43581025Y3921072D01*
X42129596Y4900786D02*
X42782739Y3921072D01*
X41766739Y4102501D02*
X41839310Y4138786D01*
X41839310Y4138786D02*
X41875596Y4175072D01*
X41875596Y4175072D02*
X41911882Y4247644D01*
X41911882Y4247644D02*
X41911882Y4465358D01*
X41911882Y4465358D02*
X41875596Y4537929D01*
X41875596Y4537929D02*
X41839310Y4574215D01*
X41839310Y4574215D02*
X41766739Y4610501D01*
X41766739Y4610501D02*
X41657882Y4610501D01*
X41657882Y4610501D02*
X41585310Y4574215D01*
X41585310Y4574215D02*
X41549025Y4537929D01*
X41549025Y4537929D02*
X41512739Y4465358D01*
X41512739Y4465358D02*
X41512739Y4247644D01*
X41512739Y4247644D02*
X41549025Y4175072D01*
X41549025Y4175072D02*
X41585310Y4138786D01*
X41585310Y4138786D02*
X41657882Y4102501D01*
X41657882Y4102501D02*
X41766739Y4102501D01*
X41186167Y4102501D02*
X41186167Y4864501D01*
X40859596Y4102501D02*
X40859596Y4501644D01*
X40859596Y4501644D02*
X40895881Y4574215D01*
X40895881Y4574215D02*
X40968453Y4610501D01*
X40968453Y4610501D02*
X41077310Y4610501D01*
X41077310Y4610501D02*
X41149881Y4574215D01*
X41149881Y4574215D02*
X41186167Y4537929D01*
X40569309Y4610501D02*
X40424167Y4102501D01*
X40424167Y4102501D02*
X40279024Y4465358D01*
X40279024Y4465358D02*
X40133881Y4102501D01*
X40133881Y4102501D02*
X39988738Y4610501D01*
X39698452Y4102501D02*
X39698452Y4610501D01*
X39698452Y4465358D02*
X39662166Y4537929D01*
X39662166Y4537929D02*
X39625881Y4574215D01*
X39625881Y4574215D02*
X39553309Y4610501D01*
X39553309Y4610501D02*
X39480738Y4610501D01*
X39226738Y4175072D02*
X39190452Y4138786D01*
X39190452Y4138786D02*
X39226738Y4102501D01*
X39226738Y4102501D02*
X39263024Y4138786D01*
X39263024Y4138786D02*
X39226738Y4175072D01*
X39226738Y4175072D02*
X39226738Y4102501D01*
X38755024Y4102501D02*
X38827595Y4138786D01*
X38827595Y4138786D02*
X38863881Y4175072D01*
X38863881Y4175072D02*
X38900167Y4247644D01*
X38900167Y4247644D02*
X38900167Y4465358D01*
X38900167Y4465358D02*
X38863881Y4537929D01*
X38863881Y4537929D02*
X38827595Y4574215D01*
X38827595Y4574215D02*
X38755024Y4610501D01*
X38755024Y4610501D02*
X38646167Y4610501D01*
X38646167Y4610501D02*
X38573595Y4574215D01*
X38573595Y4574215D02*
X38537310Y4537929D01*
X38537310Y4537929D02*
X38501024Y4465358D01*
X38501024Y4465358D02*
X38501024Y4247644D01*
X38501024Y4247644D02*
X38537310Y4175072D01*
X38537310Y4175072D02*
X38573595Y4138786D01*
X38573595Y4138786D02*
X38646167Y4102501D01*
X38646167Y4102501D02*
X38755024Y4102501D01*
X38174452Y4102501D02*
X38174452Y4610501D01*
X38174452Y4465358D02*
X38138166Y4537929D01*
X38138166Y4537929D02*
X38101881Y4574215D01*
X38101881Y4574215D02*
X38029309Y4610501D01*
X38029309Y4610501D02*
X37956738Y4610501D01*
X37376167Y4610501D02*
X37376167Y3993644D01*
X37376167Y3993644D02*
X37412452Y3921072D01*
X37412452Y3921072D02*
X37448738Y3884786D01*
X37448738Y3884786D02*
X37521309Y3848501D01*
X37521309Y3848501D02*
X37630167Y3848501D01*
X37630167Y3848501D02*
X37702738Y3884786D01*
X37376167Y4138786D02*
X37448738Y4102501D01*
X37448738Y4102501D02*
X37593881Y4102501D01*
X37593881Y4102501D02*
X37666452Y4138786D01*
X37666452Y4138786D02*
X37702738Y4175072D01*
X37702738Y4175072D02*
X37739024Y4247644D01*
X37739024Y4247644D02*
X37739024Y4465358D01*
X37739024Y4465358D02*
X37702738Y4537929D01*
X37702738Y4537929D02*
X37666452Y4574215D01*
X37666452Y4574215D02*
X37593881Y4610501D01*
X37593881Y4610501D02*
X37448738Y4610501D01*
X37448738Y4610501D02*
X37376167Y4574215D01*
X36469023Y4900786D02*
X37122166Y3921072D01*
X35888452Y4138786D02*
X35961023Y4102501D01*
X35961023Y4102501D02*
X36106166Y4102501D01*
X36106166Y4102501D02*
X36178737Y4138786D01*
X36178737Y4138786D02*
X36215023Y4175072D01*
X36215023Y4175072D02*
X36251309Y4247644D01*
X36251309Y4247644D02*
X36251309Y4465358D01*
X36251309Y4465358D02*
X36215023Y4537929D01*
X36215023Y4537929D02*
X36178737Y4574215D01*
X36178737Y4574215D02*
X36106166Y4610501D01*
X36106166Y4610501D02*
X35961023Y4610501D01*
X35961023Y4610501D02*
X35888452Y4574215D01*
X35271594Y4138786D02*
X35344166Y4102501D01*
X35344166Y4102501D02*
X35489309Y4102501D01*
X35489309Y4102501D02*
X35561880Y4138786D01*
X35561880Y4138786D02*
X35598166Y4211358D01*
X35598166Y4211358D02*
X35598166Y4501644D01*
X35598166Y4501644D02*
X35561880Y4574215D01*
X35561880Y4574215D02*
X35489309Y4610501D01*
X35489309Y4610501D02*
X35344166Y4610501D01*
X35344166Y4610501D02*
X35271594Y4574215D01*
X35271594Y4574215D02*
X35235309Y4501644D01*
X35235309Y4501644D02*
X35235309Y4429072D01*
X35235309Y4429072D02*
X35598166Y4356501D01*
X34908737Y4102501D02*
X34908737Y4610501D01*
X34908737Y4465358D02*
X34872451Y4537929D01*
X34872451Y4537929D02*
X34836166Y4574215D01*
X34836166Y4574215D02*
X34763594Y4610501D01*
X34763594Y4610501D02*
X34691023Y4610501D01*
X34437023Y4610501D02*
X34437023Y4102501D01*
X34437023Y4537929D02*
X34400737Y4574215D01*
X34400737Y4574215D02*
X34328166Y4610501D01*
X34328166Y4610501D02*
X34219309Y4610501D01*
X34219309Y4610501D02*
X34146737Y4574215D01*
X34146737Y4574215D02*
X34110452Y4501644D01*
X34110452Y4501644D02*
X34110452Y4102501D01*
X33929023Y4029929D02*
X33348451Y4029929D01*
X33058166Y4102501D02*
X33130737Y4138786D01*
X33130737Y4138786D02*
X33167023Y4175072D01*
X33167023Y4175072D02*
X33203309Y4247644D01*
X33203309Y4247644D02*
X33203309Y4465358D01*
X33203309Y4465358D02*
X33167023Y4537929D01*
X33167023Y4537929D02*
X33130737Y4574215D01*
X33130737Y4574215D02*
X33058166Y4610501D01*
X33058166Y4610501D02*
X32949309Y4610501D01*
X32949309Y4610501D02*
X32876737Y4574215D01*
X32876737Y4574215D02*
X32840452Y4537929D01*
X32840452Y4537929D02*
X32804166Y4465358D01*
X32804166Y4465358D02*
X32804166Y4247644D01*
X32804166Y4247644D02*
X32840452Y4175072D01*
X32840452Y4175072D02*
X32876737Y4138786D01*
X32876737Y4138786D02*
X32949309Y4102501D01*
X32949309Y4102501D02*
X33058166Y4102501D01*
X32477594Y4102501D02*
X32477594Y4864501D01*
X32151023Y4102501D02*
X32151023Y4501644D01*
X32151023Y4501644D02*
X32187308Y4574215D01*
X32187308Y4574215D02*
X32259880Y4610501D01*
X32259880Y4610501D02*
X32368737Y4610501D01*
X32368737Y4610501D02*
X32441308Y4574215D01*
X32441308Y4574215D02*
X32477594Y4537929D01*
X31679308Y4102501D02*
X31751879Y4138786D01*
X31751879Y4138786D02*
X31788165Y4211358D01*
X31788165Y4211358D02*
X31788165Y4864501D01*
X31570451Y4029929D02*
X30989879Y4029929D01*
X30881022Y4610501D02*
X30735880Y4102501D01*
X30735880Y4102501D02*
X30590737Y4465358D01*
X30590737Y4465358D02*
X30445594Y4102501D01*
X30445594Y4102501D02*
X30300451Y4610501D01*
X30191594Y4029929D02*
X29611022Y4029929D01*
X29502165Y4610501D02*
X29320737Y4102501D01*
X29320737Y4102501D02*
X29139308Y4610501D01*
X28885309Y4791929D02*
X28849023Y4828215D01*
X28849023Y4828215D02*
X28776452Y4864501D01*
X28776452Y4864501D02*
X28595023Y4864501D01*
X28595023Y4864501D02*
X28522452Y4828215D01*
X28522452Y4828215D02*
X28486166Y4791929D01*
X28486166Y4791929D02*
X28449880Y4719358D01*
X28449880Y4719358D02*
X28449880Y4646786D01*
X28449880Y4646786D02*
X28486166Y4537929D01*
X28486166Y4537929D02*
X28921594Y4102501D01*
X28921594Y4102501D02*
X28449880Y4102501D01*
X28123309Y4175072D02*
X28087023Y4138786D01*
X28087023Y4138786D02*
X28123309Y4102501D01*
X28123309Y4102501D02*
X28159595Y4138786D01*
X28159595Y4138786D02*
X28123309Y4175072D01*
X28123309Y4175072D02*
X28123309Y4102501D01*
X27869309Y4610501D02*
X27579023Y4610501D01*
X27760452Y4864501D02*
X27760452Y4211358D01*
X27760452Y4211358D02*
X27724166Y4138786D01*
X27724166Y4138786D02*
X27651595Y4102501D01*
X27651595Y4102501D02*
X27579023Y4102501D01*
X27397594Y4102501D02*
X26998452Y4610501D01*
X27397594Y4610501D02*
X26998452Y4102501D01*
X26817023Y4610501D02*
X26526737Y4610501D01*
X26708166Y4864501D02*
X26708166Y4211358D01*
X26708166Y4211358D02*
X26671880Y4138786D01*
X26671880Y4138786D02*
X26599309Y4102501D01*
X26599309Y4102501D02*
X26526737Y4102501D01*
D11*
X8743605Y49569936D02*
X8743605Y48855651D01*
X8743605Y48855651D02*
X8791224Y48712794D01*
X8791224Y48712794D02*
X8886462Y48617555D01*
X8886462Y48617555D02*
X9029319Y48569936D01*
X9029319Y48569936D02*
X9124557Y48569936D01*
X8362652Y49569936D02*
X7743605Y49569936D01*
X7743605Y49569936D02*
X8076938Y49188984D01*
X8076938Y49188984D02*
X7934081Y49188984D01*
X7934081Y49188984D02*
X7838843Y49141365D01*
X7838843Y49141365D02*
X7791224Y49093746D01*
X7791224Y49093746D02*
X7743605Y48998508D01*
X7743605Y48998508D02*
X7743605Y48760413D01*
X7743605Y48760413D02*
X7791224Y48665175D01*
X7791224Y48665175D02*
X7838843Y48617555D01*
X7838843Y48617555D02*
X7934081Y48569936D01*
X7934081Y48569936D02*
X8219795Y48569936D01*
X8219795Y48569936D02*
X8315033Y48617555D01*
X8315033Y48617555D02*
X8362652Y48665175D01*
D12*
%TO.C,G2*%
G36*
X33719860Y12051691D02*
G01*
X33750176Y12046909D01*
X33835976Y12040032D01*
X33930040Y12038536D01*
X34063791Y12041237D01*
X34063791Y11223069D01*
X33861597Y11223069D01*
X33854419Y11521715D01*
X33851960Y11615669D01*
X33847772Y11713318D01*
X33840998Y11776186D01*
X33829638Y11813788D01*
X33811694Y11835641D01*
X33785164Y11851259D01*
X33738020Y11867511D01*
X33674486Y11856148D01*
X33659339Y11849242D01*
X33616266Y11849751D01*
X33564597Y11887715D01*
X33562300Y11889897D01*
X33520559Y11939623D01*
X33503310Y11979695D01*
X33520218Y12010625D01*
X33572967Y12039413D01*
X33645157Y12054978D01*
X33719860Y12051691D01*
G37*
G36*
X37477633Y9974724D02*
G01*
X37303806Y9974724D01*
X37295183Y10257065D01*
X37290646Y10376632D01*
X37284100Y10464259D01*
X37273982Y10520234D01*
X37258436Y10554525D01*
X37235607Y10577102D01*
X37194677Y10596987D01*
X37110138Y10600224D01*
X37041022Y10600662D01*
X36976386Y10641298D01*
X36956371Y10661344D01*
X36920062Y10717952D01*
X36931649Y10758110D01*
X36991315Y10782042D01*
X37099245Y10789970D01*
X37114208Y10789701D01*
X37192521Y10780921D01*
X37250020Y10763597D01*
X37283703Y10750237D01*
X37299298Y10763597D01*
X37300069Y10767061D01*
X37329532Y10783347D01*
X37388466Y10789970D01*
X37477633Y10789970D01*
X37477633Y9974724D01*
G37*
G36*
X34242126Y9974724D02*
G01*
X34063791Y9974724D01*
X34063791Y10251016D01*
X34063002Y10363512D01*
X34059239Y10452326D01*
X34050873Y10509814D01*
X34036286Y10546397D01*
X34013858Y10572498D01*
X33957095Y10603667D01*
X33878694Y10601699D01*
X33827833Y10595930D01*
X33782362Y10611170D01*
X33737483Y10661429D01*
X33725295Y10677998D01*
X33698048Y10720704D01*
X33700259Y10743713D01*
X33730851Y10763559D01*
X33751692Y10772258D01*
X33824787Y10786287D01*
X33909781Y10788631D01*
X33986113Y10779574D01*
X34033220Y10759398D01*
X34056272Y10741674D01*
X34063791Y10759398D01*
X34064006Y10761748D01*
X34090864Y10782120D01*
X34152959Y10789970D01*
X34242126Y10789970D01*
X34242126Y9974724D01*
G37*
G36*
X34394985Y11770813D02*
G01*
X34395623Y11672003D01*
X34399269Y11580541D01*
X34407707Y11520713D01*
X34422682Y11481618D01*
X34445938Y11452357D01*
X34494140Y11414003D01*
X34550344Y11406094D01*
X34618604Y11441064D01*
X34626617Y11446876D01*
X34648970Y11468935D01*
X34663187Y11500991D01*
X34671089Y11553283D01*
X34674495Y11636047D01*
X34675226Y11759519D01*
X34675226Y12038315D01*
X34884277Y12038315D01*
X34875288Y11725075D01*
X34873085Y11661704D01*
X34862879Y11513665D01*
X34844825Y11406016D01*
X34816398Y11331096D01*
X34775073Y11281242D01*
X34718324Y11248790D01*
X34706306Y11244358D01*
X34615700Y11227161D01*
X34519532Y11228877D01*
X34444263Y11249442D01*
X34410580Y11262802D01*
X34394985Y11249442D01*
X34394214Y11245978D01*
X34364751Y11229692D01*
X34305818Y11223069D01*
X34216650Y11223069D01*
X34216650Y12038315D01*
X34394985Y12038315D01*
X34394985Y11770813D01*
G37*
G36*
X37246126Y12030503D02*
G01*
X37257086Y12025264D01*
X37305225Y12009065D01*
X37324774Y12014791D01*
X37325542Y12017873D01*
X37354998Y12032405D01*
X37413942Y12038315D01*
X37503109Y12038315D01*
X37503109Y11223069D01*
X37324774Y11223069D01*
X37324774Y11484903D01*
X37324664Y11515130D01*
X37319321Y11656672D01*
X37304033Y11755404D01*
X37276142Y11817851D01*
X37232989Y11850535D01*
X37171916Y11859980D01*
X37159597Y11859708D01*
X37101913Y11846598D01*
X37061676Y11809086D01*
X37036227Y11740648D01*
X37022907Y11634762D01*
X37019057Y11484903D01*
X37019057Y11223069D01*
X36836774Y11223069D01*
X36845117Y11566495D01*
X36845354Y11576183D01*
X36849205Y11712427D01*
X36854087Y11807925D01*
X36861730Y11872299D01*
X36873864Y11915173D01*
X36892218Y11946168D01*
X36918521Y11974908D01*
X36930133Y11985812D01*
X37027626Y12041599D01*
X37138926Y12057509D01*
X37246126Y12030503D01*
G37*
G36*
X33284225Y12037309D02*
G01*
X33386591Y11984443D01*
X33463498Y11902952D01*
X33513011Y11789041D01*
X33528786Y11642177D01*
X33528560Y11623349D01*
X33507048Y11472134D01*
X33451923Y11353177D01*
X33365229Y11271110D01*
X33320663Y11249123D01*
X33201070Y11223874D01*
X33076356Y11234461D01*
X32967667Y11280391D01*
X32923092Y11312901D01*
X32880267Y11359754D01*
X32881740Y11399331D01*
X32925556Y11438991D01*
X32931790Y11443037D01*
X32975207Y11464753D01*
X33016622Y11462620D01*
X33079322Y11436218D01*
X33106778Y11424721D01*
X33199673Y11411997D01*
X33274975Y11443679D01*
X33325487Y11517394D01*
X33343604Y11582641D01*
X33345125Y11683981D01*
X33316555Y11769610D01*
X33264695Y11832508D01*
X33196348Y11865658D01*
X33118315Y11862042D01*
X33037398Y11814643D01*
X33033717Y11811378D01*
X33001483Y11790462D01*
X32970955Y11799078D01*
X32924300Y11841452D01*
X32908749Y11857108D01*
X32875763Y11896487D01*
X32875239Y11924817D01*
X32903938Y11961139D01*
X32944964Y11996893D01*
X33047310Y12042757D01*
X33165764Y12056488D01*
X33284225Y12037309D01*
G37*
G36*
X35658260Y11557953D02*
G01*
X35645387Y11471830D01*
X35619115Y11385109D01*
X35575943Y11323281D01*
X35507953Y11271241D01*
X35414159Y11233204D01*
X35292344Y11225766D01*
X35173346Y11255818D01*
X35074728Y11321328D01*
X35049013Y11347988D01*
X35018200Y11389094D01*
X35000316Y11436997D01*
X34990827Y11506416D01*
X34985204Y11612066D01*
X34984278Y11636604D01*
X35159278Y11636604D01*
X35159897Y11609873D01*
X35176425Y11527835D01*
X35221811Y11463937D01*
X35223659Y11462097D01*
X35286270Y11413056D01*
X35342172Y11406740D01*
X35408374Y11441064D01*
X35415839Y11446528D01*
X35446560Y11481208D01*
X35461239Y11533966D01*
X35464995Y11621073D01*
X35464986Y11626583D01*
X35458145Y11740082D01*
X35435561Y11811753D01*
X35392798Y11849189D01*
X35325423Y11859980D01*
X35296107Y11858069D01*
X35220089Y11825129D01*
X35174480Y11751309D01*
X35159278Y11636604D01*
X34984278Y11636604D01*
X34984006Y11643797D01*
X34982891Y11742030D01*
X34989558Y11808952D01*
X35006694Y11860081D01*
X35036987Y11910933D01*
X35109529Y11986768D01*
X35215651Y12040947D01*
X35333360Y12058523D01*
X35449100Y12037751D01*
X35549315Y11976885D01*
X35577918Y11945080D01*
X35632112Y11839523D01*
X35660025Y11706125D01*
X35659012Y11621073D01*
X35658260Y11557953D01*
G37*
G36*
X38292319Y11636243D02*
G01*
X38292325Y11630954D01*
X38274450Y11475951D01*
X38221892Y11356782D01*
X38135184Y11274675D01*
X38099115Y11256163D01*
X37979562Y11226745D01*
X37850543Y11231256D01*
X37733358Y11269949D01*
X37684640Y11298236D01*
X37644611Y11336097D01*
X37647981Y11374668D01*
X37691866Y11424704D01*
X37736116Y11461760D01*
X37769521Y11467239D01*
X37812668Y11442343D01*
X37880455Y11411842D01*
X37962267Y11402610D01*
X38027931Y11420902D01*
X38052250Y11445423D01*
X38086150Y11496941D01*
X38116336Y11554263D01*
X37605015Y11554263D01*
X37605015Y11656987D01*
X37616677Y11758074D01*
X37808827Y11758074D01*
X37825472Y11746465D01*
X37881155Y11736432D01*
X37963189Y11732598D01*
X37993024Y11732719D01*
X38067692Y11736900D01*
X38097682Y11751935D01*
X38087845Y11784400D01*
X38043029Y11840873D01*
X38011281Y11867204D01*
X37957737Y11885456D01*
X37931199Y11879699D01*
X37876360Y11847386D01*
X37828996Y11801222D01*
X37808827Y11758074D01*
X37616677Y11758074D01*
X37618533Y11774162D01*
X37668250Y11895374D01*
X37747937Y11986747D01*
X37850629Y12043014D01*
X37969360Y12058907D01*
X38097164Y12029158D01*
X38152438Y11996701D01*
X38227319Y11908964D01*
X38275137Y11786412D01*
X38279082Y11751935D01*
X38292319Y11636243D01*
G37*
G36*
X39813811Y11504191D02*
G01*
X39788856Y11394177D01*
X39743504Y11316523D01*
X39674655Y11262950D01*
X39651682Y11252869D01*
X39571116Y11232618D01*
X39480905Y11224089D01*
X39441784Y11224459D01*
X39376138Y11233901D01*
X39322245Y11263169D01*
X39257986Y11321978D01*
X39215975Y11365065D01*
X39183300Y11407803D01*
X39166442Y11454264D01*
X39160220Y11520190D01*
X39159611Y11600525D01*
X39343620Y11600525D01*
X39344082Y11595866D01*
X39365291Y11492329D01*
X39402644Y11435342D01*
X39460528Y11405594D01*
X39531859Y11405992D01*
X39589873Y11448723D01*
X39628864Y11528894D01*
X39643129Y11641611D01*
X39639739Y11711293D01*
X39616327Y11797527D01*
X39567374Y11845274D01*
X39489038Y11859980D01*
X39440131Y11852611D01*
X39378568Y11807063D01*
X39345914Y11722170D01*
X39343620Y11600525D01*
X39159611Y11600525D01*
X39159453Y11621326D01*
X39160148Y11674383D01*
X39170005Y11795407D01*
X39195377Y11883065D01*
X39241174Y11949781D01*
X39312307Y12007975D01*
X39367684Y12040409D01*
X39436221Y12058723D01*
X39526905Y12056603D01*
X39604882Y12044392D01*
X39671648Y12013687D01*
X39737086Y11952801D01*
X39767246Y11918851D01*
X39797523Y11875429D01*
X39813738Y11827301D01*
X39820261Y11759055D01*
X39821464Y11655278D01*
X39821464Y11654841D01*
X39820792Y11641611D01*
X39813811Y11504191D01*
G37*
G36*
X32840923Y11622540D02*
G01*
X32840402Y11594291D01*
X32816118Y11445981D01*
X32756268Y11331959D01*
X32661823Y11254222D01*
X32626357Y11240115D01*
X32528051Y11225917D01*
X32417643Y11232607D01*
X32315473Y11257980D01*
X32241880Y11299824D01*
X32177144Y11360640D01*
X32238976Y11422472D01*
X32240373Y11423868D01*
X32284485Y11462867D01*
X32316987Y11467954D01*
X32359984Y11442854D01*
X32445387Y11406939D01*
X32535983Y11409751D01*
X32611635Y11452357D01*
X32620515Y11461392D01*
X32652831Y11501798D01*
X32653895Y11528673D01*
X32618807Y11544633D01*
X32542663Y11552291D01*
X32420562Y11554263D01*
X32178536Y11554263D01*
X32178536Y11703686D01*
X32180535Y11758074D01*
X32356871Y11758074D01*
X32373107Y11746569D01*
X32428308Y11736465D01*
X32509729Y11732598D01*
X32578762Y11735304D01*
X32639382Y11744504D01*
X32662588Y11758074D01*
X32655922Y11781031D01*
X32617679Y11828143D01*
X32562407Y11868403D01*
X32509729Y11885456D01*
X32482181Y11879902D01*
X32425646Y11848032D01*
X32377335Y11801972D01*
X32356871Y11758074D01*
X32180535Y11758074D01*
X32181327Y11779612D01*
X32197427Y11859924D01*
X32231738Y11920744D01*
X32305646Y11993107D01*
X32417761Y12048078D01*
X32540323Y12056146D01*
X32607276Y12042640D01*
X32712724Y11992180D01*
X32785380Y11907412D01*
X32827396Y11785233D01*
X32829654Y11758074D01*
X32840923Y11622540D01*
G37*
G36*
X35060237Y10190583D02*
G01*
X35035315Y10094918D01*
X34979104Y10019820D01*
X34970636Y10013367D01*
X34932265Y9994777D01*
X34874815Y9983445D01*
X34787691Y9977942D01*
X34660297Y9976839D01*
X34394985Y9977930D01*
X34394985Y10241596D01*
X34598796Y10241596D01*
X34611371Y10190517D01*
X34664146Y10152429D01*
X34712851Y10135584D01*
X34754700Y10131736D01*
X34802608Y10145753D01*
X34850492Y10167825D01*
X34886677Y10207510D01*
X34877606Y10257640D01*
X34856747Y10282879D01*
X34809057Y10300906D01*
X34725282Y10305918D01*
X34674787Y10305328D01*
X34623848Y10298888D01*
X34602879Y10279862D01*
X34598796Y10241596D01*
X34394985Y10241596D01*
X34394985Y10270124D01*
X34396846Y10400445D01*
X34407822Y10545042D01*
X34432355Y10649585D01*
X34474637Y10720211D01*
X34538858Y10763058D01*
X34629208Y10784265D01*
X34749878Y10789970D01*
X34829209Y10786815D01*
X34907048Y10770024D01*
X34968312Y10734381D01*
X35038983Y10678792D01*
X34969179Y10618749D01*
X34910955Y10580597D01*
X34870099Y10581491D01*
X34825971Y10607378D01*
X34748091Y10624706D01*
X34674709Y10614378D01*
X34620164Y10579480D01*
X34598796Y10523098D01*
X34598839Y10515554D01*
X34603382Y10483649D01*
X34623736Y10466690D01*
X34671613Y10459970D01*
X34758725Y10458776D01*
X34789985Y10458325D01*
X34902987Y10446419D01*
X34974842Y10419420D01*
X35016925Y10376824D01*
X35054048Y10290118D01*
X35059184Y10207510D01*
X35060237Y10190583D01*
G37*
G36*
X36929869Y10350563D02*
G01*
X36928598Y10244834D01*
X36923309Y10174643D01*
X36911174Y10127544D01*
X36889368Y10091087D01*
X36855063Y10052826D01*
X36814351Y10014777D01*
X36752402Y9982804D01*
X36668684Y9974724D01*
X36643465Y9975346D01*
X36563911Y9984496D01*
X36507854Y10001097D01*
X36474171Y10014457D01*
X36458576Y10001097D01*
X36457804Y9997633D01*
X36428342Y9981347D01*
X36369408Y9974724D01*
X36280241Y9974724D01*
X36280241Y10382347D01*
X36458576Y10382347D01*
X36459694Y10353417D01*
X36473576Y10270211D01*
X36498235Y10209681D01*
X36537912Y10173174D01*
X36598321Y10153059D01*
X36642467Y10158186D01*
X36697987Y10193531D01*
X36729107Y10266626D01*
X36738817Y10382347D01*
X36735675Y10454392D01*
X36714017Y10545002D01*
X36669229Y10595790D01*
X36598321Y10611635D01*
X36572402Y10608547D01*
X36512098Y10569651D01*
X36472690Y10491844D01*
X36458576Y10382347D01*
X36280241Y10382347D01*
X36280241Y11121164D01*
X36458576Y11121164D01*
X36458576Y10929194D01*
X36458739Y10873371D01*
X36461022Y10799266D01*
X36468166Y10762326D01*
X36482875Y10753466D01*
X36507854Y10763597D01*
X36521111Y10769285D01*
X36587403Y10784051D01*
X36668684Y10789970D01*
X36725886Y10786989D01*
X36792560Y10765062D01*
X36855063Y10711868D01*
X36864516Y10701930D01*
X36895588Y10665228D01*
X36914835Y10627366D01*
X36925083Y10575897D01*
X36929159Y10498374D01*
X36929890Y10382347D01*
X36929869Y10350563D01*
G37*
G36*
X38281180Y10141984D02*
G01*
X38219138Y10049922D01*
X38205821Y10036754D01*
X38171990Y10007843D01*
X38135311Y9990123D01*
X38083761Y9980983D01*
X38005314Y9977812D01*
X37887944Y9977997D01*
X37630492Y9979813D01*
X37630492Y10261334D01*
X37809217Y10261334D01*
X37811479Y10237762D01*
X37828324Y10188105D01*
X37840973Y10174103D01*
X37895282Y10149362D01*
X37966360Y10141981D01*
X38037640Y10150643D01*
X38092557Y10174032D01*
X38114544Y10210834D01*
X38098130Y10259319D01*
X38037204Y10294284D01*
X37931113Y10305918D01*
X37929085Y10305917D01*
X37854424Y10302325D01*
X37818396Y10288901D01*
X37809217Y10261334D01*
X37630492Y10261334D01*
X37630492Y10641031D01*
X37705772Y10716311D01*
X37750637Y10756113D01*
X37795710Y10778290D01*
X37857885Y10787892D01*
X37954057Y10789970D01*
X37998692Y10789032D01*
X38114719Y10775112D01*
X38194527Y10746857D01*
X38234447Y10707255D01*
X38230808Y10659296D01*
X38179941Y10605968D01*
X38144716Y10583305D01*
X38102621Y10576393D01*
X38045932Y10598816D01*
X37983710Y10620092D01*
X37903539Y10619341D01*
X37842451Y10587020D01*
X37813503Y10527154D01*
X37811499Y10508541D01*
X37813902Y10479854D01*
X37834656Y10465071D01*
X37884631Y10459582D01*
X37974691Y10458776D01*
X38062860Y10456940D01*
X38126459Y10447470D01*
X38172502Y10425033D01*
X38218409Y10384307D01*
X38257840Y10336200D01*
X38294076Y10239915D01*
X38290246Y10210834D01*
X38281180Y10141984D01*
G37*
G36*
X33707121Y10382347D02*
G01*
X33706960Y10363882D01*
X33690514Y10222183D01*
X33644234Y10113540D01*
X33564074Y10027927D01*
X33546277Y10015779D01*
X33453724Y9982563D01*
X33340197Y9973019D01*
X33225024Y9987260D01*
X33127533Y10025398D01*
X33093022Y10047880D01*
X33052207Y10088817D01*
X33057732Y10125922D01*
X33108401Y10168124D01*
X33110959Y10169795D01*
X33156920Y10194195D01*
X33198082Y10193751D01*
X33259124Y10168530D01*
X33263110Y10166658D01*
X33342574Y10141788D01*
X33410457Y10151658D01*
X33460449Y10182651D01*
X33508710Y10237282D01*
X33528786Y10291505D01*
X33517752Y10295693D01*
X33465805Y10300967D01*
X33380967Y10304578D01*
X33274022Y10305918D01*
X33019258Y10305918D01*
X33019866Y10375978D01*
X33031872Y10495142D01*
X33223069Y10495142D01*
X33223090Y10494048D01*
X33237848Y10473079D01*
X33285907Y10462009D01*
X33375928Y10458776D01*
X33445478Y10460959D01*
X33505640Y10468137D01*
X33528786Y10478584D01*
X33527628Y10488222D01*
X33500973Y10538964D01*
X33453037Y10589372D01*
X33402487Y10618734D01*
X33358042Y10616292D01*
X33296192Y10587281D01*
X33244634Y10542374D01*
X33223069Y10495142D01*
X33031872Y10495142D01*
X33032015Y10496562D01*
X33075264Y10625111D01*
X33145689Y10719910D01*
X33145954Y10720147D01*
X33205141Y10763916D01*
X33268922Y10784701D01*
X33360156Y10789970D01*
X33442722Y10783369D01*
X33558337Y10741290D01*
X33640968Y10660396D01*
X33690577Y10540733D01*
X33697069Y10478584D01*
X33707121Y10382347D01*
G37*
G36*
X36069327Y12063197D02*
G01*
X36197138Y12042416D01*
X36295899Y11987159D01*
X36359579Y11902476D01*
X36382147Y11793415D01*
X36382080Y11786397D01*
X36363620Y11693968D01*
X36309482Y11627082D01*
X36215387Y11582421D01*
X36077059Y11556664D01*
X36037809Y11552038D01*
X35972515Y11539065D01*
X35940242Y11518791D01*
X35928286Y11485103D01*
X35927729Y11480764D01*
X35937271Y11436111D01*
X35986545Y11412046D01*
X36079635Y11405264D01*
X36181087Y11426033D01*
X36260429Y11470221D01*
X36268481Y11477391D01*
X36299681Y11496750D01*
X36329888Y11486671D01*
X36376744Y11443029D01*
X36396648Y11422736D01*
X36427448Y11385331D01*
X36425940Y11361171D01*
X36394885Y11333612D01*
X36339095Y11297124D01*
X36267503Y11259593D01*
X36195157Y11236491D01*
X36073214Y11224417D01*
X35951672Y11237201D01*
X35852991Y11274059D01*
X35778101Y11335365D01*
X35730489Y11426101D01*
X35729795Y11536077D01*
X35747656Y11597753D01*
X35795607Y11664039D01*
X35876652Y11706341D01*
X35998987Y11730580D01*
X35999051Y11730587D01*
X36110056Y11748762D01*
X36172967Y11772449D01*
X36190512Y11803506D01*
X36165415Y11843784D01*
X36125092Y11871690D01*
X36041181Y11881691D01*
X35938597Y11846478D01*
X35888383Y11823996D01*
X35850165Y11827311D01*
X35804845Y11863814D01*
X35802957Y11865600D01*
X35762126Y11910727D01*
X35745236Y11942096D01*
X35745305Y11943323D01*
X35769987Y11970795D01*
X35828798Y12002304D01*
X35906722Y12032067D01*
X35988741Y12054304D01*
X36059841Y12063232D01*
X36069327Y12063197D01*
G37*
G36*
X35210572Y10789818D02*
G01*
X35233212Y10781393D01*
X35252339Y10758327D01*
X35271471Y10713754D01*
X35294129Y10640810D01*
X35323834Y10532630D01*
X35364104Y10382347D01*
X35394957Y10267703D01*
X35475212Y10522468D01*
X35490765Y10571625D01*
X35523082Y10669024D01*
X35548119Y10730086D01*
X35571291Y10763778D01*
X35598013Y10779068D01*
X35633700Y10784923D01*
X35651822Y10786546D01*
X35682500Y10784861D01*
X35705612Y10768931D01*
X35726706Y10730116D01*
X35751333Y10659774D01*
X35785041Y10549266D01*
X35806616Y10479507D01*
X35836486Y10390002D01*
X35859800Y10328672D01*
X35872807Y10305918D01*
X35879260Y10315367D01*
X35897153Y10364206D01*
X35921529Y10445267D01*
X35949047Y10547944D01*
X36010630Y10789970D01*
X36107221Y10789970D01*
X36125356Y10789560D01*
X36181284Y10781678D01*
X36203812Y10766929D01*
X36203302Y10763176D01*
X36192291Y10721374D01*
X36169417Y10644285D01*
X36138007Y10542335D01*
X36101389Y10425950D01*
X36062889Y10305556D01*
X36025836Y10191578D01*
X35993556Y10094441D01*
X35969376Y10024572D01*
X35956625Y9992396D01*
X35956208Y9991770D01*
X35923411Y9980053D01*
X35864120Y9979658D01*
X35853171Y9980797D01*
X35818987Y9988121D01*
X35793617Y10007098D01*
X35771386Y10047071D01*
X35746619Y10117384D01*
X35713640Y10227378D01*
X35694097Y10293396D01*
X35666394Y10384511D01*
X35646008Y10448422D01*
X35636344Y10474254D01*
X35630457Y10463608D01*
X35612848Y10413649D01*
X35587044Y10331821D01*
X35556250Y10227970D01*
X35483115Y9974724D01*
X35314217Y9974724D01*
X35185795Y10371356D01*
X35155702Y10464603D01*
X35116611Y10586771D01*
X35085447Y10685431D01*
X35064827Y10752272D01*
X35057372Y10778979D01*
X35059252Y10781123D01*
X35092813Y10787432D01*
X35155101Y10789970D01*
X35180897Y10790467D01*
X35210572Y10789818D01*
G37*
G36*
X39031695Y9974724D02*
G01*
X38853360Y9974724D01*
X38853360Y10246590D01*
X38853262Y10276286D01*
X38848437Y10415058D01*
X38834447Y10511212D01*
X38808654Y10571514D01*
X38768421Y10602733D01*
X38711111Y10611635D01*
X38688842Y10610784D01*
X38639771Y10597419D01*
X38606442Y10562192D01*
X38586076Y10497885D01*
X38575895Y10397276D01*
X38573119Y10253145D01*
X38573119Y9974724D01*
X38364191Y9974724D01*
X38373119Y10308024D01*
X38382046Y10641324D01*
X38465247Y10715647D01*
X38488341Y10734033D01*
X38590175Y10780998D01*
X38701952Y10791777D01*
X38804082Y10763597D01*
X38814458Y10758367D01*
X38832793Y10754852D01*
X38844227Y10770028D01*
X38850383Y10811959D01*
X38852887Y10888711D01*
X38853360Y11008349D01*
X38853345Y11033783D01*
X38852388Y11145262D01*
X38848898Y11215436D01*
X38841431Y11252460D01*
X38828539Y11264489D01*
X38808776Y11259676D01*
X38797886Y11255564D01*
X38735324Y11240469D01*
X38656479Y11228953D01*
X38587782Y11226458D01*
X38531648Y11244073D01*
X38474149Y11292643D01*
X38436280Y11336985D01*
X38401448Y11409511D01*
X38381505Y11511558D01*
X38374467Y11622793D01*
X38376577Y11674485D01*
X38572500Y11674485D01*
X38575329Y11579671D01*
X38591281Y11496355D01*
X38619709Y11443567D01*
X38667205Y11411859D01*
X38735221Y11408313D01*
X38805263Y11455213D01*
X38819884Y11470999D01*
X38843436Y11511949D01*
X38851676Y11569061D01*
X38848193Y11659403D01*
X38840854Y11726138D01*
X38826080Y11798682D01*
X38809034Y11838067D01*
X38793892Y11849529D01*
X38729868Y11865514D01*
X38658901Y11854928D01*
X38606952Y11820081D01*
X38583438Y11761767D01*
X38572500Y11674485D01*
X38376577Y11674485D01*
X38379624Y11749136D01*
X38396574Y11861813D01*
X38423531Y11942515D01*
X38437858Y11963896D01*
X38507458Y12018597D01*
X38600545Y12050785D01*
X38697498Y12052576D01*
X38720165Y12049184D01*
X38813779Y12040965D01*
X38910682Y12038729D01*
X39031695Y12040887D01*
X39031695Y11569061D01*
X39031695Y9974724D01*
G37*
G36*
X36498139Y17599444D02*
G01*
X36573220Y17199088D01*
X36827984Y17090965D01*
X36912712Y17055693D01*
X37008241Y17017765D01*
X37079300Y16991720D01*
X37114766Y16981792D01*
X37121711Y16983507D01*
X37166020Y17006319D01*
X37240433Y17051558D01*
X37336546Y17113983D01*
X37445959Y17188354D01*
X37483501Y17214250D01*
X37591672Y17287118D01*
X37685122Y17347573D01*
X37754904Y17389927D01*
X37792074Y17408491D01*
X37805249Y17408498D01*
X37846229Y17388899D01*
X37909270Y17340367D01*
X37998213Y17259774D01*
X38116899Y17143992D01*
X38170060Y17090584D01*
X38259020Y16999158D01*
X38330286Y16923224D01*
X38377620Y16869500D01*
X38394784Y16844705D01*
X38391551Y16836165D01*
X38365673Y16791217D01*
X38318117Y16716152D01*
X38253949Y16618863D01*
X38178235Y16507246D01*
X38141326Y16453124D01*
X38070359Y16346575D01*
X38013374Y16257633D01*
X37975455Y16194339D01*
X37961685Y16164736D01*
X37964309Y16150501D01*
X37983321Y16093736D01*
X38016195Y16009652D01*
X38057537Y15910698D01*
X38101954Y15809324D01*
X38144054Y15717979D01*
X38178444Y15649113D01*
X38199732Y15615175D01*
X38218358Y15605501D01*
X38280875Y15586232D01*
X38373507Y15564458D01*
X38483952Y15543289D01*
X38545282Y15532607D01*
X38669650Y15510253D01*
X38780606Y15489478D01*
X38859729Y15473696D01*
X38980742Y15447934D01*
X38980742Y14615657D01*
X38859729Y14589894D01*
X38829697Y14583685D01*
X38733668Y14564879D01*
X38614761Y14542534D01*
X38491973Y14520248D01*
X38425427Y14508005D01*
X38327716Y14488375D01*
X38256088Y14471855D01*
X38222627Y14461100D01*
X38222182Y14460763D01*
X38203804Y14430430D01*
X38171713Y14362728D01*
X38130305Y14267389D01*
X38083976Y14154145D01*
X37967929Y13862453D01*
X38181357Y13551801D01*
X38215948Y13501169D01*
X38286538Y13395907D01*
X38343274Y13308623D01*
X38381057Y13247254D01*
X38394784Y13219737D01*
X38390193Y13211225D01*
X38356978Y13170983D01*
X38296927Y13105193D01*
X38216298Y13020622D01*
X38121347Y12924037D01*
X38071982Y12875090D01*
X37978875Y12786000D01*
X37899815Y12714525D01*
X37841932Y12666998D01*
X37812358Y12649749D01*
X37805149Y12651491D01*
X37759591Y12674125D01*
X37683801Y12718842D01*
X37586367Y12780439D01*
X37475877Y12853709D01*
X37174949Y13057668D01*
X37022744Y12974722D01*
X37020924Y12973731D01*
X36943366Y12934202D01*
X36884964Y12909349D01*
X36858235Y12904514D01*
X36857563Y12905486D01*
X36842404Y12937699D01*
X36810789Y13010037D01*
X36765312Y13116394D01*
X36708569Y13250667D01*
X36643155Y13406750D01*
X36571665Y13578540D01*
X36297400Y14239828D01*
X36370271Y14291880D01*
X36487315Y14383865D01*
X36632535Y14532104D01*
X36731926Y14684259D01*
X36760535Y14746691D01*
X36786757Y14826760D01*
X36799296Y14914646D01*
X36802508Y15031795D01*
X36800439Y15132818D01*
X36790223Y15220588D01*
X36767241Y15297453D01*
X36726912Y15384804D01*
X36646731Y15513647D01*
X36516222Y15650058D01*
X36363784Y15748787D01*
X36196446Y15809835D01*
X36021236Y15833200D01*
X35845182Y15818885D01*
X35675312Y15766887D01*
X35518654Y15677208D01*
X35382237Y15549847D01*
X35273089Y15384804D01*
X35237133Y15308263D01*
X35212056Y15231229D01*
X35200370Y15146204D01*
X35197493Y15031795D01*
X35198939Y14946240D01*
X35208176Y14851712D01*
X35229769Y14771534D01*
X35268074Y14684259D01*
X35327478Y14584806D01*
X35457353Y14434580D01*
X35629729Y14291880D01*
X35702601Y14239828D01*
X35428335Y13578540D01*
X35417805Y13553163D01*
X35347027Y13383251D01*
X35282698Y13229922D01*
X35227411Y13099278D01*
X35183763Y12997426D01*
X35154349Y12930470D01*
X35141765Y12904514D01*
X35141607Y12904367D01*
X35114050Y12909698D01*
X35055094Y12934931D01*
X34977256Y12974722D01*
X34825051Y13057668D01*
X34524123Y12853709D01*
X34484463Y12827030D01*
X34377687Y12757272D01*
X34287060Y12701005D01*
X34221142Y12663430D01*
X34188493Y12649749D01*
X34182915Y12651568D01*
X34145038Y12678796D01*
X34082347Y12732771D01*
X34002656Y12805865D01*
X33913782Y12890454D01*
X33823540Y12978911D01*
X33739747Y13063609D01*
X33670218Y13136921D01*
X33622769Y13191223D01*
X33605216Y13218886D01*
X33608027Y13226579D01*
X33633095Y13270432D01*
X33679956Y13344561D01*
X33743507Y13441004D01*
X33818644Y13551801D01*
X34032071Y13862453D01*
X33916024Y14154145D01*
X33913844Y14159618D01*
X33867645Y14272251D01*
X33826570Y14366530D01*
X33795014Y14432724D01*
X33777374Y14461100D01*
X33762408Y14466757D01*
X33704457Y14481310D01*
X33615635Y14500025D01*
X33508027Y14520248D01*
X33454908Y14529785D01*
X33331484Y14552540D01*
X33220274Y14573775D01*
X33140271Y14589894D01*
X33019258Y14615657D01*
X33019258Y15447934D01*
X33140271Y15473696D01*
X33174618Y15480734D01*
X33271928Y15499433D01*
X33391878Y15521422D01*
X33516048Y15543289D01*
X33588945Y15556764D01*
X33689263Y15578679D01*
X33763804Y15599187D01*
X33800268Y15615175D01*
X33808922Y15626975D01*
X33837426Y15679908D01*
X33876339Y15761553D01*
X33920270Y15859462D01*
X33963826Y15961184D01*
X34001614Y16054270D01*
X34028241Y16126271D01*
X34038315Y16164736D01*
X34035146Y16174004D01*
X34009340Y16220516D01*
X33961786Y16296922D01*
X33897566Y16395179D01*
X33821765Y16507246D01*
X33784485Y16561841D01*
X33713654Y16667600D01*
X33656788Y16755259D01*
X33618953Y16816926D01*
X33605216Y16844705D01*
X33610353Y16854085D01*
X33644572Y16895325D01*
X33705595Y16961868D01*
X33787184Y17046997D01*
X33883102Y17143992D01*
X33945132Y17205237D01*
X34048785Y17303411D01*
X34124574Y17367926D01*
X34176340Y17401910D01*
X34207926Y17408491D01*
X34216074Y17405328D01*
X34265037Y17378254D01*
X34343649Y17329274D01*
X34442966Y17264078D01*
X34554041Y17188354D01*
X34594251Y17160659D01*
X34699864Y17089966D01*
X34789166Y17033098D01*
X34853757Y16995293D01*
X34885235Y16981792D01*
X34909617Y16988057D01*
X34973910Y17010970D01*
X35065083Y17046684D01*
X35172016Y17090965D01*
X35426780Y17199088D01*
X35501861Y17599444D01*
X35576941Y17999799D01*
X36423059Y17999799D01*
X36498139Y17599444D01*
G37*
D13*
%TO.C,J3*%
X6845000Y54975000D02*
X6845000Y50025000D01*
X6845000Y54975000D02*
X58155000Y54975000D01*
X6845000Y50025000D02*
X58155000Y50025000D01*
X58155000Y50025000D02*
X58155000Y54975000D01*
X6295000Y51230000D02*
G75*
G02*
X6095000Y51230000I-100000J0D01*
G01*
X6095000Y51230000D02*
G75*
G02*
X6295000Y51230000I100000J0D01*
G01*
%TD*%
M02*
