M48
; DRILL file {KiCad 9.0.2} date 2025-05-18T12:34:05-0500
; FORMAT={-:-/ absolute / inch / decimal}
; #@! TF.CreationDate,2025-05-18T12:34:05-05:00
; #@! TF.GenerationSoftware,Kicad,Pcbnew,9.0.2
; #@! TF.FileFunction,MixedPlating,1,4
FMAT,2
INCH
; #@! TA.AperFunction,Plated,PTH,ViaDrill
T1C0.0100
; #@! TA.AperFunction,Plated,PTH,ViaDrill
T2C0.0120
; #@! TA.AperFunction,Plated,PTH,ViaDrill
T3C0.0300
; #@! TA.AperFunction,Plated,PTH,ComponentDrill
T4C0.0362
; #@! TA.AperFunction,Plated,PTH,ComponentDrill
T5C0.0409
; #@! TA.AperFunction,Plated,PTH,ComponentDrill
T6C0.0413
; #@! TA.AperFunction,Plated,PTH,ComponentDrill
T7C0.0906
; #@! TA.AperFunction,NonPlated,NPTH,ComponentDrill
T8C0.1063
; #@! TA.AperFunction,NonPlated,NPTH,ComponentDrill
T9C0.1142
; #@! TA.AperFunction,NonPlated,NPTH,ComponentDrill
T10C0.9449
%
G90
G05
T1
X0.2165Y0.689
X0.3642Y0.8169
X0.3642Y0.7579
X0.4331Y0.4626
X0.6201Y0.8563
X0.6398Y0.2362
X0.689Y0.2362
X0.7165Y0.5709
X0.7382Y0.7283
X0.7382Y0.689
X0.7382Y0.2362
X0.748Y0.5709
X0.7579Y0.876
X0.7579Y0.7776
X0.7795Y0.5709
X0.7874Y0.876
X0.7874Y0.7776
X0.8169Y0.876
X0.8169Y0.7776
X0.8268Y0.3839
X0.8465Y0.876
X0.8465Y0.7776
X0.8819Y0.6299
X0.9154Y0.8661
X0.9449Y0.8661
X0.9449Y0.5709
X0.9449Y0.5315
X0.9744Y0.8661
X0.9744Y0.5512
X0.9843Y0.315
X1.0039Y0.8661
X1.0039Y0.5709
X1.0039Y0.5315
X1.0335Y0.8661
X1.0335Y0.4528
X1.063Y0.4606
X1.0669Y0.6299
X1.0925Y0.3445
X1.1024Y0.876
X1.1024Y0.7776
X1.1319Y0.876
X1.1319Y0.7776
X1.1319Y0.3937
X1.1614Y0.876
X1.1614Y0.7776
X1.1614Y0.5709
X1.1811Y0.4035
X1.1909Y0.876
X1.1909Y0.7776
X1.1909Y0.5709
X1.2205Y0.7283
X1.2205Y0.689
X1.2205Y0.5709
X1.2598Y0.8268
X1.2795Y1.5157
X1.2795Y1.4764
X1.2992Y1.4272
X1.2992Y1.3878
X1.3091Y1.811
X1.3445Y1.5748
X1.3445Y1.5433
X1.3661Y1.9252
X1.378Y1.7815
X1.3898Y1.6102
X1.4016Y0.8071
X1.4055Y0.9724
X1.4173Y1.8209
X1.4193Y1.3425
X1.4193Y1.311
X1.4331Y1.9252
X1.4567Y1.2894
X1.4685Y1.622
X1.4724Y1.1535
X1.4754Y1.5089
X1.4764Y1.7874
X1.4862Y0.6693
X1.4862Y0.6398
X1.4862Y0.6004
X1.4902Y0.9134
X1.4902Y0.8819
X1.4921Y1.4567
X1.5Y1.5354
X1.5198Y1.6457
X1.5246Y1.5581
X1.5354Y1.4291
X1.5354Y0.5512
X1.5453Y1.2598
X1.5514Y1.6419
X1.5591Y1.3898
X1.563Y0.6693
X1.563Y0.6398
X1.565Y1.1811
X1.5669Y1.7008
X1.5951Y1.7008
X1.6072Y1.2765
X1.6142Y1.7992
X1.6142Y1.3346
X1.6181Y1.748
X1.6339Y1.4567
X1.6378Y1.7244
X1.6417Y1.8268
X1.6634Y1.1614
X1.6732Y0.6791
X1.6732Y0.6004
X1.6969Y1.252
X1.6969Y0.7205
X1.7126Y0.4921
X1.7165Y1.9055
X1.7205Y1.8071
X1.7323Y1.0531
X1.748Y1.7795
X1.75Y1.1358
X1.7638Y0.8976
X1.7913Y1.8799
X1.8012Y0.876
X1.8031Y0.5315
X1.8346Y0.5315
X1.8504Y0.7126
X1.8661Y1.752
X1.8694Y1.1654
X1.8799Y0.6201
X1.8976Y1.7244
X1.9055Y1.1654
X1.9243Y1.8849
X1.9291Y1.6634
X1.939Y1.1614
X1.9814Y1.8278
X1.998Y1.7461
X2.0399Y1.2092
X2.0413Y1.7028
X2.0866Y1.7913
X2.1358Y1.4567
X2.1378Y1.6063
X2.1516Y1.3209
X2.2047Y1.4862
X2.2165Y1.685
X2.2244Y1.0433
X2.2244Y0.9055
X2.2244Y0.7776
X2.2264Y1.3307
X2.2558Y1.8758
X2.2795Y1.1457
X2.3109Y1.8229
X2.311Y1.1024
X2.315Y0.3543
X2.3425Y0.2756
X2.3565Y1.7813
X2.3819Y1.0591
X2.3898Y1.1496
X2.3917Y1.4862
X2.4013Y1.2695
X2.4093Y1.7284
X2.4409Y0.7598
X2.4508Y0.7283
X2.4508Y0.6398
X2.4508Y0.5807
X2.4566Y1.2166
X2.4606Y1.689
X2.4961Y0.9547
X2.5118Y1.8167
X2.5118Y1.0866
X2.5276Y1.8661
X2.5276Y1.7913
X2.5276Y1.1417
X2.5276Y1.063
X2.5433Y1.1181
X2.5466Y1.8447
X2.6024Y2.126
X2.6024Y2.0866
X2.6024Y2.0433
X2.6024Y1.378
X2.6024Y1.3386
X2.6024Y1.2992
X2.6063Y0.7988
X2.6063Y0.7559
X2.6083Y1.4764
X2.6083Y0.8268
X2.6102Y0.563
X2.6181Y1.0138
X2.6183Y1.0472
X2.622Y1.7677
X2.626Y1.7992
X2.6378Y0.5906
X2.6575Y1.5748
X2.675Y1.5529
X2.689Y1.0354
X2.7008Y1.378
X2.7008Y1.3386
X2.7008Y1.2992
X2.7047Y2.126
X2.7047Y2.0866
X2.7047Y2.0433
X2.7047Y0.7008
X2.7047Y0.6614
X2.7047Y0.622
X2.7362Y0.4429
X2.8209Y0.7008
X2.8209Y0.6614
X2.8209Y0.622
T2
X0.9055Y0.2854
X1.0138Y0.2362
T3
X1.7402Y0.7402
X1.7598Y0.4528
X1.7756Y0.7756
X2.4409Y1.6102
X2.5039Y1.5394
X2.5228Y0.4953
X2.5591Y0.8071
X2.5671Y0.9969
T4
X2.8187Y1.2205
X2.8187Y1.122
X2.8187Y1.0433
X2.8187Y0.9449
X2.8217Y1.9685
X2.8217Y1.8701
X2.8217Y1.7913
X2.8217Y1.6929
X2.8657Y0.4035
X2.8657Y0.3051
X2.9219Y1.2205
X2.9219Y1.122
X2.9219Y1.0433
X2.9219Y0.9449
X2.9248Y1.9685
X2.9248Y1.8701
X2.9248Y1.7913
X2.9248Y1.6929
X2.9445Y0.4035
X2.9445Y0.3051
T5
X0.3295Y2.1169
X0.3295Y2.0169
X0.4295Y2.1169
X0.4295Y2.0169
X0.5295Y2.1169
X0.5295Y2.0169
X0.6295Y2.1169
X0.6295Y2.0169
X0.7295Y2.1169
X0.7295Y2.0169
X0.8295Y2.1169
X0.8295Y2.0169
X0.9295Y2.1169
X0.9295Y2.0169
X1.0295Y2.1169
X1.0295Y2.0169
X1.1295Y2.1169
X1.1295Y2.0169
X1.2295Y2.1169
X1.2295Y2.0169
X1.3295Y2.1169
X1.3295Y2.0169
X1.4295Y2.1169
X1.4295Y2.0169
X1.5295Y2.1169
X1.5295Y2.0169
X1.6295Y2.1169
X1.6295Y2.0169
X1.7295Y2.1169
X1.7295Y2.0169
X1.8295Y2.1169
X1.8295Y2.0169
X1.9295Y2.1169
X1.9295Y2.0169
X2.0295Y2.1169
X2.0295Y2.0169
X2.1295Y2.1169
X2.1295Y2.0169
X2.2295Y2.1169
X2.2295Y2.0169
T6
X0.1171Y1.6634
X0.1171Y1.565
X0.3735Y0.3039
X0.4719Y0.3039
T7
X2.8049Y1.3413
X2.8049Y0.824
X2.8079Y2.0894
X2.8079Y1.572
X3.0286Y1.3413
X3.0286Y0.824
X3.0315Y2.0894
X3.0315Y1.572
X3.0512Y0.5913
X3.0512Y0.1173
T8
X0.1378Y2.0669
X0.1378Y0.1378
X2.4213Y2.0669
X2.4213Y0.1378
T9
X0.374Y1.0433
X1.1614Y1.8307
X1.1614Y1.0433
T10
X0.7677Y1.437
M30
