%TF.GenerationSoftware,KiCad,Pcbnew,9.0.0*%
%TF.CreationDate,2025-04-20T18:30:44-05:00*%
%TF.ProjectId,1026 RPi Power Hat,31303236-2052-4506-9920-506f77657220,1*%
%TF.SameCoordinates,PX5f5e100PY8f0d180*%
%TF.FileFunction,Soldermask,Bot*%
%TF.FilePolarity,Negative*%
%FSLAX46Y46*%
G04 Gerber Fmt 4.6, Leading zero omitted, Abs format (unit mm)*
G04 Created by KiCad (PCBNEW 9.0.0) date 2025-04-20 18:30:44*
%MOMM*%
%LPD*%
G01*
G04 APERTURE LIST*
G04 APERTURE END LIST*
G36*
X3956521Y6186893D02*
G01*
X4254488Y6118884D01*
X4542965Y6017941D01*
X4818327Y5885334D01*
X5077111Y5722730D01*
X5316061Y5532173D01*
X5532173Y5316061D01*
X5722730Y5077111D01*
X5885334Y4818327D01*
X6017941Y4542965D01*
X6118884Y4254488D01*
X6186893Y3956521D01*
X6221112Y3652814D01*
X6221112Y3347186D01*
X6186893Y3043479D01*
X6118884Y2745512D01*
X6017941Y2457035D01*
X5885334Y2181673D01*
X5722730Y1922889D01*
X5532173Y1683939D01*
X5316061Y1467827D01*
X5077111Y1277270D01*
X4818327Y1114666D01*
X4542965Y982059D01*
X4254488Y881116D01*
X3956521Y813107D01*
X3652814Y778888D01*
X3347186Y778888D01*
X3043479Y813107D01*
X2745512Y881116D01*
X2457035Y982059D01*
X2181673Y1114666D01*
X1922889Y1277270D01*
X1683939Y1467827D01*
X1467827Y1683939D01*
X1277270Y1922889D01*
X1114666Y2181673D01*
X982059Y2457035D01*
X881116Y2745512D01*
X813107Y3043479D01*
X778888Y3347186D01*
X778888Y3652814D01*
X813107Y3956521D01*
X881116Y4254488D01*
X982059Y4542965D01*
X1114666Y4818327D01*
X1277270Y5077111D01*
X1467827Y5316061D01*
X1683939Y5532173D01*
X1922889Y5722730D01*
X2181673Y5885334D01*
X2457035Y6017941D01*
X2745512Y6118884D01*
X3043479Y6186893D01*
X3347186Y6221112D01*
X3652814Y6221112D01*
X3956521Y6186893D01*
G37*
G36*
X61956521Y6186893D02*
G01*
X62254488Y6118884D01*
X62542965Y6017941D01*
X62818327Y5885334D01*
X63077111Y5722730D01*
X63316061Y5532173D01*
X63532173Y5316061D01*
X63722730Y5077111D01*
X63885334Y4818327D01*
X64017941Y4542965D01*
X64118884Y4254488D01*
X64186893Y3956521D01*
X64221112Y3652814D01*
X64221112Y3347186D01*
X64186893Y3043479D01*
X64118884Y2745512D01*
X64017941Y2457035D01*
X63885334Y2181673D01*
X63722730Y1922889D01*
X63532173Y1683939D01*
X63316061Y1467827D01*
X63077111Y1277270D01*
X62818327Y1114666D01*
X62542965Y982059D01*
X62254488Y881116D01*
X61956521Y813107D01*
X61652814Y778888D01*
X61347186Y778888D01*
X61043479Y813107D01*
X60745512Y881116D01*
X60457035Y982059D01*
X60181673Y1114666D01*
X59922889Y1277270D01*
X59683939Y1467827D01*
X59467827Y1683939D01*
X59277270Y1922889D01*
X59114666Y2181673D01*
X58982059Y2457035D01*
X58881116Y2745512D01*
X58813107Y3043479D01*
X58778888Y3347186D01*
X58778888Y3652814D01*
X58813107Y3956521D01*
X58881116Y4254488D01*
X58982059Y4542965D01*
X59114666Y4818327D01*
X59277270Y5077111D01*
X59467827Y5316061D01*
X59683939Y5532173D01*
X59922889Y5722730D01*
X60181673Y5885334D01*
X60457035Y6017941D01*
X60745512Y6118884D01*
X61043479Y6186893D01*
X61347186Y6221112D01*
X61652814Y6221112D01*
X61956521Y6186893D01*
G37*
G36*
X77844425Y4414635D02*
G01*
X78064611Y4343092D01*
X78270894Y4237985D01*
X78458196Y4101903D01*
X78621903Y3938196D01*
X78757985Y3750894D01*
X78863092Y3544611D01*
X78934635Y3324425D01*
X78970852Y3095759D01*
X78970852Y2864241D01*
X78934635Y2635575D01*
X78863092Y2415389D01*
X78757985Y2209106D01*
X78621903Y2021804D01*
X78458196Y1858097D01*
X78270894Y1722015D01*
X78064611Y1616908D01*
X77844425Y1545365D01*
X77615759Y1509148D01*
X77384241Y1509148D01*
X77155575Y1545365D01*
X76935389Y1616908D01*
X76729106Y1722015D01*
X76541804Y1858097D01*
X76378097Y2021804D01*
X76242015Y2209106D01*
X76136908Y2415389D01*
X76065365Y2635575D01*
X76029148Y2864241D01*
X76029148Y3095759D01*
X76065365Y3324425D01*
X76136908Y3544611D01*
X76242015Y3750894D01*
X76378097Y3938196D01*
X76541804Y4101903D01*
X76729106Y4237985D01*
X76935389Y4343092D01*
X77155575Y4414635D01*
X77384241Y4450852D01*
X77615759Y4450852D01*
X77844425Y4414635D01*
G37*
G36*
X12784720Y8530217D02*
G01*
X12792961Y8524711D01*
X12798467Y8516470D01*
X12800400Y8506750D01*
X12800400Y6931750D01*
X12798467Y6922030D01*
X12792961Y6913789D01*
X12784720Y6908283D01*
X12775000Y6906350D01*
X11200000Y6906350D01*
X11190280Y6908283D01*
X11182039Y6913789D01*
X11176533Y6922030D01*
X11174600Y6931750D01*
X11174600Y8506750D01*
X11176533Y8516470D01*
X11182039Y8524711D01*
X11190280Y8530217D01*
X11200000Y8532150D01*
X12775000Y8532150D01*
X12784720Y8530217D01*
G37*
G36*
X9723472Y8497147D02*
G01*
X9870698Y8436164D01*
X10003198Y8347630D01*
X10115880Y8234948D01*
X10204414Y8102448D01*
X10265397Y7955222D01*
X10296486Y7798928D01*
X10296486Y7639572D01*
X10265397Y7483278D01*
X10204414Y7336052D01*
X10115880Y7203552D01*
X10003198Y7090870D01*
X9870698Y7002336D01*
X9723472Y6941353D01*
X9567178Y6910264D01*
X9407822Y6910264D01*
X9251528Y6941353D01*
X9104302Y7002336D01*
X8971802Y7090870D01*
X8859120Y7203552D01*
X8770586Y7336052D01*
X8709603Y7483278D01*
X8678514Y7639572D01*
X8678514Y7798928D01*
X8709603Y7955222D01*
X8770586Y8102448D01*
X8859120Y8234948D01*
X8971802Y8347630D01*
X9104302Y8436164D01*
X9251528Y8497147D01*
X9407822Y8528236D01*
X9567178Y8528236D01*
X9723472Y8497147D01*
G37*
G36*
X73015087Y8492012D02*
G01*
X73155521Y8433842D01*
X73281909Y8349392D01*
X73389392Y8241909D01*
X73473842Y8115521D01*
X73532012Y7975087D01*
X73561666Y7826002D01*
X73561666Y7673998D01*
X73532012Y7524913D01*
X73473842Y7384479D01*
X73389392Y7258091D01*
X73281909Y7150608D01*
X73155521Y7066158D01*
X73015087Y7007988D01*
X72866002Y6978334D01*
X72713998Y6978334D01*
X72564913Y7007988D01*
X72424479Y7066158D01*
X72298091Y7150608D01*
X72190608Y7258091D01*
X72106158Y7384479D01*
X72047988Y7524913D01*
X72018334Y7673998D01*
X72018334Y7826002D01*
X72047988Y7975087D01*
X72106158Y8115521D01*
X72190608Y8241909D01*
X72298091Y8349392D01*
X72424479Y8433842D01*
X72564913Y8492012D01*
X72713998Y8521666D01*
X72866002Y8521666D01*
X73015087Y8492012D01*
G37*
G36*
X75015087Y8492012D02*
G01*
X75155521Y8433842D01*
X75281909Y8349392D01*
X75389392Y8241909D01*
X75473842Y8115521D01*
X75532012Y7975087D01*
X75561666Y7826002D01*
X75561666Y7673998D01*
X75532012Y7524913D01*
X75473842Y7384479D01*
X75389392Y7258091D01*
X75281909Y7150608D01*
X75155521Y7066158D01*
X75015087Y7007988D01*
X74866002Y6978334D01*
X74713998Y6978334D01*
X74564913Y7007988D01*
X74424479Y7066158D01*
X74298091Y7150608D01*
X74190608Y7258091D01*
X74106158Y7384479D01*
X74047988Y7524913D01*
X74018334Y7673998D01*
X74018334Y7826002D01*
X74047988Y7975087D01*
X74106158Y8115521D01*
X74190608Y8241909D01*
X74298091Y8349392D01*
X74424479Y8433842D01*
X74564913Y8492012D01*
X74713998Y8521666D01*
X74866002Y8521666D01*
X75015087Y8492012D01*
G37*
G36*
X73015087Y10992012D02*
G01*
X73155521Y10933842D01*
X73281909Y10849392D01*
X73389392Y10741909D01*
X73473842Y10615521D01*
X73532012Y10475087D01*
X73561666Y10326002D01*
X73561666Y10173998D01*
X73532012Y10024913D01*
X73473842Y9884479D01*
X73389392Y9758091D01*
X73281909Y9650608D01*
X73155521Y9566158D01*
X73015087Y9507988D01*
X72866002Y9478334D01*
X72713998Y9478334D01*
X72564913Y9507988D01*
X72424479Y9566158D01*
X72298091Y9650608D01*
X72190608Y9758091D01*
X72106158Y9884479D01*
X72047988Y10024913D01*
X72018334Y10173998D01*
X72018334Y10326002D01*
X72047988Y10475087D01*
X72106158Y10615521D01*
X72190608Y10741909D01*
X72298091Y10849392D01*
X72424479Y10933842D01*
X72564913Y10992012D01*
X72713998Y11021666D01*
X72866002Y11021666D01*
X73015087Y10992012D01*
G37*
G36*
X75015087Y10992012D02*
G01*
X75155521Y10933842D01*
X75281909Y10849392D01*
X75389392Y10741909D01*
X75473842Y10615521D01*
X75532012Y10475087D01*
X75561666Y10326002D01*
X75561666Y10173998D01*
X75532012Y10024913D01*
X75473842Y9884479D01*
X75389392Y9758091D01*
X75281909Y9650608D01*
X75155521Y9566158D01*
X75015087Y9507988D01*
X74866002Y9478334D01*
X74713998Y9478334D01*
X74564913Y9507988D01*
X74424479Y9566158D01*
X74298091Y9650608D01*
X74190608Y9758091D01*
X74106158Y9884479D01*
X74047988Y10024913D01*
X74018334Y10173998D01*
X74018334Y10326002D01*
X74047988Y10475087D01*
X74106158Y10615521D01*
X74190608Y10741909D01*
X74298091Y10849392D01*
X74424479Y10933842D01*
X74564913Y10992012D01*
X74713998Y11021666D01*
X74866002Y11021666D01*
X75015087Y10992012D01*
G37*
G36*
X77844425Y16454635D02*
G01*
X78064611Y16383092D01*
X78270894Y16277985D01*
X78458196Y16141903D01*
X78621903Y15978196D01*
X78757985Y15790894D01*
X78863092Y15584611D01*
X78934635Y15364425D01*
X78970852Y15135759D01*
X78970852Y14904241D01*
X78934635Y14675575D01*
X78863092Y14455389D01*
X78757985Y14249106D01*
X78621903Y14061804D01*
X78458196Y13898097D01*
X78270894Y13762015D01*
X78064611Y13656908D01*
X77844425Y13585365D01*
X77615759Y13549148D01*
X77384241Y13549148D01*
X77155575Y13585365D01*
X76935389Y13656908D01*
X76729106Y13762015D01*
X76541804Y13898097D01*
X76378097Y14061804D01*
X76242015Y14249106D01*
X76136908Y14455389D01*
X76065365Y14675575D01*
X76029148Y14904241D01*
X76029148Y15135759D01*
X76065365Y15364425D01*
X76136908Y15584611D01*
X76242015Y15790894D01*
X76378097Y15978196D01*
X76541804Y16141903D01*
X76729106Y16277985D01*
X76935389Y16383092D01*
X77155575Y16454635D01*
X77384241Y16490852D01*
X77615759Y16490852D01*
X77844425Y16454635D01*
G37*
G36*
X71640436Y22916483D02*
G01*
X71896343Y22847912D01*
X72141112Y22746526D01*
X72370552Y22614059D01*
X72580739Y22452776D01*
X72768076Y22265439D01*
X72929359Y22055252D01*
X73061826Y21825812D01*
X73163212Y21581043D01*
X73231783Y21325136D01*
X73266363Y21062467D01*
X73266363Y20797533D01*
X73231783Y20534864D01*
X73163212Y20278957D01*
X73061826Y20034188D01*
X72929359Y19804748D01*
X72768076Y19594561D01*
X72580739Y19407224D01*
X72370552Y19245941D01*
X72141112Y19113474D01*
X71896343Y19012088D01*
X71640436Y18943517D01*
X71377767Y18908937D01*
X71112833Y18908937D01*
X70850164Y18943517D01*
X70594257Y19012088D01*
X70349488Y19113474D01*
X70120048Y19245941D01*
X69909861Y19407224D01*
X69722524Y19594561D01*
X69561241Y19804748D01*
X69428774Y20034188D01*
X69327388Y20278957D01*
X69258817Y20534864D01*
X69224237Y20797533D01*
X69224237Y21062467D01*
X69258817Y21325136D01*
X69327388Y21581043D01*
X69428774Y21825812D01*
X69561241Y22055252D01*
X69722524Y22265439D01*
X69909861Y22452776D01*
X70120048Y22614059D01*
X70349488Y22746526D01*
X70594257Y22847912D01*
X70850164Y22916483D01*
X71112833Y22951063D01*
X71377767Y22951063D01*
X71640436Y22916483D01*
G37*
G36*
X77320436Y22916483D02*
G01*
X77576343Y22847912D01*
X77821112Y22746526D01*
X78050552Y22614059D01*
X78260739Y22452776D01*
X78448076Y22265439D01*
X78609359Y22055252D01*
X78741826Y21825812D01*
X78843212Y21581043D01*
X78911783Y21325136D01*
X78946363Y21062467D01*
X78946363Y20797533D01*
X78911783Y20534864D01*
X78843212Y20278957D01*
X78741826Y20034188D01*
X78609359Y19804748D01*
X78448076Y19594561D01*
X78260739Y19407224D01*
X78050552Y19245941D01*
X77821112Y19113474D01*
X77576343Y19012088D01*
X77320436Y18943517D01*
X77057767Y18908937D01*
X76792833Y18908937D01*
X76530164Y18943517D01*
X76274257Y19012088D01*
X76029488Y19113474D01*
X75800048Y19245941D01*
X75589861Y19407224D01*
X75402524Y19594561D01*
X75241241Y19804748D01*
X75108774Y20034188D01*
X75007388Y20278957D01*
X74938817Y20534864D01*
X74904237Y20797533D01*
X74904237Y21062467D01*
X74938817Y21325136D01*
X75007388Y21581043D01*
X75108774Y21825812D01*
X75241241Y22055252D01*
X75402524Y22265439D01*
X75589861Y22452776D01*
X75800048Y22614059D01*
X76029488Y22746526D01*
X76274257Y22847912D01*
X76530164Y22916483D01*
X76792833Y22951063D01*
X77057767Y22951063D01*
X77320436Y22916483D01*
G37*
G36*
X71834901Y24789859D02*
G01*
X71984391Y24727938D01*
X72118928Y24638043D01*
X72233343Y24523628D01*
X72323238Y24389091D01*
X72385159Y24239601D01*
X72416725Y24080903D01*
X72416725Y23919097D01*
X72385159Y23760399D01*
X72323238Y23610909D01*
X72233343Y23476372D01*
X72118928Y23361957D01*
X71984391Y23272062D01*
X71834901Y23210141D01*
X71676203Y23178575D01*
X71514397Y23178575D01*
X71355699Y23210141D01*
X71206209Y23272062D01*
X71071672Y23361957D01*
X70957257Y23476372D01*
X70867362Y23610909D01*
X70805441Y23760399D01*
X70773875Y23919097D01*
X70773875Y24080903D01*
X70805441Y24239601D01*
X70867362Y24389091D01*
X70957257Y24523628D01*
X71071672Y24638043D01*
X71206209Y24727938D01*
X71355699Y24789859D01*
X71514397Y24821425D01*
X71676203Y24821425D01*
X71834901Y24789859D01*
G37*
G36*
X74454901Y24789859D02*
G01*
X74604391Y24727938D01*
X74738928Y24638043D01*
X74853343Y24523628D01*
X74943238Y24389091D01*
X75005159Y24239601D01*
X75036725Y24080903D01*
X75036725Y23919097D01*
X75005159Y23760399D01*
X74943238Y23610909D01*
X74853343Y23476372D01*
X74738928Y23361957D01*
X74604391Y23272062D01*
X74454901Y23210141D01*
X74296203Y23178575D01*
X74134397Y23178575D01*
X73975699Y23210141D01*
X73826209Y23272062D01*
X73691672Y23361957D01*
X73577257Y23476372D01*
X73487362Y23610909D01*
X73425441Y23760399D01*
X73393875Y23919097D01*
X73393875Y24080903D01*
X73425441Y24239601D01*
X73487362Y24389091D01*
X73577257Y24523628D01*
X73691672Y24638043D01*
X73826209Y24727938D01*
X73975699Y24789859D01*
X74134397Y24821425D01*
X74296203Y24821425D01*
X74454901Y24789859D01*
G37*
G36*
X20517011Y48557184D02*
G01*
X21191463Y48481192D01*
X21860593Y48367502D01*
X22522295Y48216473D01*
X23174489Y48028579D01*
X23815121Y47804412D01*
X24442176Y47544678D01*
X25053681Y47250192D01*
X25647712Y46921883D01*
X26222400Y46560782D01*
X26775937Y46168027D01*
X27306581Y45744852D01*
X27812663Y45292590D01*
X28292590Y44812663D01*
X28744852Y44306581D01*
X29168027Y43775937D01*
X29560782Y43222400D01*
X29921883Y42647712D01*
X30250192Y42053681D01*
X30544678Y41442176D01*
X30804412Y40815121D01*
X31028579Y40174489D01*
X31216473Y39522295D01*
X31367502Y38860593D01*
X31481192Y38191463D01*
X31557184Y37517011D01*
X31595240Y36839360D01*
X31595240Y36160640D01*
X31557184Y35482989D01*
X31481192Y34808537D01*
X31367502Y34139407D01*
X31216473Y33477705D01*
X31028579Y32825511D01*
X30804412Y32184879D01*
X30544678Y31557824D01*
X30250192Y30946319D01*
X29921883Y30352288D01*
X29560782Y29777600D01*
X29168027Y29224063D01*
X28744852Y28693419D01*
X28292590Y28187337D01*
X27812663Y27707410D01*
X27306581Y27255148D01*
X26775937Y26831973D01*
X26222400Y26439218D01*
X25647712Y26078117D01*
X25053681Y25749808D01*
X24442176Y25455322D01*
X23815121Y25195588D01*
X23174489Y24971421D01*
X22522295Y24783527D01*
X21860593Y24632498D01*
X21191463Y24518808D01*
X20517011Y24442816D01*
X19839360Y24404760D01*
X19160640Y24404760D01*
X18482989Y24442816D01*
X17808537Y24518808D01*
X17139407Y24632498D01*
X16477705Y24783527D01*
X15825511Y24971421D01*
X15184879Y25195588D01*
X14557824Y25455322D01*
X13946319Y25749808D01*
X13352288Y26078117D01*
X12777600Y26439218D01*
X12224063Y26831973D01*
X11693419Y27255148D01*
X11187337Y27707410D01*
X10707410Y28187337D01*
X10255148Y28693419D01*
X9831973Y29224063D01*
X9439218Y29777600D01*
X9078117Y30352288D01*
X8749808Y30946319D01*
X8455322Y31557824D01*
X8195588Y32184879D01*
X7971421Y32825511D01*
X7783527Y33477705D01*
X7632498Y34139407D01*
X7518808Y34808537D01*
X7442816Y35482989D01*
X7404760Y36160640D01*
X7404760Y36839360D01*
X7442816Y37517011D01*
X7518808Y38191463D01*
X7632498Y38860593D01*
X7783527Y39522295D01*
X7971421Y40174489D01*
X8195588Y40815121D01*
X8455322Y41442176D01*
X8749808Y42053681D01*
X9078117Y42647712D01*
X9439218Y43222400D01*
X9831973Y43775937D01*
X10255148Y44306581D01*
X10707410Y44812663D01*
X11187337Y45292590D01*
X11693419Y45744852D01*
X12224063Y46168027D01*
X12777600Y46560782D01*
X13352288Y46921883D01*
X13946319Y47250192D01*
X14557824Y47544678D01*
X15184879Y47804412D01*
X15825511Y48028579D01*
X16477705Y48216473D01*
X17139407Y48367502D01*
X17808537Y48481192D01*
X18482989Y48557184D01*
X19160640Y48595240D01*
X19839360Y48595240D01*
X20517011Y48557184D01*
G37*
G36*
X9861840Y28007173D02*
G01*
X10093159Y27932013D01*
X10309873Y27821592D01*
X10506644Y27678629D01*
X10678629Y27506644D01*
X10821592Y27309873D01*
X10932013Y27093159D01*
X11007173Y26861840D01*
X11045222Y26621612D01*
X11045222Y26378388D01*
X11007173Y26138160D01*
X10932013Y25906841D01*
X10821592Y25690127D01*
X10678629Y25493356D01*
X10506644Y25321371D01*
X10309873Y25178408D01*
X10093159Y25067987D01*
X9861840Y24992827D01*
X9621612Y24954778D01*
X9378388Y24954778D01*
X9138160Y24992827D01*
X8906841Y25067987D01*
X8690127Y25178408D01*
X8493356Y25321371D01*
X8321371Y25493356D01*
X8178408Y25690127D01*
X8067987Y25906841D01*
X7992827Y26138160D01*
X7954778Y26378388D01*
X7954778Y26621612D01*
X7992827Y26861840D01*
X8067987Y27093159D01*
X8178408Y27309873D01*
X8321371Y27506644D01*
X8493356Y27678629D01*
X8690127Y27821592D01*
X8906841Y27932013D01*
X9138160Y28007173D01*
X9378388Y28045222D01*
X9621612Y28045222D01*
X9861840Y28007173D01*
G37*
G36*
X29861840Y28007173D02*
G01*
X30093159Y27932013D01*
X30309873Y27821592D01*
X30506644Y27678629D01*
X30678629Y27506644D01*
X30821592Y27309873D01*
X30932013Y27093159D01*
X31007173Y26861840D01*
X31045222Y26621612D01*
X31045222Y26378388D01*
X31007173Y26138160D01*
X30932013Y25906841D01*
X30821592Y25690127D01*
X30678629Y25493356D01*
X30506644Y25321371D01*
X30309873Y25178408D01*
X30093159Y25067987D01*
X29861840Y24992827D01*
X29621612Y24954778D01*
X29378388Y24954778D01*
X29138160Y24992827D01*
X28906841Y25067987D01*
X28690127Y25178408D01*
X28493356Y25321371D01*
X28321371Y25493356D01*
X28178408Y25690127D01*
X28067987Y25906841D01*
X27992827Y26138160D01*
X27954778Y26378388D01*
X27954778Y26621612D01*
X27992827Y26861840D01*
X28067987Y27093159D01*
X28178408Y27309873D01*
X28321371Y27506644D01*
X28493356Y27678629D01*
X28690127Y27821592D01*
X28906841Y27932013D01*
X29138160Y28007173D01*
X29378388Y28045222D01*
X29621612Y28045222D01*
X29861840Y28007173D01*
G37*
G36*
X71834901Y27289859D02*
G01*
X71984391Y27227938D01*
X72118928Y27138043D01*
X72233343Y27023628D01*
X72323238Y26889091D01*
X72385159Y26739601D01*
X72416725Y26580903D01*
X72416725Y26419097D01*
X72385159Y26260399D01*
X72323238Y26110909D01*
X72233343Y25976372D01*
X72118928Y25861957D01*
X71984391Y25772062D01*
X71834901Y25710141D01*
X71676203Y25678575D01*
X71514397Y25678575D01*
X71355699Y25710141D01*
X71206209Y25772062D01*
X71071672Y25861957D01*
X70957257Y25976372D01*
X70867362Y26110909D01*
X70805441Y26260399D01*
X70773875Y26419097D01*
X70773875Y26580903D01*
X70805441Y26739601D01*
X70867362Y26889091D01*
X70957257Y27023628D01*
X71071672Y27138043D01*
X71206209Y27227938D01*
X71355699Y27289859D01*
X71514397Y27321425D01*
X71676203Y27321425D01*
X71834901Y27289859D01*
G37*
G36*
X74454901Y27289859D02*
G01*
X74604391Y27227938D01*
X74738928Y27138043D01*
X74853343Y27023628D01*
X74943238Y26889091D01*
X75005159Y26739601D01*
X75036725Y26580903D01*
X75036725Y26419097D01*
X75005159Y26260399D01*
X74943238Y26110909D01*
X74853343Y25976372D01*
X74738928Y25861957D01*
X74604391Y25772062D01*
X74454901Y25710141D01*
X74296203Y25678575D01*
X74134397Y25678575D01*
X73975699Y25710141D01*
X73826209Y25772062D01*
X73691672Y25861957D01*
X73577257Y25976372D01*
X73487362Y26110909D01*
X73425441Y26260399D01*
X73393875Y26419097D01*
X73393875Y26580903D01*
X73425441Y26739601D01*
X73487362Y26889091D01*
X73577257Y27023628D01*
X73691672Y27138043D01*
X73826209Y27227938D01*
X73975699Y27289859D01*
X74134397Y27321425D01*
X74296203Y27321425D01*
X74454901Y27289859D01*
G37*
G36*
X71834901Y29289859D02*
G01*
X71984391Y29227938D01*
X72118928Y29138043D01*
X72233343Y29023628D01*
X72323238Y28889091D01*
X72385159Y28739601D01*
X72416725Y28580903D01*
X72416725Y28419097D01*
X72385159Y28260399D01*
X72323238Y28110909D01*
X72233343Y27976372D01*
X72118928Y27861957D01*
X71984391Y27772062D01*
X71834901Y27710141D01*
X71676203Y27678575D01*
X71514397Y27678575D01*
X71355699Y27710141D01*
X71206209Y27772062D01*
X71071672Y27861957D01*
X70957257Y27976372D01*
X70867362Y28110909D01*
X70805441Y28260399D01*
X70773875Y28419097D01*
X70773875Y28580903D01*
X70805441Y28739601D01*
X70867362Y28889091D01*
X70957257Y29023628D01*
X71071672Y29138043D01*
X71206209Y29227938D01*
X71355699Y29289859D01*
X71514397Y29321425D01*
X71676203Y29321425D01*
X71834901Y29289859D01*
G37*
G36*
X74454901Y29289859D02*
G01*
X74604391Y29227938D01*
X74738928Y29138043D01*
X74853343Y29023628D01*
X74943238Y28889091D01*
X75005159Y28739601D01*
X75036725Y28580903D01*
X75036725Y28419097D01*
X75005159Y28260399D01*
X74943238Y28110909D01*
X74853343Y27976372D01*
X74738928Y27861957D01*
X74604391Y27772062D01*
X74454901Y27710141D01*
X74296203Y27678575D01*
X74134397Y27678575D01*
X73975699Y27710141D01*
X73826209Y27772062D01*
X73691672Y27861957D01*
X73577257Y27976372D01*
X73487362Y28110909D01*
X73425441Y28260399D01*
X73393875Y28419097D01*
X73393875Y28580903D01*
X73425441Y28739601D01*
X73487362Y28889091D01*
X73577257Y29023628D01*
X73691672Y29138043D01*
X73826209Y29227938D01*
X73975699Y29289859D01*
X74134397Y29321425D01*
X74296203Y29321425D01*
X74454901Y29289859D01*
G37*
G36*
X71834901Y31789859D02*
G01*
X71984391Y31727938D01*
X72118928Y31638043D01*
X72233343Y31523628D01*
X72323238Y31389091D01*
X72385159Y31239601D01*
X72416725Y31080903D01*
X72416725Y30919097D01*
X72385159Y30760399D01*
X72323238Y30610909D01*
X72233343Y30476372D01*
X72118928Y30361957D01*
X71984391Y30272062D01*
X71834901Y30210141D01*
X71676203Y30178575D01*
X71514397Y30178575D01*
X71355699Y30210141D01*
X71206209Y30272062D01*
X71071672Y30361957D01*
X70957257Y30476372D01*
X70867362Y30610909D01*
X70805441Y30760399D01*
X70773875Y30919097D01*
X70773875Y31080903D01*
X70805441Y31239601D01*
X70867362Y31389091D01*
X70957257Y31523628D01*
X71071672Y31638043D01*
X71206209Y31727938D01*
X71355699Y31789859D01*
X71514397Y31821425D01*
X71676203Y31821425D01*
X71834901Y31789859D01*
G37*
G36*
X74454901Y31789859D02*
G01*
X74604391Y31727938D01*
X74738928Y31638043D01*
X74853343Y31523628D01*
X74943238Y31389091D01*
X75005159Y31239601D01*
X75036725Y31080903D01*
X75036725Y30919097D01*
X75005159Y30760399D01*
X74943238Y30610909D01*
X74853343Y30476372D01*
X74738928Y30361957D01*
X74604391Y30272062D01*
X74454901Y30210141D01*
X74296203Y30178575D01*
X74134397Y30178575D01*
X73975699Y30210141D01*
X73826209Y30272062D01*
X73691672Y30361957D01*
X73577257Y30476372D01*
X73487362Y30610909D01*
X73425441Y30760399D01*
X73393875Y30919097D01*
X73393875Y31080903D01*
X73425441Y31239601D01*
X73487362Y31389091D01*
X73577257Y31523628D01*
X73691672Y31638043D01*
X73826209Y31727938D01*
X73975699Y31789859D01*
X74134397Y31821425D01*
X74296203Y31821425D01*
X74454901Y31789859D01*
G37*
G36*
X71640436Y36056483D02*
G01*
X71896343Y35987912D01*
X72141112Y35886526D01*
X72370552Y35754059D01*
X72580739Y35592776D01*
X72768076Y35405439D01*
X72929359Y35195252D01*
X73061826Y34965812D01*
X73163212Y34721043D01*
X73231783Y34465136D01*
X73266363Y34202467D01*
X73266363Y33937533D01*
X73231783Y33674864D01*
X73163212Y33418957D01*
X73061826Y33174188D01*
X72929359Y32944748D01*
X72768076Y32734561D01*
X72580739Y32547224D01*
X72370552Y32385941D01*
X72141112Y32253474D01*
X71896343Y32152088D01*
X71640436Y32083517D01*
X71377767Y32048937D01*
X71112833Y32048937D01*
X70850164Y32083517D01*
X70594257Y32152088D01*
X70349488Y32253474D01*
X70120048Y32385941D01*
X69909861Y32547224D01*
X69722524Y32734561D01*
X69561241Y32944748D01*
X69428774Y33174188D01*
X69327388Y33418957D01*
X69258817Y33674864D01*
X69224237Y33937533D01*
X69224237Y34202467D01*
X69258817Y34465136D01*
X69327388Y34721043D01*
X69428774Y34965812D01*
X69561241Y35195252D01*
X69722524Y35405439D01*
X69909861Y35592776D01*
X70120048Y35754059D01*
X70349488Y35886526D01*
X70594257Y35987912D01*
X70850164Y36056483D01*
X71112833Y36091063D01*
X71377767Y36091063D01*
X71640436Y36056483D01*
G37*
G36*
X77320436Y36056483D02*
G01*
X77576343Y35987912D01*
X77821112Y35886526D01*
X78050552Y35754059D01*
X78260739Y35592776D01*
X78448076Y35405439D01*
X78609359Y35195252D01*
X78741826Y34965812D01*
X78843212Y34721043D01*
X78911783Y34465136D01*
X78946363Y34202467D01*
X78946363Y33937533D01*
X78911783Y33674864D01*
X78843212Y33418957D01*
X78741826Y33174188D01*
X78609359Y32944748D01*
X78448076Y32734561D01*
X78260739Y32547224D01*
X78050552Y32385941D01*
X77821112Y32253474D01*
X77576343Y32152088D01*
X77320436Y32083517D01*
X77057767Y32048937D01*
X76792833Y32048937D01*
X76530164Y32083517D01*
X76274257Y32152088D01*
X76029488Y32253474D01*
X75800048Y32385941D01*
X75589861Y32547224D01*
X75402524Y32734561D01*
X75241241Y32944748D01*
X75108774Y33174188D01*
X75007388Y33418957D01*
X74938817Y33674864D01*
X74904237Y33937533D01*
X74904237Y34202467D01*
X74938817Y34465136D01*
X75007388Y34721043D01*
X75108774Y34965812D01*
X75241241Y35195252D01*
X75402524Y35405439D01*
X75589861Y35592776D01*
X75800048Y35754059D01*
X76029488Y35886526D01*
X76274257Y35987912D01*
X76530164Y36056483D01*
X76792833Y36091063D01*
X77057767Y36091063D01*
X77320436Y36056483D01*
G37*
G36*
X71715136Y41916483D02*
G01*
X71971043Y41847912D01*
X72215812Y41746526D01*
X72445252Y41614059D01*
X72655439Y41452776D01*
X72842776Y41265439D01*
X73004059Y41055252D01*
X73136526Y40825812D01*
X73237912Y40581043D01*
X73306483Y40325136D01*
X73341063Y40062467D01*
X73341063Y39797533D01*
X73306483Y39534864D01*
X73237912Y39278957D01*
X73136526Y39034188D01*
X73004059Y38804748D01*
X72842776Y38594561D01*
X72655439Y38407224D01*
X72445252Y38245941D01*
X72215812Y38113474D01*
X71971043Y38012088D01*
X71715136Y37943517D01*
X71452467Y37908937D01*
X71187533Y37908937D01*
X70924864Y37943517D01*
X70668957Y38012088D01*
X70424188Y38113474D01*
X70194748Y38245941D01*
X69984561Y38407224D01*
X69797224Y38594561D01*
X69635941Y38804748D01*
X69503474Y39034188D01*
X69402088Y39278957D01*
X69333517Y39534864D01*
X69298937Y39797533D01*
X69298937Y40062467D01*
X69333517Y40325136D01*
X69402088Y40581043D01*
X69503474Y40825812D01*
X69635941Y41055252D01*
X69797224Y41265439D01*
X69984561Y41452776D01*
X70194748Y41614059D01*
X70424188Y41746526D01*
X70668957Y41847912D01*
X70924864Y41916483D01*
X71187533Y41951063D01*
X71452467Y41951063D01*
X71715136Y41916483D01*
G37*
G36*
X77395136Y41916483D02*
G01*
X77651043Y41847912D01*
X77895812Y41746526D01*
X78125252Y41614059D01*
X78335439Y41452776D01*
X78522776Y41265439D01*
X78684059Y41055252D01*
X78816526Y40825812D01*
X78917912Y40581043D01*
X78986483Y40325136D01*
X79021063Y40062467D01*
X79021063Y39797533D01*
X78986483Y39534864D01*
X78917912Y39278957D01*
X78816526Y39034188D01*
X78684059Y38804748D01*
X78522776Y38594561D01*
X78335439Y38407224D01*
X78125252Y38245941D01*
X77895812Y38113474D01*
X77651043Y38012088D01*
X77395136Y37943517D01*
X77132467Y37908937D01*
X76867533Y37908937D01*
X76604864Y37943517D01*
X76348957Y38012088D01*
X76104188Y38113474D01*
X75874748Y38245941D01*
X75664561Y38407224D01*
X75477224Y38594561D01*
X75315941Y38804748D01*
X75183474Y39034188D01*
X75082088Y39278957D01*
X75013517Y39534864D01*
X74978937Y39797533D01*
X74978937Y40062467D01*
X75013517Y40325136D01*
X75082088Y40581043D01*
X75183474Y40825812D01*
X75315941Y41055252D01*
X75477224Y41265439D01*
X75664561Y41452776D01*
X75874748Y41614059D01*
X76104188Y41746526D01*
X76348957Y41847912D01*
X76604864Y41916483D01*
X76867533Y41951063D01*
X77132467Y41951063D01*
X77395136Y41916483D01*
G37*
G36*
X3210972Y40527897D02*
G01*
X3358198Y40466914D01*
X3490698Y40378380D01*
X3603380Y40265698D01*
X3691914Y40133198D01*
X3752897Y39985972D01*
X3783986Y39829678D01*
X3783986Y39670322D01*
X3752897Y39514028D01*
X3691914Y39366802D01*
X3603380Y39234302D01*
X3490698Y39121620D01*
X3358198Y39033086D01*
X3210972Y38972103D01*
X3054678Y38941014D01*
X2895322Y38941014D01*
X2739028Y38972103D01*
X2591802Y39033086D01*
X2459302Y39121620D01*
X2346620Y39234302D01*
X2258086Y39366802D01*
X2197103Y39514028D01*
X2166014Y39670322D01*
X2166014Y39829678D01*
X2197103Y39985972D01*
X2258086Y40133198D01*
X2346620Y40265698D01*
X2459302Y40378380D01*
X2591802Y40466914D01*
X2739028Y40527897D01*
X2895322Y40558986D01*
X3054678Y40558986D01*
X3210972Y40527897D01*
G37*
G36*
X3772220Y43060967D02*
G01*
X3780461Y43055461D01*
X3785967Y43047220D01*
X3787900Y43037500D01*
X3787900Y41462500D01*
X3785967Y41452780D01*
X3780461Y41444539D01*
X3772220Y41439033D01*
X3762500Y41437100D01*
X2187500Y41437100D01*
X2177780Y41439033D01*
X2169539Y41444539D01*
X2164033Y41452780D01*
X2162100Y41462500D01*
X2162100Y43037500D01*
X2164033Y43047220D01*
X2169539Y43055461D01*
X2177780Y43060967D01*
X2187500Y43062900D01*
X3762500Y43062900D01*
X3772220Y43060967D01*
G37*
G36*
X71909601Y43789859D02*
G01*
X72059091Y43727938D01*
X72193628Y43638043D01*
X72308043Y43523628D01*
X72397938Y43389091D01*
X72459859Y43239601D01*
X72491425Y43080903D01*
X72491425Y42919097D01*
X72459859Y42760399D01*
X72397938Y42610909D01*
X72308043Y42476372D01*
X72193628Y42361957D01*
X72059091Y42272062D01*
X71909601Y42210141D01*
X71750903Y42178575D01*
X71589097Y42178575D01*
X71430399Y42210141D01*
X71280909Y42272062D01*
X71146372Y42361957D01*
X71031957Y42476372D01*
X70942062Y42610909D01*
X70880141Y42760399D01*
X70848575Y42919097D01*
X70848575Y43080903D01*
X70880141Y43239601D01*
X70942062Y43389091D01*
X71031957Y43523628D01*
X71146372Y43638043D01*
X71280909Y43727938D01*
X71430399Y43789859D01*
X71589097Y43821425D01*
X71750903Y43821425D01*
X71909601Y43789859D01*
G37*
G36*
X74529601Y43789859D02*
G01*
X74679091Y43727938D01*
X74813628Y43638043D01*
X74928043Y43523628D01*
X75017938Y43389091D01*
X75079859Y43239601D01*
X75111425Y43080903D01*
X75111425Y42919097D01*
X75079859Y42760399D01*
X75017938Y42610909D01*
X74928043Y42476372D01*
X74813628Y42361957D01*
X74679091Y42272062D01*
X74529601Y42210141D01*
X74370903Y42178575D01*
X74209097Y42178575D01*
X74050399Y42210141D01*
X73900909Y42272062D01*
X73766372Y42361957D01*
X73651957Y42476372D01*
X73562062Y42610909D01*
X73500141Y42760399D01*
X73468575Y42919097D01*
X73468575Y43080903D01*
X73500141Y43239601D01*
X73562062Y43389091D01*
X73651957Y43523628D01*
X73766372Y43638043D01*
X73900909Y43727938D01*
X74050399Y43789859D01*
X74209097Y43821425D01*
X74370903Y43821425D01*
X74529601Y43789859D01*
G37*
G36*
X71909601Y46289859D02*
G01*
X72059091Y46227938D01*
X72193628Y46138043D01*
X72308043Y46023628D01*
X72397938Y45889091D01*
X72459859Y45739601D01*
X72491425Y45580903D01*
X72491425Y45419097D01*
X72459859Y45260399D01*
X72397938Y45110909D01*
X72308043Y44976372D01*
X72193628Y44861957D01*
X72059091Y44772062D01*
X71909601Y44710141D01*
X71750903Y44678575D01*
X71589097Y44678575D01*
X71430399Y44710141D01*
X71280909Y44772062D01*
X71146372Y44861957D01*
X71031957Y44976372D01*
X70942062Y45110909D01*
X70880141Y45260399D01*
X70848575Y45419097D01*
X70848575Y45580903D01*
X70880141Y45739601D01*
X70942062Y45889091D01*
X71031957Y46023628D01*
X71146372Y46138043D01*
X71280909Y46227938D01*
X71430399Y46289859D01*
X71589097Y46321425D01*
X71750903Y46321425D01*
X71909601Y46289859D01*
G37*
G36*
X74529601Y46289859D02*
G01*
X74679091Y46227938D01*
X74813628Y46138043D01*
X74928043Y46023628D01*
X75017938Y45889091D01*
X75079859Y45739601D01*
X75111425Y45580903D01*
X75111425Y45419097D01*
X75079859Y45260399D01*
X75017938Y45110909D01*
X74928043Y44976372D01*
X74813628Y44861957D01*
X74679091Y44772062D01*
X74529601Y44710141D01*
X74370903Y44678575D01*
X74209097Y44678575D01*
X74050399Y44710141D01*
X73900909Y44772062D01*
X73766372Y44861957D01*
X73651957Y44976372D01*
X73562062Y45110909D01*
X73500141Y45260399D01*
X73468575Y45419097D01*
X73468575Y45580903D01*
X73500141Y45739601D01*
X73562062Y45889091D01*
X73651957Y46023628D01*
X73766372Y46138043D01*
X73900909Y46227938D01*
X74050399Y46289859D01*
X74209097Y46321425D01*
X74370903Y46321425D01*
X74529601Y46289859D01*
G37*
G36*
X29861840Y48007173D02*
G01*
X30093159Y47932013D01*
X30309873Y47821592D01*
X30506644Y47678629D01*
X30678629Y47506644D01*
X30821592Y47309873D01*
X30932013Y47093159D01*
X31007173Y46861840D01*
X31045222Y46621612D01*
X31045222Y46378388D01*
X31007173Y46138160D01*
X30932013Y45906841D01*
X30821592Y45690127D01*
X30678629Y45493356D01*
X30506644Y45321371D01*
X30309873Y45178408D01*
X30093159Y45067987D01*
X29861840Y44992827D01*
X29621612Y44954778D01*
X29378388Y44954778D01*
X29138160Y44992827D01*
X28906841Y45067987D01*
X28690127Y45178408D01*
X28493356Y45321371D01*
X28321371Y45493356D01*
X28178408Y45690127D01*
X28067987Y45906841D01*
X27992827Y46138160D01*
X27954778Y46378388D01*
X27954778Y46621612D01*
X27992827Y46861840D01*
X28067987Y47093159D01*
X28178408Y47309873D01*
X28321371Y47506644D01*
X28493356Y47678629D01*
X28690127Y47821592D01*
X28906841Y47932013D01*
X29138160Y48007173D01*
X29378388Y48045222D01*
X29621612Y48045222D01*
X29861840Y48007173D01*
G37*
G36*
X71909601Y48289859D02*
G01*
X72059091Y48227938D01*
X72193628Y48138043D01*
X72308043Y48023628D01*
X72397938Y47889091D01*
X72459859Y47739601D01*
X72491425Y47580903D01*
X72491425Y47419097D01*
X72459859Y47260399D01*
X72397938Y47110909D01*
X72308043Y46976372D01*
X72193628Y46861957D01*
X72059091Y46772062D01*
X71909601Y46710141D01*
X71750903Y46678575D01*
X71589097Y46678575D01*
X71430399Y46710141D01*
X71280909Y46772062D01*
X71146372Y46861957D01*
X71031957Y46976372D01*
X70942062Y47110909D01*
X70880141Y47260399D01*
X70848575Y47419097D01*
X70848575Y47580903D01*
X70880141Y47739601D01*
X70942062Y47889091D01*
X71031957Y48023628D01*
X71146372Y48138043D01*
X71280909Y48227938D01*
X71430399Y48289859D01*
X71589097Y48321425D01*
X71750903Y48321425D01*
X71909601Y48289859D01*
G37*
G36*
X74529601Y48289859D02*
G01*
X74679091Y48227938D01*
X74813628Y48138043D01*
X74928043Y48023628D01*
X75017938Y47889091D01*
X75079859Y47739601D01*
X75111425Y47580903D01*
X75111425Y47419097D01*
X75079859Y47260399D01*
X75017938Y47110909D01*
X74928043Y46976372D01*
X74813628Y46861957D01*
X74679091Y46772062D01*
X74529601Y46710141D01*
X74370903Y46678575D01*
X74209097Y46678575D01*
X74050399Y46710141D01*
X73900909Y46772062D01*
X73766372Y46861957D01*
X73651957Y46976372D01*
X73562062Y47110909D01*
X73500141Y47260399D01*
X73468575Y47419097D01*
X73468575Y47580903D01*
X73500141Y47739601D01*
X73562062Y47889091D01*
X73651957Y48023628D01*
X73766372Y48138043D01*
X73900909Y48227938D01*
X74050399Y48289859D01*
X74209097Y48321425D01*
X74370903Y48321425D01*
X74529601Y48289859D01*
G37*
G36*
X71909601Y50789859D02*
G01*
X72059091Y50727938D01*
X72193628Y50638043D01*
X72308043Y50523628D01*
X72397938Y50389091D01*
X72459859Y50239601D01*
X72491425Y50080903D01*
X72491425Y49919097D01*
X72459859Y49760399D01*
X72397938Y49610909D01*
X72308043Y49476372D01*
X72193628Y49361957D01*
X72059091Y49272062D01*
X71909601Y49210141D01*
X71750903Y49178575D01*
X71589097Y49178575D01*
X71430399Y49210141D01*
X71280909Y49272062D01*
X71146372Y49361957D01*
X71031957Y49476372D01*
X70942062Y49610909D01*
X70880141Y49760399D01*
X70848575Y49919097D01*
X70848575Y50080903D01*
X70880141Y50239601D01*
X70942062Y50389091D01*
X71031957Y50523628D01*
X71146372Y50638043D01*
X71280909Y50727938D01*
X71430399Y50789859D01*
X71589097Y50821425D01*
X71750903Y50821425D01*
X71909601Y50789859D01*
G37*
G36*
X74529601Y50789859D02*
G01*
X74679091Y50727938D01*
X74813628Y50638043D01*
X74928043Y50523628D01*
X75017938Y50389091D01*
X75079859Y50239601D01*
X75111425Y50080903D01*
X75111425Y49919097D01*
X75079859Y49760399D01*
X75017938Y49610909D01*
X74928043Y49476372D01*
X74813628Y49361957D01*
X74679091Y49272062D01*
X74529601Y49210141D01*
X74370903Y49178575D01*
X74209097Y49178575D01*
X74050399Y49210141D01*
X73900909Y49272062D01*
X73766372Y49361957D01*
X73651957Y49476372D01*
X73562062Y49610909D01*
X73500141Y49760399D01*
X73468575Y49919097D01*
X73468575Y50080903D01*
X73500141Y50239601D01*
X73562062Y50389091D01*
X73651957Y50523628D01*
X73766372Y50638043D01*
X73900909Y50727938D01*
X74050399Y50789859D01*
X74209097Y50821425D01*
X74370903Y50821425D01*
X74529601Y50789859D01*
G37*
G36*
X3956521Y55186893D02*
G01*
X4254488Y55118884D01*
X4542965Y55017941D01*
X4818327Y54885334D01*
X5077111Y54722730D01*
X5316061Y54532173D01*
X5532173Y54316061D01*
X5722730Y54077111D01*
X5885334Y53818327D01*
X6017941Y53542965D01*
X6118884Y53254488D01*
X6186893Y52956521D01*
X6221112Y52652814D01*
X6221112Y52347186D01*
X6186893Y52043479D01*
X6118884Y51745512D01*
X6017941Y51457035D01*
X5885334Y51181673D01*
X5722730Y50922889D01*
X5532173Y50683939D01*
X5316061Y50467827D01*
X5077111Y50277270D01*
X4818327Y50114666D01*
X4542965Y49982059D01*
X4254488Y49881116D01*
X3956521Y49813107D01*
X3652814Y49778888D01*
X3347186Y49778888D01*
X3043479Y49813107D01*
X2745512Y49881116D01*
X2457035Y49982059D01*
X2181673Y50114666D01*
X1922889Y50277270D01*
X1683939Y50467827D01*
X1467827Y50683939D01*
X1277270Y50922889D01*
X1114666Y51181673D01*
X982059Y51457035D01*
X881116Y51745512D01*
X813107Y52043479D01*
X778888Y52347186D01*
X778888Y52652814D01*
X813107Y52956521D01*
X881116Y53254488D01*
X982059Y53542965D01*
X1114666Y53818327D01*
X1277270Y54077111D01*
X1467827Y54316061D01*
X1683939Y54532173D01*
X1922889Y54722730D01*
X2181673Y54885334D01*
X2457035Y55017941D01*
X2745512Y55118884D01*
X3043479Y55186893D01*
X3347186Y55221112D01*
X3652814Y55221112D01*
X3956521Y55186893D01*
G37*
G36*
X61956521Y55186893D02*
G01*
X62254488Y55118884D01*
X62542965Y55017941D01*
X62818327Y54885334D01*
X63077111Y54722730D01*
X63316061Y54532173D01*
X63532173Y54316061D01*
X63722730Y54077111D01*
X63885334Y53818327D01*
X64017941Y53542965D01*
X64118884Y53254488D01*
X64186893Y52956521D01*
X64221112Y52652814D01*
X64221112Y52347186D01*
X64186893Y52043479D01*
X64118884Y51745512D01*
X64017941Y51457035D01*
X63885334Y51181673D01*
X63722730Y50922889D01*
X63532173Y50683939D01*
X63316061Y50467827D01*
X63077111Y50277270D01*
X62818327Y50114666D01*
X62542965Y49982059D01*
X62254488Y49881116D01*
X61956521Y49813107D01*
X61652814Y49778888D01*
X61347186Y49778888D01*
X61043479Y49813107D01*
X60745512Y49881116D01*
X60457035Y49982059D01*
X60181673Y50114666D01*
X59922889Y50277270D01*
X59683939Y50467827D01*
X59467827Y50683939D01*
X59277270Y50922889D01*
X59114666Y51181673D01*
X58982059Y51457035D01*
X58881116Y51745512D01*
X58813107Y52043479D01*
X58778888Y52347186D01*
X58778888Y52652814D01*
X58813107Y52956521D01*
X58881116Y53254488D01*
X58982059Y53542965D01*
X59114666Y53818327D01*
X59277270Y54077111D01*
X59467827Y54316061D01*
X59683939Y54532173D01*
X59922889Y54722730D01*
X60181673Y54885334D01*
X60457035Y55017941D01*
X60745512Y55118884D01*
X61043479Y55186893D01*
X61347186Y55221112D01*
X61652814Y55221112D01*
X61956521Y55186893D01*
G37*
G36*
X9074720Y51948467D02*
G01*
X9082961Y51942961D01*
X9088467Y51934720D01*
X9090400Y51925000D01*
X9090400Y50535000D01*
X9088467Y50525280D01*
X9082961Y50517039D01*
X9074720Y50511533D01*
X9065000Y50509600D01*
X7675000Y50509600D01*
X7665280Y50511533D01*
X7657039Y50517039D01*
X7651533Y50525280D01*
X7649600Y50535000D01*
X7649600Y51925000D01*
X7651533Y51934720D01*
X7657039Y51942961D01*
X7665280Y51948467D01*
X7675000Y51950400D01*
X9065000Y51950400D01*
X9074720Y51948467D01*
G37*
G36*
X11119121Y51919380D02*
G01*
X11249594Y51865336D01*
X11367017Y51786877D01*
X11466877Y51687017D01*
X11545336Y51569594D01*
X11599380Y51439121D01*
X11626931Y51300612D01*
X11626931Y51159388D01*
X11599380Y51020879D01*
X11545336Y50890406D01*
X11466877Y50772983D01*
X11367017Y50673123D01*
X11249594Y50594664D01*
X11119121Y50540620D01*
X10980612Y50513069D01*
X10839388Y50513069D01*
X10700879Y50540620D01*
X10570406Y50594664D01*
X10452983Y50673123D01*
X10353123Y50772983D01*
X10274664Y50890406D01*
X10220620Y51020879D01*
X10193069Y51159388D01*
X10193069Y51300612D01*
X10220620Y51439121D01*
X10274664Y51569594D01*
X10353123Y51687017D01*
X10452983Y51786877D01*
X10570406Y51865336D01*
X10700879Y51919380D01*
X10839388Y51946931D01*
X10980612Y51946931D01*
X11119121Y51919380D01*
G37*
G36*
X13659121Y51919380D02*
G01*
X13789594Y51865336D01*
X13907017Y51786877D01*
X14006877Y51687017D01*
X14085336Y51569594D01*
X14139380Y51439121D01*
X14166931Y51300612D01*
X14166931Y51159388D01*
X14139380Y51020879D01*
X14085336Y50890406D01*
X14006877Y50772983D01*
X13907017Y50673123D01*
X13789594Y50594664D01*
X13659121Y50540620D01*
X13520612Y50513069D01*
X13379388Y50513069D01*
X13240879Y50540620D01*
X13110406Y50594664D01*
X12992983Y50673123D01*
X12893123Y50772983D01*
X12814664Y50890406D01*
X12760620Y51020879D01*
X12733069Y51159388D01*
X12733069Y51300612D01*
X12760620Y51439121D01*
X12814664Y51569594D01*
X12893123Y51687017D01*
X12992983Y51786877D01*
X13110406Y51865336D01*
X13240879Y51919380D01*
X13379388Y51946931D01*
X13520612Y51946931D01*
X13659121Y51919380D01*
G37*
G36*
X16199121Y51919380D02*
G01*
X16329594Y51865336D01*
X16447017Y51786877D01*
X16546877Y51687017D01*
X16625336Y51569594D01*
X16679380Y51439121D01*
X16706931Y51300612D01*
X16706931Y51159388D01*
X16679380Y51020879D01*
X16625336Y50890406D01*
X16546877Y50772983D01*
X16447017Y50673123D01*
X16329594Y50594664D01*
X16199121Y50540620D01*
X16060612Y50513069D01*
X15919388Y50513069D01*
X15780879Y50540620D01*
X15650406Y50594664D01*
X15532983Y50673123D01*
X15433123Y50772983D01*
X15354664Y50890406D01*
X15300620Y51020879D01*
X15273069Y51159388D01*
X15273069Y51300612D01*
X15300620Y51439121D01*
X15354664Y51569594D01*
X15433123Y51687017D01*
X15532983Y51786877D01*
X15650406Y51865336D01*
X15780879Y51919380D01*
X15919388Y51946931D01*
X16060612Y51946931D01*
X16199121Y51919380D01*
G37*
G36*
X18739121Y51919380D02*
G01*
X18869594Y51865336D01*
X18987017Y51786877D01*
X19086877Y51687017D01*
X19165336Y51569594D01*
X19219380Y51439121D01*
X19246931Y51300612D01*
X19246931Y51159388D01*
X19219380Y51020879D01*
X19165336Y50890406D01*
X19086877Y50772983D01*
X18987017Y50673123D01*
X18869594Y50594664D01*
X18739121Y50540620D01*
X18600612Y50513069D01*
X18459388Y50513069D01*
X18320879Y50540620D01*
X18190406Y50594664D01*
X18072983Y50673123D01*
X17973123Y50772983D01*
X17894664Y50890406D01*
X17840620Y51020879D01*
X17813069Y51159388D01*
X17813069Y51300612D01*
X17840620Y51439121D01*
X17894664Y51569594D01*
X17973123Y51687017D01*
X18072983Y51786877D01*
X18190406Y51865336D01*
X18320879Y51919380D01*
X18459388Y51946931D01*
X18600612Y51946931D01*
X18739121Y51919380D01*
G37*
G36*
X21279121Y51919380D02*
G01*
X21409594Y51865336D01*
X21527017Y51786877D01*
X21626877Y51687017D01*
X21705336Y51569594D01*
X21759380Y51439121D01*
X21786931Y51300612D01*
X21786931Y51159388D01*
X21759380Y51020879D01*
X21705336Y50890406D01*
X21626877Y50772983D01*
X21527017Y50673123D01*
X21409594Y50594664D01*
X21279121Y50540620D01*
X21140612Y50513069D01*
X20999388Y50513069D01*
X20860879Y50540620D01*
X20730406Y50594664D01*
X20612983Y50673123D01*
X20513123Y50772983D01*
X20434664Y50890406D01*
X20380620Y51020879D01*
X20353069Y51159388D01*
X20353069Y51300612D01*
X20380620Y51439121D01*
X20434664Y51569594D01*
X20513123Y51687017D01*
X20612983Y51786877D01*
X20730406Y51865336D01*
X20860879Y51919380D01*
X20999388Y51946931D01*
X21140612Y51946931D01*
X21279121Y51919380D01*
G37*
G36*
X23819121Y51919380D02*
G01*
X23949594Y51865336D01*
X24067017Y51786877D01*
X24166877Y51687017D01*
X24245336Y51569594D01*
X24299380Y51439121D01*
X24326931Y51300612D01*
X24326931Y51159388D01*
X24299380Y51020879D01*
X24245336Y50890406D01*
X24166877Y50772983D01*
X24067017Y50673123D01*
X23949594Y50594664D01*
X23819121Y50540620D01*
X23680612Y50513069D01*
X23539388Y50513069D01*
X23400879Y50540620D01*
X23270406Y50594664D01*
X23152983Y50673123D01*
X23053123Y50772983D01*
X22974664Y50890406D01*
X22920620Y51020879D01*
X22893069Y51159388D01*
X22893069Y51300612D01*
X22920620Y51439121D01*
X22974664Y51569594D01*
X23053123Y51687017D01*
X23152983Y51786877D01*
X23270406Y51865336D01*
X23400879Y51919380D01*
X23539388Y51946931D01*
X23680612Y51946931D01*
X23819121Y51919380D01*
G37*
G36*
X26359121Y51919380D02*
G01*
X26489594Y51865336D01*
X26607017Y51786877D01*
X26706877Y51687017D01*
X26785336Y51569594D01*
X26839380Y51439121D01*
X26866931Y51300612D01*
X26866931Y51159388D01*
X26839380Y51020879D01*
X26785336Y50890406D01*
X26706877Y50772983D01*
X26607017Y50673123D01*
X26489594Y50594664D01*
X26359121Y50540620D01*
X26220612Y50513069D01*
X26079388Y50513069D01*
X25940879Y50540620D01*
X25810406Y50594664D01*
X25692983Y50673123D01*
X25593123Y50772983D01*
X25514664Y50890406D01*
X25460620Y51020879D01*
X25433069Y51159388D01*
X25433069Y51300612D01*
X25460620Y51439121D01*
X25514664Y51569594D01*
X25593123Y51687017D01*
X25692983Y51786877D01*
X25810406Y51865336D01*
X25940879Y51919380D01*
X26079388Y51946931D01*
X26220612Y51946931D01*
X26359121Y51919380D01*
G37*
G36*
X28899121Y51919380D02*
G01*
X29029594Y51865336D01*
X29147017Y51786877D01*
X29246877Y51687017D01*
X29325336Y51569594D01*
X29379380Y51439121D01*
X29406931Y51300612D01*
X29406931Y51159388D01*
X29379380Y51020879D01*
X29325336Y50890406D01*
X29246877Y50772983D01*
X29147017Y50673123D01*
X29029594Y50594664D01*
X28899121Y50540620D01*
X28760612Y50513069D01*
X28619388Y50513069D01*
X28480879Y50540620D01*
X28350406Y50594664D01*
X28232983Y50673123D01*
X28133123Y50772983D01*
X28054664Y50890406D01*
X28000620Y51020879D01*
X27973069Y51159388D01*
X27973069Y51300612D01*
X28000620Y51439121D01*
X28054664Y51569594D01*
X28133123Y51687017D01*
X28232983Y51786877D01*
X28350406Y51865336D01*
X28480879Y51919380D01*
X28619388Y51946931D01*
X28760612Y51946931D01*
X28899121Y51919380D01*
G37*
G36*
X31439121Y51919380D02*
G01*
X31569594Y51865336D01*
X31687017Y51786877D01*
X31786877Y51687017D01*
X31865336Y51569594D01*
X31919380Y51439121D01*
X31946931Y51300612D01*
X31946931Y51159388D01*
X31919380Y51020879D01*
X31865336Y50890406D01*
X31786877Y50772983D01*
X31687017Y50673123D01*
X31569594Y50594664D01*
X31439121Y50540620D01*
X31300612Y50513069D01*
X31159388Y50513069D01*
X31020879Y50540620D01*
X30890406Y50594664D01*
X30772983Y50673123D01*
X30673123Y50772983D01*
X30594664Y50890406D01*
X30540620Y51020879D01*
X30513069Y51159388D01*
X30513069Y51300612D01*
X30540620Y51439121D01*
X30594664Y51569594D01*
X30673123Y51687017D01*
X30772983Y51786877D01*
X30890406Y51865336D01*
X31020879Y51919380D01*
X31159388Y51946931D01*
X31300612Y51946931D01*
X31439121Y51919380D01*
G37*
G36*
X33979121Y51919380D02*
G01*
X34109594Y51865336D01*
X34227017Y51786877D01*
X34326877Y51687017D01*
X34405336Y51569594D01*
X34459380Y51439121D01*
X34486931Y51300612D01*
X34486931Y51159388D01*
X34459380Y51020879D01*
X34405336Y50890406D01*
X34326877Y50772983D01*
X34227017Y50673123D01*
X34109594Y50594664D01*
X33979121Y50540620D01*
X33840612Y50513069D01*
X33699388Y50513069D01*
X33560879Y50540620D01*
X33430406Y50594664D01*
X33312983Y50673123D01*
X33213123Y50772983D01*
X33134664Y50890406D01*
X33080620Y51020879D01*
X33053069Y51159388D01*
X33053069Y51300612D01*
X33080620Y51439121D01*
X33134664Y51569594D01*
X33213123Y51687017D01*
X33312983Y51786877D01*
X33430406Y51865336D01*
X33560879Y51919380D01*
X33699388Y51946931D01*
X33840612Y51946931D01*
X33979121Y51919380D01*
G37*
G36*
X36519121Y51919380D02*
G01*
X36649594Y51865336D01*
X36767017Y51786877D01*
X36866877Y51687017D01*
X36945336Y51569594D01*
X36999380Y51439121D01*
X37026931Y51300612D01*
X37026931Y51159388D01*
X36999380Y51020879D01*
X36945336Y50890406D01*
X36866877Y50772983D01*
X36767017Y50673123D01*
X36649594Y50594664D01*
X36519121Y50540620D01*
X36380612Y50513069D01*
X36239388Y50513069D01*
X36100879Y50540620D01*
X35970406Y50594664D01*
X35852983Y50673123D01*
X35753123Y50772983D01*
X35674664Y50890406D01*
X35620620Y51020879D01*
X35593069Y51159388D01*
X35593069Y51300612D01*
X35620620Y51439121D01*
X35674664Y51569594D01*
X35753123Y51687017D01*
X35852983Y51786877D01*
X35970406Y51865336D01*
X36100879Y51919380D01*
X36239388Y51946931D01*
X36380612Y51946931D01*
X36519121Y51919380D01*
G37*
G36*
X39059121Y51919380D02*
G01*
X39189594Y51865336D01*
X39307017Y51786877D01*
X39406877Y51687017D01*
X39485336Y51569594D01*
X39539380Y51439121D01*
X39566931Y51300612D01*
X39566931Y51159388D01*
X39539380Y51020879D01*
X39485336Y50890406D01*
X39406877Y50772983D01*
X39307017Y50673123D01*
X39189594Y50594664D01*
X39059121Y50540620D01*
X38920612Y50513069D01*
X38779388Y50513069D01*
X38640879Y50540620D01*
X38510406Y50594664D01*
X38392983Y50673123D01*
X38293123Y50772983D01*
X38214664Y50890406D01*
X38160620Y51020879D01*
X38133069Y51159388D01*
X38133069Y51300612D01*
X38160620Y51439121D01*
X38214664Y51569594D01*
X38293123Y51687017D01*
X38392983Y51786877D01*
X38510406Y51865336D01*
X38640879Y51919380D01*
X38779388Y51946931D01*
X38920612Y51946931D01*
X39059121Y51919380D01*
G37*
G36*
X41599121Y51919380D02*
G01*
X41729594Y51865336D01*
X41847017Y51786877D01*
X41946877Y51687017D01*
X42025336Y51569594D01*
X42079380Y51439121D01*
X42106931Y51300612D01*
X42106931Y51159388D01*
X42079380Y51020879D01*
X42025336Y50890406D01*
X41946877Y50772983D01*
X41847017Y50673123D01*
X41729594Y50594664D01*
X41599121Y50540620D01*
X41460612Y50513069D01*
X41319388Y50513069D01*
X41180879Y50540620D01*
X41050406Y50594664D01*
X40932983Y50673123D01*
X40833123Y50772983D01*
X40754664Y50890406D01*
X40700620Y51020879D01*
X40673069Y51159388D01*
X40673069Y51300612D01*
X40700620Y51439121D01*
X40754664Y51569594D01*
X40833123Y51687017D01*
X40932983Y51786877D01*
X41050406Y51865336D01*
X41180879Y51919380D01*
X41319388Y51946931D01*
X41460612Y51946931D01*
X41599121Y51919380D01*
G37*
G36*
X44139121Y51919380D02*
G01*
X44269594Y51865336D01*
X44387017Y51786877D01*
X44486877Y51687017D01*
X44565336Y51569594D01*
X44619380Y51439121D01*
X44646931Y51300612D01*
X44646931Y51159388D01*
X44619380Y51020879D01*
X44565336Y50890406D01*
X44486877Y50772983D01*
X44387017Y50673123D01*
X44269594Y50594664D01*
X44139121Y50540620D01*
X44000612Y50513069D01*
X43859388Y50513069D01*
X43720879Y50540620D01*
X43590406Y50594664D01*
X43472983Y50673123D01*
X43373123Y50772983D01*
X43294664Y50890406D01*
X43240620Y51020879D01*
X43213069Y51159388D01*
X43213069Y51300612D01*
X43240620Y51439121D01*
X43294664Y51569594D01*
X43373123Y51687017D01*
X43472983Y51786877D01*
X43590406Y51865336D01*
X43720879Y51919380D01*
X43859388Y51946931D01*
X44000612Y51946931D01*
X44139121Y51919380D01*
G37*
G36*
X46679121Y51919380D02*
G01*
X46809594Y51865336D01*
X46927017Y51786877D01*
X47026877Y51687017D01*
X47105336Y51569594D01*
X47159380Y51439121D01*
X47186931Y51300612D01*
X47186931Y51159388D01*
X47159380Y51020879D01*
X47105336Y50890406D01*
X47026877Y50772983D01*
X46927017Y50673123D01*
X46809594Y50594664D01*
X46679121Y50540620D01*
X46540612Y50513069D01*
X46399388Y50513069D01*
X46260879Y50540620D01*
X46130406Y50594664D01*
X46012983Y50673123D01*
X45913123Y50772983D01*
X45834664Y50890406D01*
X45780620Y51020879D01*
X45753069Y51159388D01*
X45753069Y51300612D01*
X45780620Y51439121D01*
X45834664Y51569594D01*
X45913123Y51687017D01*
X46012983Y51786877D01*
X46130406Y51865336D01*
X46260879Y51919380D01*
X46399388Y51946931D01*
X46540612Y51946931D01*
X46679121Y51919380D01*
G37*
G36*
X49219121Y51919380D02*
G01*
X49349594Y51865336D01*
X49467017Y51786877D01*
X49566877Y51687017D01*
X49645336Y51569594D01*
X49699380Y51439121D01*
X49726931Y51300612D01*
X49726931Y51159388D01*
X49699380Y51020879D01*
X49645336Y50890406D01*
X49566877Y50772983D01*
X49467017Y50673123D01*
X49349594Y50594664D01*
X49219121Y50540620D01*
X49080612Y50513069D01*
X48939388Y50513069D01*
X48800879Y50540620D01*
X48670406Y50594664D01*
X48552983Y50673123D01*
X48453123Y50772983D01*
X48374664Y50890406D01*
X48320620Y51020879D01*
X48293069Y51159388D01*
X48293069Y51300612D01*
X48320620Y51439121D01*
X48374664Y51569594D01*
X48453123Y51687017D01*
X48552983Y51786877D01*
X48670406Y51865336D01*
X48800879Y51919380D01*
X48939388Y51946931D01*
X49080612Y51946931D01*
X49219121Y51919380D01*
G37*
G36*
X51759121Y51919380D02*
G01*
X51889594Y51865336D01*
X52007017Y51786877D01*
X52106877Y51687017D01*
X52185336Y51569594D01*
X52239380Y51439121D01*
X52266931Y51300612D01*
X52266931Y51159388D01*
X52239380Y51020879D01*
X52185336Y50890406D01*
X52106877Y50772983D01*
X52007017Y50673123D01*
X51889594Y50594664D01*
X51759121Y50540620D01*
X51620612Y50513069D01*
X51479388Y50513069D01*
X51340879Y50540620D01*
X51210406Y50594664D01*
X51092983Y50673123D01*
X50993123Y50772983D01*
X50914664Y50890406D01*
X50860620Y51020879D01*
X50833069Y51159388D01*
X50833069Y51300612D01*
X50860620Y51439121D01*
X50914664Y51569594D01*
X50993123Y51687017D01*
X51092983Y51786877D01*
X51210406Y51865336D01*
X51340879Y51919380D01*
X51479388Y51946931D01*
X51620612Y51946931D01*
X51759121Y51919380D01*
G37*
G36*
X54299121Y51919380D02*
G01*
X54429594Y51865336D01*
X54547017Y51786877D01*
X54646877Y51687017D01*
X54725336Y51569594D01*
X54779380Y51439121D01*
X54806931Y51300612D01*
X54806931Y51159388D01*
X54779380Y51020879D01*
X54725336Y50890406D01*
X54646877Y50772983D01*
X54547017Y50673123D01*
X54429594Y50594664D01*
X54299121Y50540620D01*
X54160612Y50513069D01*
X54019388Y50513069D01*
X53880879Y50540620D01*
X53750406Y50594664D01*
X53632983Y50673123D01*
X53533123Y50772983D01*
X53454664Y50890406D01*
X53400620Y51020879D01*
X53373069Y51159388D01*
X53373069Y51300612D01*
X53400620Y51439121D01*
X53454664Y51569594D01*
X53533123Y51687017D01*
X53632983Y51786877D01*
X53750406Y51865336D01*
X53880879Y51919380D01*
X54019388Y51946931D01*
X54160612Y51946931D01*
X54299121Y51919380D01*
G37*
G36*
X56839121Y51919380D02*
G01*
X56969594Y51865336D01*
X57087017Y51786877D01*
X57186877Y51687017D01*
X57265336Y51569594D01*
X57319380Y51439121D01*
X57346931Y51300612D01*
X57346931Y51159388D01*
X57319380Y51020879D01*
X57265336Y50890406D01*
X57186877Y50772983D01*
X57087017Y50673123D01*
X56969594Y50594664D01*
X56839121Y50540620D01*
X56700612Y50513069D01*
X56559388Y50513069D01*
X56420879Y50540620D01*
X56290406Y50594664D01*
X56172983Y50673123D01*
X56073123Y50772983D01*
X55994664Y50890406D01*
X55940620Y51020879D01*
X55913069Y51159388D01*
X55913069Y51300612D01*
X55940620Y51439121D01*
X55994664Y51569594D01*
X56073123Y51687017D01*
X56172983Y51786877D01*
X56290406Y51865336D01*
X56420879Y51919380D01*
X56559388Y51946931D01*
X56700612Y51946931D01*
X56839121Y51919380D01*
G37*
G36*
X71715136Y55056483D02*
G01*
X71971043Y54987912D01*
X72215812Y54886526D01*
X72445252Y54754059D01*
X72655439Y54592776D01*
X72842776Y54405439D01*
X73004059Y54195252D01*
X73136526Y53965812D01*
X73237912Y53721043D01*
X73306483Y53465136D01*
X73341063Y53202467D01*
X73341063Y52937533D01*
X73306483Y52674864D01*
X73237912Y52418957D01*
X73136526Y52174188D01*
X73004059Y51944748D01*
X72842776Y51734561D01*
X72655439Y51547224D01*
X72445252Y51385941D01*
X72215812Y51253474D01*
X71971043Y51152088D01*
X71715136Y51083517D01*
X71452467Y51048937D01*
X71187533Y51048937D01*
X70924864Y51083517D01*
X70668957Y51152088D01*
X70424188Y51253474D01*
X70194748Y51385941D01*
X69984561Y51547224D01*
X69797224Y51734561D01*
X69635941Y51944748D01*
X69503474Y52174188D01*
X69402088Y52418957D01*
X69333517Y52674864D01*
X69298937Y52937533D01*
X69298937Y53202467D01*
X69333517Y53465136D01*
X69402088Y53721043D01*
X69503474Y53965812D01*
X69635941Y54195252D01*
X69797224Y54405439D01*
X69984561Y54592776D01*
X70194748Y54754059D01*
X70424188Y54886526D01*
X70668957Y54987912D01*
X70924864Y55056483D01*
X71187533Y55091063D01*
X71452467Y55091063D01*
X71715136Y55056483D01*
G37*
G36*
X77395136Y55056483D02*
G01*
X77651043Y54987912D01*
X77895812Y54886526D01*
X78125252Y54754059D01*
X78335439Y54592776D01*
X78522776Y54405439D01*
X78684059Y54195252D01*
X78816526Y53965812D01*
X78917912Y53721043D01*
X78986483Y53465136D01*
X79021063Y53202467D01*
X79021063Y52937533D01*
X78986483Y52674864D01*
X78917912Y52418957D01*
X78816526Y52174188D01*
X78684059Y51944748D01*
X78522776Y51734561D01*
X78335439Y51547224D01*
X78125252Y51385941D01*
X77895812Y51253474D01*
X77651043Y51152088D01*
X77395136Y51083517D01*
X77132467Y51048937D01*
X76867533Y51048937D01*
X76604864Y51083517D01*
X76348957Y51152088D01*
X76104188Y51253474D01*
X75874748Y51385941D01*
X75664561Y51547224D01*
X75477224Y51734561D01*
X75315941Y51944748D01*
X75183474Y52174188D01*
X75082088Y52418957D01*
X75013517Y52674864D01*
X74978937Y52937533D01*
X74978937Y53202467D01*
X75013517Y53465136D01*
X75082088Y53721043D01*
X75183474Y53965812D01*
X75315941Y54195252D01*
X75477224Y54405439D01*
X75664561Y54592776D01*
X75874748Y54754059D01*
X76104188Y54886526D01*
X76348957Y54987912D01*
X76604864Y55056483D01*
X76867533Y55091063D01*
X77132467Y55091063D01*
X77395136Y55056483D01*
G37*
G36*
X8579121Y54459380D02*
G01*
X8709594Y54405336D01*
X8827017Y54326877D01*
X8926877Y54227017D01*
X9005336Y54109594D01*
X9059380Y53979121D01*
X9086931Y53840612D01*
X9086931Y53699388D01*
X9059380Y53560879D01*
X9005336Y53430406D01*
X8926877Y53312983D01*
X8827017Y53213123D01*
X8709594Y53134664D01*
X8579121Y53080620D01*
X8440612Y53053069D01*
X8299388Y53053069D01*
X8160879Y53080620D01*
X8030406Y53134664D01*
X7912983Y53213123D01*
X7813123Y53312983D01*
X7734664Y53430406D01*
X7680620Y53560879D01*
X7653069Y53699388D01*
X7653069Y53840612D01*
X7680620Y53979121D01*
X7734664Y54109594D01*
X7813123Y54227017D01*
X7912983Y54326877D01*
X8030406Y54405336D01*
X8160879Y54459380D01*
X8299388Y54486931D01*
X8440612Y54486931D01*
X8579121Y54459380D01*
G37*
G36*
X11119121Y54459380D02*
G01*
X11249594Y54405336D01*
X11367017Y54326877D01*
X11466877Y54227017D01*
X11545336Y54109594D01*
X11599380Y53979121D01*
X11626931Y53840612D01*
X11626931Y53699388D01*
X11599380Y53560879D01*
X11545336Y53430406D01*
X11466877Y53312983D01*
X11367017Y53213123D01*
X11249594Y53134664D01*
X11119121Y53080620D01*
X10980612Y53053069D01*
X10839388Y53053069D01*
X10700879Y53080620D01*
X10570406Y53134664D01*
X10452983Y53213123D01*
X10353123Y53312983D01*
X10274664Y53430406D01*
X10220620Y53560879D01*
X10193069Y53699388D01*
X10193069Y53840612D01*
X10220620Y53979121D01*
X10274664Y54109594D01*
X10353123Y54227017D01*
X10452983Y54326877D01*
X10570406Y54405336D01*
X10700879Y54459380D01*
X10839388Y54486931D01*
X10980612Y54486931D01*
X11119121Y54459380D01*
G37*
G36*
X13659121Y54459380D02*
G01*
X13789594Y54405336D01*
X13907017Y54326877D01*
X14006877Y54227017D01*
X14085336Y54109594D01*
X14139380Y53979121D01*
X14166931Y53840612D01*
X14166931Y53699388D01*
X14139380Y53560879D01*
X14085336Y53430406D01*
X14006877Y53312983D01*
X13907017Y53213123D01*
X13789594Y53134664D01*
X13659121Y53080620D01*
X13520612Y53053069D01*
X13379388Y53053069D01*
X13240879Y53080620D01*
X13110406Y53134664D01*
X12992983Y53213123D01*
X12893123Y53312983D01*
X12814664Y53430406D01*
X12760620Y53560879D01*
X12733069Y53699388D01*
X12733069Y53840612D01*
X12760620Y53979121D01*
X12814664Y54109594D01*
X12893123Y54227017D01*
X12992983Y54326877D01*
X13110406Y54405336D01*
X13240879Y54459380D01*
X13379388Y54486931D01*
X13520612Y54486931D01*
X13659121Y54459380D01*
G37*
G36*
X16199121Y54459380D02*
G01*
X16329594Y54405336D01*
X16447017Y54326877D01*
X16546877Y54227017D01*
X16625336Y54109594D01*
X16679380Y53979121D01*
X16706931Y53840612D01*
X16706931Y53699388D01*
X16679380Y53560879D01*
X16625336Y53430406D01*
X16546877Y53312983D01*
X16447017Y53213123D01*
X16329594Y53134664D01*
X16199121Y53080620D01*
X16060612Y53053069D01*
X15919388Y53053069D01*
X15780879Y53080620D01*
X15650406Y53134664D01*
X15532983Y53213123D01*
X15433123Y53312983D01*
X15354664Y53430406D01*
X15300620Y53560879D01*
X15273069Y53699388D01*
X15273069Y53840612D01*
X15300620Y53979121D01*
X15354664Y54109594D01*
X15433123Y54227017D01*
X15532983Y54326877D01*
X15650406Y54405336D01*
X15780879Y54459380D01*
X15919388Y54486931D01*
X16060612Y54486931D01*
X16199121Y54459380D01*
G37*
G36*
X18739121Y54459380D02*
G01*
X18869594Y54405336D01*
X18987017Y54326877D01*
X19086877Y54227017D01*
X19165336Y54109594D01*
X19219380Y53979121D01*
X19246931Y53840612D01*
X19246931Y53699388D01*
X19219380Y53560879D01*
X19165336Y53430406D01*
X19086877Y53312983D01*
X18987017Y53213123D01*
X18869594Y53134664D01*
X18739121Y53080620D01*
X18600612Y53053069D01*
X18459388Y53053069D01*
X18320879Y53080620D01*
X18190406Y53134664D01*
X18072983Y53213123D01*
X17973123Y53312983D01*
X17894664Y53430406D01*
X17840620Y53560879D01*
X17813069Y53699388D01*
X17813069Y53840612D01*
X17840620Y53979121D01*
X17894664Y54109594D01*
X17973123Y54227017D01*
X18072983Y54326877D01*
X18190406Y54405336D01*
X18320879Y54459380D01*
X18459388Y54486931D01*
X18600612Y54486931D01*
X18739121Y54459380D01*
G37*
G36*
X21279121Y54459380D02*
G01*
X21409594Y54405336D01*
X21527017Y54326877D01*
X21626877Y54227017D01*
X21705336Y54109594D01*
X21759380Y53979121D01*
X21786931Y53840612D01*
X21786931Y53699388D01*
X21759380Y53560879D01*
X21705336Y53430406D01*
X21626877Y53312983D01*
X21527017Y53213123D01*
X21409594Y53134664D01*
X21279121Y53080620D01*
X21140612Y53053069D01*
X20999388Y53053069D01*
X20860879Y53080620D01*
X20730406Y53134664D01*
X20612983Y53213123D01*
X20513123Y53312983D01*
X20434664Y53430406D01*
X20380620Y53560879D01*
X20353069Y53699388D01*
X20353069Y53840612D01*
X20380620Y53979121D01*
X20434664Y54109594D01*
X20513123Y54227017D01*
X20612983Y54326877D01*
X20730406Y54405336D01*
X20860879Y54459380D01*
X20999388Y54486931D01*
X21140612Y54486931D01*
X21279121Y54459380D01*
G37*
G36*
X23819121Y54459380D02*
G01*
X23949594Y54405336D01*
X24067017Y54326877D01*
X24166877Y54227017D01*
X24245336Y54109594D01*
X24299380Y53979121D01*
X24326931Y53840612D01*
X24326931Y53699388D01*
X24299380Y53560879D01*
X24245336Y53430406D01*
X24166877Y53312983D01*
X24067017Y53213123D01*
X23949594Y53134664D01*
X23819121Y53080620D01*
X23680612Y53053069D01*
X23539388Y53053069D01*
X23400879Y53080620D01*
X23270406Y53134664D01*
X23152983Y53213123D01*
X23053123Y53312983D01*
X22974664Y53430406D01*
X22920620Y53560879D01*
X22893069Y53699388D01*
X22893069Y53840612D01*
X22920620Y53979121D01*
X22974664Y54109594D01*
X23053123Y54227017D01*
X23152983Y54326877D01*
X23270406Y54405336D01*
X23400879Y54459380D01*
X23539388Y54486931D01*
X23680612Y54486931D01*
X23819121Y54459380D01*
G37*
G36*
X26359121Y54459380D02*
G01*
X26489594Y54405336D01*
X26607017Y54326877D01*
X26706877Y54227017D01*
X26785336Y54109594D01*
X26839380Y53979121D01*
X26866931Y53840612D01*
X26866931Y53699388D01*
X26839380Y53560879D01*
X26785336Y53430406D01*
X26706877Y53312983D01*
X26607017Y53213123D01*
X26489594Y53134664D01*
X26359121Y53080620D01*
X26220612Y53053069D01*
X26079388Y53053069D01*
X25940879Y53080620D01*
X25810406Y53134664D01*
X25692983Y53213123D01*
X25593123Y53312983D01*
X25514664Y53430406D01*
X25460620Y53560879D01*
X25433069Y53699388D01*
X25433069Y53840612D01*
X25460620Y53979121D01*
X25514664Y54109594D01*
X25593123Y54227017D01*
X25692983Y54326877D01*
X25810406Y54405336D01*
X25940879Y54459380D01*
X26079388Y54486931D01*
X26220612Y54486931D01*
X26359121Y54459380D01*
G37*
G36*
X28899121Y54459380D02*
G01*
X29029594Y54405336D01*
X29147017Y54326877D01*
X29246877Y54227017D01*
X29325336Y54109594D01*
X29379380Y53979121D01*
X29406931Y53840612D01*
X29406931Y53699388D01*
X29379380Y53560879D01*
X29325336Y53430406D01*
X29246877Y53312983D01*
X29147017Y53213123D01*
X29029594Y53134664D01*
X28899121Y53080620D01*
X28760612Y53053069D01*
X28619388Y53053069D01*
X28480879Y53080620D01*
X28350406Y53134664D01*
X28232983Y53213123D01*
X28133123Y53312983D01*
X28054664Y53430406D01*
X28000620Y53560879D01*
X27973069Y53699388D01*
X27973069Y53840612D01*
X28000620Y53979121D01*
X28054664Y54109594D01*
X28133123Y54227017D01*
X28232983Y54326877D01*
X28350406Y54405336D01*
X28480879Y54459380D01*
X28619388Y54486931D01*
X28760612Y54486931D01*
X28899121Y54459380D01*
G37*
G36*
X31439121Y54459380D02*
G01*
X31569594Y54405336D01*
X31687017Y54326877D01*
X31786877Y54227017D01*
X31865336Y54109594D01*
X31919380Y53979121D01*
X31946931Y53840612D01*
X31946931Y53699388D01*
X31919380Y53560879D01*
X31865336Y53430406D01*
X31786877Y53312983D01*
X31687017Y53213123D01*
X31569594Y53134664D01*
X31439121Y53080620D01*
X31300612Y53053069D01*
X31159388Y53053069D01*
X31020879Y53080620D01*
X30890406Y53134664D01*
X30772983Y53213123D01*
X30673123Y53312983D01*
X30594664Y53430406D01*
X30540620Y53560879D01*
X30513069Y53699388D01*
X30513069Y53840612D01*
X30540620Y53979121D01*
X30594664Y54109594D01*
X30673123Y54227017D01*
X30772983Y54326877D01*
X30890406Y54405336D01*
X31020879Y54459380D01*
X31159388Y54486931D01*
X31300612Y54486931D01*
X31439121Y54459380D01*
G37*
G36*
X33979121Y54459380D02*
G01*
X34109594Y54405336D01*
X34227017Y54326877D01*
X34326877Y54227017D01*
X34405336Y54109594D01*
X34459380Y53979121D01*
X34486931Y53840612D01*
X34486931Y53699388D01*
X34459380Y53560879D01*
X34405336Y53430406D01*
X34326877Y53312983D01*
X34227017Y53213123D01*
X34109594Y53134664D01*
X33979121Y53080620D01*
X33840612Y53053069D01*
X33699388Y53053069D01*
X33560879Y53080620D01*
X33430406Y53134664D01*
X33312983Y53213123D01*
X33213123Y53312983D01*
X33134664Y53430406D01*
X33080620Y53560879D01*
X33053069Y53699388D01*
X33053069Y53840612D01*
X33080620Y53979121D01*
X33134664Y54109594D01*
X33213123Y54227017D01*
X33312983Y54326877D01*
X33430406Y54405336D01*
X33560879Y54459380D01*
X33699388Y54486931D01*
X33840612Y54486931D01*
X33979121Y54459380D01*
G37*
G36*
X36519121Y54459380D02*
G01*
X36649594Y54405336D01*
X36767017Y54326877D01*
X36866877Y54227017D01*
X36945336Y54109594D01*
X36999380Y53979121D01*
X37026931Y53840612D01*
X37026931Y53699388D01*
X36999380Y53560879D01*
X36945336Y53430406D01*
X36866877Y53312983D01*
X36767017Y53213123D01*
X36649594Y53134664D01*
X36519121Y53080620D01*
X36380612Y53053069D01*
X36239388Y53053069D01*
X36100879Y53080620D01*
X35970406Y53134664D01*
X35852983Y53213123D01*
X35753123Y53312983D01*
X35674664Y53430406D01*
X35620620Y53560879D01*
X35593069Y53699388D01*
X35593069Y53840612D01*
X35620620Y53979121D01*
X35674664Y54109594D01*
X35753123Y54227017D01*
X35852983Y54326877D01*
X35970406Y54405336D01*
X36100879Y54459380D01*
X36239388Y54486931D01*
X36380612Y54486931D01*
X36519121Y54459380D01*
G37*
G36*
X39059121Y54459380D02*
G01*
X39189594Y54405336D01*
X39307017Y54326877D01*
X39406877Y54227017D01*
X39485336Y54109594D01*
X39539380Y53979121D01*
X39566931Y53840612D01*
X39566931Y53699388D01*
X39539380Y53560879D01*
X39485336Y53430406D01*
X39406877Y53312983D01*
X39307017Y53213123D01*
X39189594Y53134664D01*
X39059121Y53080620D01*
X38920612Y53053069D01*
X38779388Y53053069D01*
X38640879Y53080620D01*
X38510406Y53134664D01*
X38392983Y53213123D01*
X38293123Y53312983D01*
X38214664Y53430406D01*
X38160620Y53560879D01*
X38133069Y53699388D01*
X38133069Y53840612D01*
X38160620Y53979121D01*
X38214664Y54109594D01*
X38293123Y54227017D01*
X38392983Y54326877D01*
X38510406Y54405336D01*
X38640879Y54459380D01*
X38779388Y54486931D01*
X38920612Y54486931D01*
X39059121Y54459380D01*
G37*
G36*
X41599121Y54459380D02*
G01*
X41729594Y54405336D01*
X41847017Y54326877D01*
X41946877Y54227017D01*
X42025336Y54109594D01*
X42079380Y53979121D01*
X42106931Y53840612D01*
X42106931Y53699388D01*
X42079380Y53560879D01*
X42025336Y53430406D01*
X41946877Y53312983D01*
X41847017Y53213123D01*
X41729594Y53134664D01*
X41599121Y53080620D01*
X41460612Y53053069D01*
X41319388Y53053069D01*
X41180879Y53080620D01*
X41050406Y53134664D01*
X40932983Y53213123D01*
X40833123Y53312983D01*
X40754664Y53430406D01*
X40700620Y53560879D01*
X40673069Y53699388D01*
X40673069Y53840612D01*
X40700620Y53979121D01*
X40754664Y54109594D01*
X40833123Y54227017D01*
X40932983Y54326877D01*
X41050406Y54405336D01*
X41180879Y54459380D01*
X41319388Y54486931D01*
X41460612Y54486931D01*
X41599121Y54459380D01*
G37*
G36*
X44139121Y54459380D02*
G01*
X44269594Y54405336D01*
X44387017Y54326877D01*
X44486877Y54227017D01*
X44565336Y54109594D01*
X44619380Y53979121D01*
X44646931Y53840612D01*
X44646931Y53699388D01*
X44619380Y53560879D01*
X44565336Y53430406D01*
X44486877Y53312983D01*
X44387017Y53213123D01*
X44269594Y53134664D01*
X44139121Y53080620D01*
X44000612Y53053069D01*
X43859388Y53053069D01*
X43720879Y53080620D01*
X43590406Y53134664D01*
X43472983Y53213123D01*
X43373123Y53312983D01*
X43294664Y53430406D01*
X43240620Y53560879D01*
X43213069Y53699388D01*
X43213069Y53840612D01*
X43240620Y53979121D01*
X43294664Y54109594D01*
X43373123Y54227017D01*
X43472983Y54326877D01*
X43590406Y54405336D01*
X43720879Y54459380D01*
X43859388Y54486931D01*
X44000612Y54486931D01*
X44139121Y54459380D01*
G37*
G36*
X46679121Y54459380D02*
G01*
X46809594Y54405336D01*
X46927017Y54326877D01*
X47026877Y54227017D01*
X47105336Y54109594D01*
X47159380Y53979121D01*
X47186931Y53840612D01*
X47186931Y53699388D01*
X47159380Y53560879D01*
X47105336Y53430406D01*
X47026877Y53312983D01*
X46927017Y53213123D01*
X46809594Y53134664D01*
X46679121Y53080620D01*
X46540612Y53053069D01*
X46399388Y53053069D01*
X46260879Y53080620D01*
X46130406Y53134664D01*
X46012983Y53213123D01*
X45913123Y53312983D01*
X45834664Y53430406D01*
X45780620Y53560879D01*
X45753069Y53699388D01*
X45753069Y53840612D01*
X45780620Y53979121D01*
X45834664Y54109594D01*
X45913123Y54227017D01*
X46012983Y54326877D01*
X46130406Y54405336D01*
X46260879Y54459380D01*
X46399388Y54486931D01*
X46540612Y54486931D01*
X46679121Y54459380D01*
G37*
G36*
X49219121Y54459380D02*
G01*
X49349594Y54405336D01*
X49467017Y54326877D01*
X49566877Y54227017D01*
X49645336Y54109594D01*
X49699380Y53979121D01*
X49726931Y53840612D01*
X49726931Y53699388D01*
X49699380Y53560879D01*
X49645336Y53430406D01*
X49566877Y53312983D01*
X49467017Y53213123D01*
X49349594Y53134664D01*
X49219121Y53080620D01*
X49080612Y53053069D01*
X48939388Y53053069D01*
X48800879Y53080620D01*
X48670406Y53134664D01*
X48552983Y53213123D01*
X48453123Y53312983D01*
X48374664Y53430406D01*
X48320620Y53560879D01*
X48293069Y53699388D01*
X48293069Y53840612D01*
X48320620Y53979121D01*
X48374664Y54109594D01*
X48453123Y54227017D01*
X48552983Y54326877D01*
X48670406Y54405336D01*
X48800879Y54459380D01*
X48939388Y54486931D01*
X49080612Y54486931D01*
X49219121Y54459380D01*
G37*
G36*
X51759121Y54459380D02*
G01*
X51889594Y54405336D01*
X52007017Y54326877D01*
X52106877Y54227017D01*
X52185336Y54109594D01*
X52239380Y53979121D01*
X52266931Y53840612D01*
X52266931Y53699388D01*
X52239380Y53560879D01*
X52185336Y53430406D01*
X52106877Y53312983D01*
X52007017Y53213123D01*
X51889594Y53134664D01*
X51759121Y53080620D01*
X51620612Y53053069D01*
X51479388Y53053069D01*
X51340879Y53080620D01*
X51210406Y53134664D01*
X51092983Y53213123D01*
X50993123Y53312983D01*
X50914664Y53430406D01*
X50860620Y53560879D01*
X50833069Y53699388D01*
X50833069Y53840612D01*
X50860620Y53979121D01*
X50914664Y54109594D01*
X50993123Y54227017D01*
X51092983Y54326877D01*
X51210406Y54405336D01*
X51340879Y54459380D01*
X51479388Y54486931D01*
X51620612Y54486931D01*
X51759121Y54459380D01*
G37*
G36*
X54299121Y54459380D02*
G01*
X54429594Y54405336D01*
X54547017Y54326877D01*
X54646877Y54227017D01*
X54725336Y54109594D01*
X54779380Y53979121D01*
X54806931Y53840612D01*
X54806931Y53699388D01*
X54779380Y53560879D01*
X54725336Y53430406D01*
X54646877Y53312983D01*
X54547017Y53213123D01*
X54429594Y53134664D01*
X54299121Y53080620D01*
X54160612Y53053069D01*
X54019388Y53053069D01*
X53880879Y53080620D01*
X53750406Y53134664D01*
X53632983Y53213123D01*
X53533123Y53312983D01*
X53454664Y53430406D01*
X53400620Y53560879D01*
X53373069Y53699388D01*
X53373069Y53840612D01*
X53400620Y53979121D01*
X53454664Y54109594D01*
X53533123Y54227017D01*
X53632983Y54326877D01*
X53750406Y54405336D01*
X53880879Y54459380D01*
X54019388Y54486931D01*
X54160612Y54486931D01*
X54299121Y54459380D01*
G37*
G36*
X56839121Y54459380D02*
G01*
X56969594Y54405336D01*
X57087017Y54326877D01*
X57186877Y54227017D01*
X57265336Y54109594D01*
X57319380Y53979121D01*
X57346931Y53840612D01*
X57346931Y53699388D01*
X57319380Y53560879D01*
X57265336Y53430406D01*
X57186877Y53312983D01*
X57087017Y53213123D01*
X56969594Y53134664D01*
X56839121Y53080620D01*
X56700612Y53053069D01*
X56559388Y53053069D01*
X56420879Y53080620D01*
X56290406Y53134664D01*
X56172983Y53213123D01*
X56073123Y53312983D01*
X55994664Y53430406D01*
X55940620Y53560879D01*
X55913069Y53699388D01*
X55913069Y53840612D01*
X55940620Y53979121D01*
X55994664Y54109594D01*
X56073123Y54227017D01*
X56172983Y54326877D01*
X56290406Y54405336D01*
X56420879Y54459380D01*
X56559388Y54486931D01*
X56700612Y54486931D01*
X56839121Y54459380D01*
G37*
M02*
