%TF.GenerationSoftware,KiCad,Pcbnew,9.0.2*%
%TF.CreationDate,2025-05-18T12:34:57-05:00*%
%TF.ProjectId,1026 RPi Power Hat,31303236-2052-4506-9920-506f77657220,1.0.0*%
%TF.SameCoordinates,PX5f5e100PY8f0d180*%
%TF.FileFunction,Paste,Top*%
%TF.FilePolarity,Positive*%
%FSLAX46Y46*%
G04 Gerber Fmt 4.6, Leading zero omitted, Abs format (unit mm)*
G04 Created by KiCad (PCBNEW 9.0.2) date 2025-05-18 12:34:57*
%MOMM*%
%LPD*%
G01*
G04 APERTURE LIST*
G04 Aperture macros list*
%AMRoundRect*
0 Rectangle with rounded corners*
0 $1 Rounding radius*
0 $2 $3 $4 $5 $6 $7 $8 $9 X,Y pos of 4 corners*
0 Add a 4 corners polygon primitive as box body*
4,1,4,$2,$3,$4,$5,$6,$7,$8,$9,$2,$3,0*
0 Add four circle primitives for the rounded corners*
1,1,$1+$1,$2,$3*
1,1,$1+$1,$4,$5*
1,1,$1+$1,$6,$7*
1,1,$1+$1,$8,$9*
0 Add four rect primitives between the rounded corners*
20,1,$1+$1,$2,$3,$4,$5,0*
20,1,$1+$1,$4,$5,$6,$7,0*
20,1,$1+$1,$6,$7,$8,$9,0*
20,1,$1+$1,$8,$9,$2,$3,0*%
%AMRotRect*
0 Rectangle, with rotation*
0 The origin of the aperture is its center*
0 $1 length*
0 $2 width*
0 $3 Rotation angle, in degrees counterclockwise*
0 Add horizontal line*
21,1,$1,$2,0,0,$3*%
%AMFreePoly0*
4,1,21,-0.125000,1.200000,0.125000,1.200000,0.125000,1.700000,0.375000,1.700000,0.375000,1.200000,0.825000,1.200000,0.825000,-1.200000,0.375000,-1.200000,0.375000,-1.700000,0.125000,-1.700000,0.125000,-1.200000,-0.125000,-1.200000,-0.125000,-1.700000,-0.375000,-1.700000,-0.375000,-1.200000,-0.825000,-1.200000,-0.825000,1.200000,-0.375000,1.200000,-0.375000,1.700000,-0.125000,1.700000,
-0.125000,1.200000,-0.125000,1.200000,$1*%
%AMFreePoly1*
4,1,9,0.127000,-0.126997,0.635000,-0.126997,0.635000,-0.380997,0.127000,-0.380998,0.127000,-0.380999,-0.127000,-0.380999,-0.127000,0.381001,0.127000,0.381001,0.127000,-0.126997,0.127000,-0.126997,$1*%
%AMFreePoly2*
4,1,7,0.125811,-0.383999,-0.636189,-0.383997,-0.636189,-0.129997,-0.128189,-0.129997,-0.128189,0.378001,0.125811,0.378001,0.125811,-0.383999,0.125811,-0.383999,$1*%
%AMFreePoly3*
4,1,7,0.127000,-0.381000,-0.127000,-0.381000,-0.127000,0.126998,-0.635000,0.126998,-0.635000,0.381000,0.127000,0.381000,0.127000,-0.381000,0.127000,-0.381000,$1*%
%AMFreePoly4*
4,1,7,0.636189,0.383997,0.636189,0.129997,0.128189,0.129997,0.128189,-0.378001,-0.125811,-0.378001,-0.125811,0.383999,0.636189,0.383997,0.636189,0.383997,$1*%
%AMFreePoly5*
4,1,21,1.003536,1.703536,1.005000,1.700000,1.005000,0.925000,1.003536,0.921464,0.405000,0.322928,0.405000,-0.822928,1.003536,-1.421464,1.005000,-1.425000,1.005000,-2.200000,1.003536,-2.203536,1.000000,-2.205000,0.100000,-2.205000,0.096464,-2.203536,-0.453536,-1.653536,-0.455000,-1.650000,-0.455000,1.150000,-0.453536,1.153536,0.121544,1.703613,0.125000,1.705000,1.000000,1.705000,
1.003536,1.703536,1.003536,1.703536,$1*%
%AMFreePoly6*
4,1,22,1.003536,1.953536,1.005000,1.950000,1.005000,1.175000,1.003536,1.171464,0.405000,0.572928,0.405000,-0.572928,1.003536,-1.171464,1.005000,-1.175000,1.005000,-1.950000,1.003536,-1.953536,1.000000,-1.955000,0.125000,-1.955000,0.121544,-1.953613,-0.453456,-1.403613,-0.454999,-1.400111,-0.455000,-1.400000,-0.455000,1.400000,-0.453536,1.403536,0.096464,1.953536,0.100000,1.955000,
1.000000,1.955000,1.003536,1.953536,1.003536,1.953536,$1*%
G04 Aperture macros list end*
%ADD10C,1.400000*%
%ADD11C,0.000000*%
%ADD12RoundRect,0.135000X-0.135000X-0.185000X0.135000X-0.185000X0.135000X0.185000X-0.135000X0.185000X0*%
%ADD13RoundRect,0.135000X-0.185000X0.135000X-0.185000X-0.135000X0.185000X-0.135000X0.185000X0.135000X0*%
%ADD14RotRect,0.579999X0.579999X225.000000*%
%ADD15RoundRect,0.225000X-0.250000X0.225000X-0.250000X-0.225000X0.250000X-0.225000X0.250000X0.225000X0*%
%ADD16RoundRect,0.250000X-1.100000X0.325000X-1.100000X-0.325000X1.100000X-0.325000X1.100000X0.325000X0*%
%ADD17RoundRect,0.140000X-0.219203X-0.021213X-0.021213X-0.219203X0.219203X0.021213X0.021213X0.219203X0*%
%ADD18RoundRect,0.135000X0.185000X-0.135000X0.185000X0.135000X-0.185000X0.135000X-0.185000X-0.135000X0*%
%ADD19RoundRect,0.140000X-0.140000X-0.170000X0.140000X-0.170000X0.140000X0.170000X-0.140000X0.170000X0*%
%ADD20RoundRect,0.140000X0.170000X-0.140000X0.170000X0.140000X-0.170000X0.140000X-0.170000X-0.140000X0*%
%ADD21R,0.750000X0.300000*%
%ADD22R,1.350000X1.450000*%
%ADD23R,3.150000X1.780000*%
%ADD24RoundRect,0.140000X-0.170000X0.140000X-0.170000X-0.140000X0.170000X-0.140000X0.170000X0.140000X0*%
%ADD25RoundRect,0.135000X-0.226274X-0.035355X-0.035355X-0.226274X0.226274X0.035355X0.035355X0.226274X0*%
%ADD26RoundRect,0.225000X-0.017678X0.335876X-0.335876X0.017678X0.017678X-0.335876X0.335876X-0.017678X0*%
%ADD27RoundRect,0.140000X-0.021213X0.219203X-0.219203X0.021213X0.021213X-0.219203X0.219203X-0.021213X0*%
%ADD28R,0.990000X0.300000*%
%ADD29RoundRect,0.135000X0.135000X0.185000X-0.135000X0.185000X-0.135000X-0.185000X0.135000X-0.185000X0*%
%ADD30R,0.240000X0.600000*%
%ADD31FreePoly0,90.000000*%
%ADD32RotRect,1.800000X2.300000X225.000000*%
%ADD33RotRect,0.300000X0.990000X315.000000*%
%ADD34R,0.400000X0.500000*%
%ADD35RoundRect,0.250000X1.100000X-0.325000X1.100000X0.325000X-1.100000X0.325000X-1.100000X-0.325000X0*%
%ADD36R,0.600000X0.600000*%
%ADD37RoundRect,0.140000X0.021213X-0.219203X0.219203X-0.021213X-0.021213X0.219203X-0.219203X0.021213X0*%
%ADD38R,1.300000X1.400000*%
%ADD39RoundRect,0.135000X0.226274X0.035355X0.035355X0.226274X-0.226274X-0.035355X-0.035355X-0.226274X0*%
%ADD40RoundRect,0.250000X-0.250000X-0.475000X0.250000X-0.475000X0.250000X0.475000X-0.250000X0.475000X0*%
%ADD41RoundRect,0.135000X0.035355X-0.226274X0.226274X-0.035355X-0.035355X0.226274X-0.226274X0.035355X0*%
%ADD42R,2.430000X2.370000*%
%ADD43R,0.350000X0.430000*%
%ADD44R,1.250000X1.100000*%
%ADD45R,0.350000X0.660000*%
%ADD46RoundRect,0.135000X-0.035355X0.226274X-0.226274X0.035355X0.035355X-0.226274X0.226274X-0.035355X0*%
%ADD47RotRect,0.800000X0.900000X225.000000*%
%ADD48R,2.370000X2.430000*%
%ADD49R,1.800000X2.300000*%
%ADD50R,3.400000X0.980000*%
%ADD51FreePoly1,180.000000*%
%ADD52R,0.254000X0.762000*%
%ADD53FreePoly2,180.000000*%
%ADD54R,0.762000X0.254000*%
%ADD55FreePoly3,180.000000*%
%ADD56FreePoly4,180.000000*%
%ADD57R,2.209800X1.701800*%
%ADD58R,0.650000X0.700000*%
%ADD59R,0.460000X0.400000*%
%ADD60FreePoly5,0.000000*%
%ADD61FreePoly6,180.000000*%
%ADD62RoundRect,0.140000X0.219203X0.021213X0.021213X0.219203X-0.219203X-0.021213X-0.021213X-0.219203X0*%
%ADD63RotRect,0.300000X1.475000X45.000000*%
%ADD64RotRect,0.300000X1.475000X315.000000*%
%ADD65RotRect,8.000000X8.000000X315.000000*%
G04 APERTURE END LIST*
%TO.C,H4*%
D10*
X62200000Y52500000D02*
G75*
G02*
X60800000Y52500000I-700000J0D01*
G01*
X60800000Y52500000D02*
G75*
G02*
X62200000Y52500000I700000J0D01*
G01*
%TO.C,H1*%
X4200000Y3500000D02*
G75*
G02*
X2800000Y3500000I-700000J0D01*
G01*
X2800000Y3500000D02*
G75*
G02*
X4200000Y3500000I700000J0D01*
G01*
D11*
%TO.C,U3*%
G36*
X34750000Y16800008D02*
G01*
X34570001Y16620008D01*
X34350001Y16620008D01*
X34350001Y16830008D01*
X34750000Y16830008D01*
X34750000Y16800008D01*
G37*
G36*
X34750000Y16000004D02*
G01*
X34750000Y15970004D01*
X34350001Y15970004D01*
X34350001Y16180004D01*
X34570001Y16180004D01*
X34750000Y16000004D01*
G37*
G36*
X35649999Y16620008D02*
G01*
X35429999Y16620008D01*
X35250000Y16800008D01*
X35250000Y16830008D01*
X35649999Y16830008D01*
X35649999Y16620008D01*
G37*
G36*
X35649999Y15970004D02*
G01*
X35250000Y15970004D01*
X35250000Y16000004D01*
X35429999Y16180004D01*
X35649999Y16180004D01*
X35649999Y15970004D01*
G37*
%TO.C,U2*%
G36*
X34784998Y22975005D02*
G01*
X34604999Y22795005D01*
X34384999Y22795005D01*
X34384999Y23005005D01*
X34784998Y23005005D01*
X34784998Y22975005D01*
G37*
G36*
X34784998Y22175001D02*
G01*
X34784998Y22145001D01*
X34384999Y22145001D01*
X34384999Y22355001D01*
X34604999Y22355001D01*
X34784998Y22175001D01*
G37*
G36*
X35684997Y22795005D02*
G01*
X35464997Y22795005D01*
X35284998Y22975005D01*
X35284998Y23005005D01*
X35684997Y23005005D01*
X35684997Y22795005D01*
G37*
G36*
X35684997Y22145001D02*
G01*
X35284998Y22145001D01*
X35284998Y22175001D01*
X35464997Y22355001D01*
X35684997Y22355001D01*
X35684997Y22145001D01*
G37*
%TD*%
D12*
%TO.C,R11*%
X35309996Y23900006D03*
X36329996Y23900006D03*
%TD*%
D13*
%TO.C,R1*%
X11000000Y13510000D03*
X11000000Y12490000D03*
%TD*%
D14*
%TO.C,U3*%
X35000000Y16400006D03*
%TD*%
D15*
%TO.C,C14*%
X36819996Y22675006D03*
X36819996Y21125006D03*
%TD*%
D16*
%TO.C,C10*%
X20500000Y20975000D03*
X20500000Y18025000D03*
%TD*%
D17*
%TO.C,C20*%
X55260589Y32939411D03*
X55939411Y32260589D03*
%TD*%
D18*
%TO.C,R14*%
X34200000Y41590000D03*
X34200000Y42610000D03*
%TD*%
D19*
%TO.C,C32*%
X66920000Y33000000D03*
X67880000Y33000000D03*
%TD*%
D18*
%TO.C,R6*%
X25750000Y9720000D03*
X25750000Y10740000D03*
%TD*%
%TO.C,R2*%
X16250000Y17740000D03*
X16250000Y18760000D03*
%TD*%
D12*
%TO.C,R10*%
X33309996Y23900006D03*
X34329996Y23900006D03*
%TD*%
D20*
%TO.C,C5*%
X21500000Y14770000D03*
X21500000Y15730000D03*
%TD*%
D21*
%TO.C,U7*%
X34500000Y48250000D03*
X34500000Y47750000D03*
X34500000Y47250000D03*
X34500000Y46750000D03*
X37500000Y46750000D03*
X37500000Y47250000D03*
X37500000Y47750000D03*
X37500000Y48250000D03*
D22*
X36000000Y47500000D03*
%TD*%
D20*
%TO.C,C9*%
X22000000Y9770000D03*
X22000000Y10730000D03*
%TD*%
D19*
%TO.C,C31*%
X69720000Y17800000D03*
X70680000Y17800000D03*
%TD*%
D18*
%TO.C,R15*%
X34200000Y43590001D03*
X34200000Y44609999D03*
%TD*%
D23*
%TO.C,F1*%
X3500000Y8385000D03*
X3500000Y13615000D03*
%TD*%
D24*
%TO.C,C12*%
X26750000Y10730000D03*
X26750000Y9770000D03*
%TD*%
D19*
%TO.C,C34*%
X66920000Y51900000D03*
X67880000Y51900000D03*
%TD*%
D25*
%TO.C,R16*%
X42239376Y43110624D03*
X42960624Y42389376D03*
%TD*%
D26*
%TO.C,C36*%
X36948008Y30448008D03*
X35851992Y29351992D03*
%TD*%
D27*
%TO.C,C18*%
X42439411Y31139411D03*
X41760589Y30460589D03*
%TD*%
D28*
%TO.C,U9*%
X59695000Y28500000D03*
X59695000Y28000000D03*
X59695000Y27500000D03*
X61305000Y27500000D03*
X61305000Y28000000D03*
X61305000Y28500000D03*
%TD*%
D13*
%TO.C,R9*%
X31000000Y11760000D03*
X31000000Y10740000D03*
%TD*%
D29*
%TO.C,R18*%
X70710000Y16800000D03*
X69690000Y16800000D03*
%TD*%
D30*
%TO.C,U6*%
X44100000Y14800000D03*
X44600000Y14800000D03*
X45100000Y14800000D03*
X45600000Y14800000D03*
X46100000Y14800000D03*
X46100000Y17600000D03*
X45600000Y17600000D03*
X45100000Y17600000D03*
X44600000Y17600000D03*
X44100000Y17600000D03*
D31*
X45100000Y16200000D03*
%TD*%
D19*
%TO.C,C33*%
X66920000Y35000000D03*
X67880000Y35000000D03*
%TD*%
D32*
%TO.C,C46*%
X62825305Y37525305D03*
X60774695Y35474695D03*
%TD*%
D13*
%TO.C,R3*%
X28000000Y13010000D03*
X28000000Y11990000D03*
%TD*%
D12*
%TO.C,R7*%
X25740000Y8730000D03*
X26760000Y8730000D03*
%TD*%
D27*
%TO.C,C26*%
X40239411Y31839411D03*
X39560589Y31160589D03*
%TD*%
D33*
%TO.C,U11*%
X59577226Y44384332D03*
X59930779Y44030779D03*
X60284332Y43677226D03*
X61422774Y44815668D03*
X61069221Y45169221D03*
X60715668Y45522774D03*
%TD*%
D34*
%TO.C,FB1*%
X35050000Y39500000D03*
X35850000Y39500000D03*
%TD*%
D14*
%TO.C,U2*%
X35034998Y22575003D03*
%TD*%
D17*
%TO.C,C19*%
X52460589Y30039411D03*
X53139411Y29360589D03*
%TD*%
D35*
%TO.C,C3*%
X19000000Y13275000D03*
X19000000Y16225000D03*
%TD*%
D36*
%TO.C,D1*%
X9500000Y14850000D03*
X9500000Y12650000D03*
%TD*%
D16*
%TO.C,C11*%
X29000000Y20975000D03*
X29000000Y18025000D03*
%TD*%
D37*
%TO.C,C23*%
X52460589Y43860589D03*
X53139411Y44539411D03*
%TD*%
D20*
%TO.C,C6*%
X28000000Y14770000D03*
X28000000Y15730000D03*
%TD*%
D38*
%TO.C,D3*%
X5450000Y16250000D03*
X2550000Y16250000D03*
%TD*%
D30*
%TO.C,U5*%
X63400000Y16000000D03*
X63900000Y16000000D03*
X64400000Y16000000D03*
X64900000Y16000000D03*
X65400000Y16000000D03*
X65400000Y18800000D03*
X64900000Y18800000D03*
X64400000Y18800000D03*
X63900000Y18800000D03*
X63400000Y18800000D03*
D31*
X64400000Y17400000D03*
%TD*%
D24*
%TO.C,C39*%
X63000000Y23380000D03*
X63000000Y22420000D03*
%TD*%
D39*
%TO.C,R21*%
X42260624Y44439376D03*
X41539376Y45160624D03*
%TD*%
D33*
%TO.C,U12*%
X57077226Y46784332D03*
X57430779Y46430779D03*
X57784332Y46077226D03*
X58922774Y47215668D03*
X58569221Y47569221D03*
X58215668Y47922774D03*
%TD*%
D18*
%TO.C,R8*%
X27750000Y9720000D03*
X27750000Y10740000D03*
%TD*%
D40*
%TO.C,C29*%
X34500000Y37950000D03*
X36400000Y37950000D03*
%TD*%
D12*
%TO.C,R12*%
X33205002Y17825003D03*
X34225002Y17825003D03*
%TD*%
D29*
%TO.C,R19*%
X67910000Y34000000D03*
X66890000Y34000000D03*
%TD*%
D41*
%TO.C,R24*%
X50639376Y45639376D03*
X51360624Y46360624D03*
%TD*%
D17*
%TO.C,C28*%
X57160589Y33189411D03*
X57839411Y32510589D03*
%TD*%
D13*
%TO.C,R33*%
X47800000Y17710000D03*
X47800000Y16690000D03*
%TD*%
D42*
%TO.C,C2*%
X17500000Y10120000D03*
X17500000Y3880000D03*
%TD*%
D43*
%TO.C,Q1*%
X6350000Y12565000D03*
X7000000Y12565000D03*
X7650000Y12565000D03*
X7650000Y14435000D03*
X7000000Y14435000D03*
X6350000Y14435000D03*
D44*
X6715000Y13500000D03*
D45*
X7775000Y13500000D03*
%TD*%
D28*
%TO.C,U8*%
X59795000Y9500000D03*
X59795000Y9000000D03*
X59795000Y8500000D03*
X61405000Y8500000D03*
X61405000Y9000000D03*
X61405000Y9500000D03*
%TD*%
D24*
%TO.C,C8*%
X21500000Y12730000D03*
X21500000Y11770000D03*
%TD*%
D13*
%TO.C,R28*%
X67090000Y18910000D03*
X67090000Y17890000D03*
%TD*%
D19*
%TO.C,C30*%
X69720000Y15800000D03*
X70680000Y15800000D03*
%TD*%
D12*
%TO.C,R13*%
X35205002Y17825003D03*
X36225002Y17825003D03*
%TD*%
D19*
%TO.C,C42*%
X43720000Y13500000D03*
X44680000Y13500000D03*
%TD*%
D27*
%TO.C,C17*%
X40339411Y33239411D03*
X39660589Y32560589D03*
%TD*%
D19*
%TO.C,C48*%
X67320000Y25200000D03*
X68280000Y25200000D03*
%TD*%
D25*
%TO.C,R17*%
X41539376Y42360624D03*
X42260624Y41639376D03*
%TD*%
D46*
%TO.C,R29*%
X36760624Y43160624D03*
X36039376Y42439376D03*
%TD*%
D13*
%TO.C,R4*%
X29000000Y11760000D03*
X29000000Y10740000D03*
%TD*%
D15*
%TO.C,C16*%
X36715002Y16600003D03*
X36715002Y15050003D03*
%TD*%
D41*
%TO.C,R32*%
X42239376Y47239376D03*
X42960624Y47960624D03*
%TD*%
%TO.C,R23*%
X45939376Y45239376D03*
X46660624Y45960624D03*
%TD*%
D19*
%TO.C,C50*%
X67420000Y45100000D03*
X68380000Y45100000D03*
%TD*%
D20*
%TO.C,C52*%
X33250000Y47020000D03*
X33250000Y47980000D03*
%TD*%
D47*
%TO.C,Y1*%
X46666726Y24758579D03*
X45358579Y26066726D03*
X44333274Y25041421D03*
X45641421Y23733274D03*
%TD*%
D48*
%TO.C,C1*%
X13620000Y20000000D03*
X7380000Y20000000D03*
%TD*%
D49*
%TO.C,C41*%
X61250000Y21400000D03*
X58350000Y21400000D03*
%TD*%
D50*
%TO.C,L2*%
X24750000Y17815000D03*
X24750000Y20185000D03*
%TD*%
D19*
%TO.C,C37*%
X63120000Y14700000D03*
X64080000Y14700000D03*
%TD*%
D51*
%TO.C,U1*%
X23249622Y12425000D03*
D52*
X23749748Y12424999D03*
X24249874Y12424999D03*
X24750000Y12424999D03*
X25250126Y12424999D03*
X25750252Y12424999D03*
D53*
X26249189Y12422000D03*
D54*
X26575000Y13249811D03*
X26575000Y13749937D03*
X26575000Y14250063D03*
X26575000Y14750189D03*
D55*
X26250378Y15575001D03*
D52*
X25750252Y15575001D03*
X25250126Y15575001D03*
X24750000Y15575001D03*
X24249874Y15575001D03*
X23749748Y15575001D03*
D56*
X23250811Y15578000D03*
D54*
X22925000Y14750189D03*
X22925000Y14250063D03*
X22925000Y13749937D03*
X22925000Y13249811D03*
D57*
X24750000Y14000000D03*
%TD*%
D58*
%TO.C,FB3*%
X66625000Y22300000D03*
X67975000Y22300000D03*
%TD*%
D35*
%TO.C,C4*%
X30250000Y13275000D03*
X30250000Y16225000D03*
%TD*%
D29*
%TO.C,R20*%
X67910000Y53000000D03*
X66890000Y53000000D03*
%TD*%
D19*
%TO.C,C51*%
X67420000Y40950000D03*
X68380000Y40950000D03*
%TD*%
D46*
%TO.C,R30*%
X37460624Y42460624D03*
X36739376Y41739376D03*
%TD*%
D59*
%TO.C,D2*%
X16500000Y21000000D03*
X16500000Y20000000D03*
%TD*%
D39*
%TO.C,R22*%
X42960624Y45139376D03*
X42239376Y45860624D03*
%TD*%
D40*
%TO.C,C21*%
X36350000Y35400000D03*
X38250000Y35400000D03*
%TD*%
D58*
%TO.C,FB6*%
X66625000Y43800000D03*
X67975000Y43800000D03*
%TD*%
D60*
%TO.C,L1*%
X12500000Y15000000D03*
D61*
X16000000Y14750000D03*
%TD*%
D19*
%TO.C,C49*%
X67320000Y21000000D03*
X68280000Y21000000D03*
%TD*%
D13*
%TO.C,R35*%
X38700000Y46810000D03*
X38700000Y45790000D03*
%TD*%
D62*
%TO.C,C45*%
X65139411Y37660589D03*
X64460589Y38339411D03*
%TD*%
D41*
%TO.C,R31*%
X41539376Y47939376D03*
X42260624Y48660624D03*
%TD*%
D32*
%TO.C,C44*%
X60325305Y40125305D03*
X58274695Y38074695D03*
%TD*%
D15*
%TO.C,C15*%
X33284998Y16600005D03*
X33284998Y15050005D03*
%TD*%
D12*
%TO.C,R27*%
X35290000Y44400000D03*
X36310000Y44400000D03*
%TD*%
D49*
%TO.C,C40*%
X61250000Y25000000D03*
X58350000Y25000000D03*
%TD*%
D34*
%TO.C,FB2*%
X36900000Y33800000D03*
X37700000Y33800000D03*
%TD*%
D15*
%TO.C,C7*%
X24500000Y10525000D03*
X24500000Y8975000D03*
%TD*%
D33*
%TO.C,U10*%
X60777226Y31384332D03*
X61130779Y31030779D03*
X61484332Y30677226D03*
X62622774Y31815668D03*
X62269221Y32169221D03*
X61915668Y32522774D03*
%TD*%
D58*
%TO.C,FB5*%
X66625000Y42250000D03*
X67975000Y42250000D03*
%TD*%
D24*
%TO.C,C38*%
X63000000Y26280000D03*
X63000000Y25320000D03*
%TD*%
D37*
%TO.C,C25*%
X45160589Y45960589D03*
X45839411Y46639411D03*
%TD*%
%TO.C,C47*%
X46960589Y22960589D03*
X47639411Y23639411D03*
%TD*%
D41*
%TO.C,R25*%
X44639376Y27439376D03*
X45360624Y28160624D03*
%TD*%
D37*
%TO.C,C24*%
X51360589Y44960589D03*
X52039411Y45639411D03*
%TD*%
D58*
%TO.C,FB4*%
X66625000Y23900000D03*
X67975000Y23900000D03*
%TD*%
D27*
%TO.C,C27*%
X43839411Y28239411D03*
X43160589Y27560589D03*
%TD*%
D41*
%TO.C,R26*%
X37339376Y31739376D03*
X38060624Y32460624D03*
%TD*%
D15*
%TO.C,C13*%
X33250000Y22675006D03*
X33250000Y21125006D03*
%TD*%
D36*
%TO.C,D4*%
X29200000Y9250000D03*
X30300000Y9250000D03*
%TD*%
D29*
%TO.C,R34*%
X38410000Y49300000D03*
X37390000Y49300000D03*
%TD*%
D63*
%TO.C,U4*%
X46594272Y43709029D03*
X46240718Y43355476D03*
X45887165Y43001922D03*
X45533612Y42648369D03*
X45180058Y42294816D03*
X44826505Y41941262D03*
X44472951Y41587709D03*
X44119398Y41234155D03*
X43765845Y40880602D03*
X43412291Y40527049D03*
X43058738Y40173495D03*
X42705184Y39819942D03*
X42351631Y39466388D03*
X41998078Y39112835D03*
X41644524Y38759282D03*
X41290971Y38405728D03*
D64*
X41290971Y35594272D03*
X41644524Y35240718D03*
X41998078Y34887165D03*
X42351631Y34533612D03*
X42705184Y34180058D03*
X43058738Y33826505D03*
X43412291Y33472951D03*
X43765845Y33119398D03*
X44119398Y32765845D03*
X44472951Y32412291D03*
X44826505Y32058738D03*
X45180058Y31705184D03*
X45533612Y31351631D03*
X45887165Y30998078D03*
X46240718Y30644524D03*
X46594272Y30290971D03*
D63*
X49405728Y30290971D03*
X49759282Y30644524D03*
X50112835Y30998078D03*
X50466388Y31351631D03*
X50819942Y31705184D03*
X51173495Y32058738D03*
X51527049Y32412291D03*
X51880602Y32765845D03*
X52234155Y33119398D03*
X52587709Y33472951D03*
X52941262Y33826505D03*
X53294816Y34180058D03*
X53648369Y34533612D03*
X54001922Y34887165D03*
X54355476Y35240718D03*
X54709029Y35594272D03*
D64*
X54709029Y38405728D03*
X54355476Y38759282D03*
X54001922Y39112835D03*
X53648369Y39466388D03*
X53294816Y39819942D03*
X52941262Y40173495D03*
X52587709Y40527049D03*
X52234155Y40880602D03*
X51880602Y41234155D03*
X51527049Y41587709D03*
X51173495Y41941262D03*
X50819942Y42294816D03*
X50466388Y42648369D03*
X50112835Y43001922D03*
X49759282Y43355476D03*
X49405728Y43709029D03*
D65*
X48000000Y37000000D03*
%TD*%
D37*
%TO.C,C22*%
X54960589Y41460589D03*
X55639411Y42139411D03*
%TD*%
D27*
%TO.C,C43*%
X61739411Y42539411D03*
X61060589Y41860589D03*
%TD*%
D19*
%TO.C,C35*%
X66920000Y54000000D03*
X67880000Y54000000D03*
%TD*%
D13*
%TO.C,R5*%
X23000000Y10760000D03*
X23000000Y9740000D03*
%TD*%
M02*
