%TF.GenerationSoftware,KiCad,Pcbnew,9.0.0*%
%TF.CreationDate,2025-04-20T18:30:44-05:00*%
%TF.ProjectId,1026 RPi Power Hat,31303236-2052-4506-9920-506f77657220,1*%
%TF.SameCoordinates,PX5f5e100PY8f0d180*%
%TF.FileFunction,Legend,Bot*%
%TF.FilePolarity,Positive*%
%FSLAX46Y46*%
G04 Gerber Fmt 4.6, Leading zero omitted, Abs format (unit mm)*
G04 Created by KiCad (PCBNEW 9.0.0) date 2025-04-20 18:30:44*
%MOMM*%
%LPD*%
G01*
G04 APERTURE LIST*
%ADD10C,0.254000*%
%ADD11C,0.200000*%
G04 APERTURE END LIST*
D10*
X8923332Y49495682D02*
X8923332Y48588539D01*
X8923332Y48588539D02*
X8983809Y48407111D01*
X8983809Y48407111D02*
X9104761Y48286158D01*
X9104761Y48286158D02*
X9286190Y48225682D01*
X9286190Y48225682D02*
X9407142Y48225682D01*
X8439523Y49495682D02*
X7653332Y49495682D01*
X7653332Y49495682D02*
X8076666Y49011873D01*
X8076666Y49011873D02*
X7895237Y49011873D01*
X7895237Y49011873D02*
X7774285Y48951397D01*
X7774285Y48951397D02*
X7713809Y48890920D01*
X7713809Y48890920D02*
X7653332Y48769968D01*
X7653332Y48769968D02*
X7653332Y48467587D01*
X7653332Y48467587D02*
X7713809Y48346635D01*
X7713809Y48346635D02*
X7774285Y48286158D01*
X7774285Y48286158D02*
X7895237Y48225682D01*
X7895237Y48225682D02*
X8258094Y48225682D01*
X8258094Y48225682D02*
X8379047Y48286158D01*
X8379047Y48286158D02*
X8439523Y48346635D01*
D11*
%TO.C,J3*%
X6845000Y54975000D02*
X6845000Y50025000D01*
X6845000Y54975000D02*
X58155000Y54975000D01*
X6845000Y50025000D02*
X58155000Y50025000D01*
X58155000Y50025000D02*
X58155000Y54975000D01*
X6295000Y51230000D02*
G75*
G02*
X6095000Y51230000I-100000J0D01*
G01*
X6095000Y51230000D02*
G75*
G02*
X6295000Y51230000I100000J0D01*
G01*
%TD*%
M02*
